<mxfile host="drawio-plugin" agent="5.0 (Macintosh; Intel Mac OS X 14_3_0) AppleWebKit/537.36 (KHTML, like Gecko) Chrome/89.0.4389.90 Safari/537.36" modified="2025-06-01T19:16:15.931Z" version="20.5.3" etag="FTjsu4oTVG6QVXKgjdMd" type="embed" pages="2"><diagram name="MOPL" id="uDkjN5hFZX_Sw2lP2Wnj"><mxGraphModel dx="544" dy="427" grid="1" gridSize="10" guides="1" tooltips="1" connect="1" arrows="1" fold="1" page="1" pageScale="1" pageWidth="850" pageHeight="1100" math="0" shadow="0"><root><mxCell id="0"/><mxCell id="1" parent="0"/><mxCell id="tUA2d2M24Zf1GxSSOIwZ-1" value="" style="rounded=1;whiteSpace=wrap;html=1;dashed=1;dashPattern=8 8;" parent="1" vertex="1"><mxGeometry x="147.33" y="313" width="350" height="277" as="geometry"/></mxCell><mxCell id="tUA2d2M24Zf1GxSSOIwZ-2" value="" style="rounded=1;whiteSpace=wrap;html=1;dashed=1;dashPattern=8 8;fontSize=10;fontFamily=Georgia;" parent="1" vertex="1"><mxGeometry x="503.3299999999999" y="266" width="300" height="70.8" as="geometry"/></mxCell><mxCell id="tUA2d2M24Zf1GxSSOIwZ-3" value="" style="rounded=1;whiteSpace=wrap;html=1;dashed=1;dashPattern=8 8;fontSize=10;fontFamily=Georgia;" parent="1" vertex="1"><mxGeometry x="383.3299999999999" y="646" width="151" height="71.61" as="geometry"/></mxCell><mxCell id="tUA2d2M24Zf1GxSSOIwZ-4" value="" style="endArrow=classic;html=1;rounded=0;fontFamily=Georgia;fontSize=10;entryX=0.5;entryY=0;entryDx=0;entryDy=0;" parent="1" source="tUA2d2M24Zf1GxSSOIwZ-24" target="tUA2d2M24Zf1GxSSOIwZ-3" edge="1"><mxGeometry width="50" height="50" relative="1" as="geometry"><mxPoint x="453.3299999999999" y="276" as="sourcePoint"/><mxPoint x="503.3299999999999" y="226" as="targetPoint"/><Array as="points"/></mxGeometry></mxCell><mxCell id="tUA2d2M24Zf1GxSSOIwZ-5" value="" style="shape=image;verticalLabelPosition=bottom;labelBackgroundColor=default;verticalAlign=top;aspect=fixed;imageAspect=0;image=data:image/png,iVBORw0KGgoAAAANSUhEUgAAAMwAAADACAMAAAB/Pny7AAAAmVBMVEX///8JR008rLYAMTkAJi/GzM2gqav7+/sAQ0oBRUsNRk2tuLrd4uIYS1IAPkUAOD/x8/O1wMFeeHt0hYjp7O1Tb3IRQEcuqLJJsLmMyc/i8PKAj5J/w8rs9fZyvsXZ7O6Bl5sgUlhJcHRAY2c2WF1lhIijsbPQ2dqVqasAHyp1jI+Tn6I0YGUATVO23OAqUFaf0tfI5OdfuMBEIlKZAAAIKUlEQVR4nO2d6XqqMBCGRcoJVGWpVtSKYlW0mwXv/+IOWsUZSGQxIPLk+9k0Mi8kYTIzQKvFS113of+43WQDsd5V9d0itC4/+oLW5c4iW1nWJE2Wt3Gju98fuiTpH99xo6MuHoXzniKeoUoHqUMPt5gL49ggGQtsM9nqpy5GzWg2Pf3PZElfblDLp3xqkGQXNSirqMsv7nJnES8yWTK+4Hk2h9q5QRuasMuXEXWp10Az1xfLjDdoswJhFNAw+ARd1mb8F+8o80W/WNYfgBYLwligYdC/wOgvAqYkCRgBU4EEjICpQAJGwFQgASNgKpCAETAVqFEwBMFAy5gwJoK5SwzA3FhWJylvqV4se/VAi/scNUjPLuzyeuFXl178F0NZyqbEC0aUr/7raiE9JyRpEhRsydSg0X5zsXrtfynlXDPSeVnpuq6qGkXIYmYLanhmtpykquHhVi+dEnA2Lz1dlSqXqvdeuIcIt0P1DihHHHW45cuyftLSD1uWtKc1VxY5/ZBlSuZHQ1wj/XjlynB5LQPe8E7T5aJEpqSoNks9/WhlK54pKSjTrQFLSOPycAeUxd0H2UHqSkm3NU0wKXT8UfmpIsn4JOIkVjF18Yx5+t5aSiWytt9P8Mj68va0tAJvMdqTRyrz1gnx0K1avnmckS2A0W7/vXxSZECTzMrnFdwQSvK/ijdR5B84lcZ6kN7jquCUUTmM2tyHB7u+95thwMJscFnqc8kEnpS6uPVcdnsXGJnD4phT5OsyztQeV5iqpwyeNAIGScDwk4BhSsDwk4BhSsDwk4BhSsDwk4BhSsDwk4Bh6lFhyKCb0EDpaXWB0XoKzUKqTZt/69ekliCPemcY6XlJMXD9j5IesL5lnSapPjASzT5DXlrxXlYvPXFxdxi69EUszmq+ZkjC1BRG0l9xPK/zmyGbXFcY7beDOmXKjtUVRtJd1OmtGIyz8/15PvPCLmOW/J1TDOYNdXKzpPriMM7UPqgd5EAZ29c1xTiFroz1m4EmBuOM7PZBtp2ZZjL768KWPUI0mWDUX7w4w1K+rDDTyDB7ko2FjNNYwt+a5obR+7Hhv1mmV2FgmInNMICteTpL7MxkgTGSJQKbvmxQpMM8HILZActG8YlL1y4TzI4Fo+k0C2VaCdeg8/WWVF9iOZpwyIyyjTM/E8yYAaNJfYqBXx16Ps2kaMP0mquH6W1oFmY68p/Y+5kCMEEmGLg2VrU5KwBzXsyvw8CD1Bgmy6VB87/WMMS3r+PYto871BgmvDaz0UkI4vzHWcyZqDdMeLOdHxUAz8beB39/TNyu6g5zkjMFMDPW3uIhYVgehIBhSsBkUdkwipWUd4tv5gTBLggYbblhtJ5HMZBezueF/n5SQ+YWIAWGBNPRaSvcnu2Sq1V+GEkb0oKABqV8O8OjCzlgiN8G9/rD3j7+HwVg6KI89pAl1pQZhuwSXkvop2CDucEcivpwp80qd0CDDTOZ0hwwe4SCUhxh1BXea26fc0c0mTDzPd2ZtJFDzBFGe8ZPCxUIArJgWCyhzW1AwxEmHgTkBzNhshxG2oWmRBhuw4xQ50tk9T6aNyUOM24LQEo0yR6fzS5xAWhleRIrA4yZui8+775KXJp53TRTg0lRZLzMm2ar1eHgzpAYS3jvTNAFhWGyuzMtHo4mnjF2e+/v/BmOL9k+KQiTx9GkK98WAC3L4c7++MfJFMHsnYIwFe9n0CizZ+eJhDMZ9vwxYFDKArhiKMd0Cr/WHgYFLGHOBs6l06SpPQya/9CrnO8BzPgBYaDDD8fZQ8LAQCv0pB8SBkbAAxBZfpQ5g1YzGHL1H3ABcNC9/nJp4IV5mPtMCxk9OgeY8N7zlBovG+b2BC2+1bf9ueM48x1yzs6GF/HNsidoBx335tR5rGrBHs3GoZ+JHc1dYUeTmjp3aalz5SVnUQN1PxMPANiJANrZyymyBcha1JC/3IQKk5qBPe8AOO40E+UmBQqBqDDkSmzmaHYU0eC4bY4XAhUo0aIHNNJqfSKPjWdAI1aiVaB4jhFquhoFsKfRL3CNm7moE78g4DUaaHSJQcACBafQaFii5TAr5Ow9iOIimCke9DdemQKlwHDh2iMD/GRI5mBx7PyDkxEtccVg4qXARYq0Lzd2XO/SIjvKmmaPcCFJ6LDZUROzArdQkXZLWeQunw/OFyBZ1Tj39+huadujabwqlexO/e02JUuYAyZRPh8uzkuZFgS89mBDeAGOGlOmb+DP2lF9b3s/DpL/Q/y/pOfIZ03/og82FHrkZO5P9zOanQczJsFuPJ3tZ7OxHySLYo7/Mvdn+6kfXKljL/jISaGHgYgzmVypNXUOzY7DNjbsf6W1Ffeasz8MRNejPqZFlYDhJwHDlIDhJwHDlIDhJwHDlIDhJwHDlIDhJwHDlIDhpxJhHv7Vk/d9KSj8UOXtLwUdvDfoda2NepFuo15x3KiXT9/xteAu/9eCN+qF7S0lS/12+eLyKv1mfeSgUZ+faNaHQZr1yZZGfUznQPPRnM8cHZ7ibM4HqJr1abBWoz7adsBpzuf0jjI3SkM+dMjWY36CkqFGfRxUwAiYCiRgBEwFEjACpgIJGAFTgQSMgKlAAqa2MOuLZcYbtEyBMDApAfPIxrpOMMS7xG9xUsiEMNBkmMSSvTrFAFqb3/M402NJoc8IU/5EDcoq6vJbQpjvBhHP+As2qcPYWTYXpytgLMxYl1OmRDXqdWGONLImqXIyv939/ggvgf7xHc+vkq0sq5Im144lVNdd6D8upe6AWO+q+m5RLB64P/rC5Vf28R8AD2gjszpefQAAAABJRU5ErkJggg==;fontFamily=Georgia;fontSize=10;" parent="1" vertex="1"><mxGeometry x="30.329999999999984" y="256" width="34" height="32" as="geometry"/></mxCell><mxCell id="tUA2d2M24Zf1GxSSOIwZ-6" value="" style="html=1;verticalLabelPosition=bottom;align=center;labelBackgroundColor=#ffffff;verticalAlign=top;strokeWidth=2;strokeColor=#0080F0;shadow=0;dashed=0;shape=mxgraph.ios7.icons.smartphone;fontFamily=Georgia;fontSize=10;" parent="1" vertex="1"><mxGeometry x="40.15999999999997" y="327.61" width="18" height="30" as="geometry"/></mxCell><mxCell id="tUA2d2M24Zf1GxSSOIwZ-7" value="" style="shape=image;verticalLabelPosition=bottom;labelBackgroundColor=default;verticalAlign=top;aspect=fixed;imageAspect=0;image=data:image/png,iVBORw0KGgoAAAANSUhEUgAAARgAAAC0CAMAAAB4+cOfAAACClBMVEX//////f////4ArAD9///+pQH///z6////+///GyIAdv7//fuvqwD///oApgD6ogD/AAAAowAArQD7/vH+1dj4//mnAOyrpADr7M/1/v+4Y+7/y37/9e6wsQD/+P//w3wAbvnR5vt+0H1+y2//oqDx4/2lGu/LkfekAOTQyIDPy3b37PP5ARb/7tLS7tLu9+z5kZsAav+Ds/b74+L8GSf8h4fouvOyP+xgo/ifAPG7XPXr5sL+am37v7/7PkKuogDH2vsAe/Pp0vn94cD8joPJzmz9ry38e3qTvv3c16X9nQD+47e7ukXf9uH79uSpG+W2tC30qAD/8uL9xGfp////zZb8uUXsxPj904/2/+j/4LbE58GR2pOFxPcAb+wohP7e3Z3/s0//qrT9XWDNk+u/dvLUq+r2uzf1anLpAAClANn64KPxsQD6tbT/Ulz+592zU+TRqPTdrd2YFdH52ID/HjjqcniiQd70w061cO3KcuLPlvjwu8f/PU726fz/VmH7uln8qDeqRvT7r57twrbmISDeyuzWier2fHH40G3ul4T2xT/9xoysVNyzAOLLiPv93Y3/ZXr/hJNOl/Th2rkuhvG17LdHv0t0oulHtkVBv0EAXvrI3vmRyYdlzmhBuEhxvvy0zP1FjeLW2YfMy0ye05rB27NzwXeRngDT4v/G4syD3nyo8afK7fpiRyLKAAAgAElEQVR4nO19i38Tx7n2zmq8M9ZodBuP5AV5I9vYEb4pBgMW4maoAcuWbGMHY2yMWy6BECC0oaXpCaVp2tOe7/Skp65NoMQpH6H52lP+x++dlSWv1ivZlun5/XqOn1xkSavZnWff68w7s5q2i13sYhe72MUudrGLXexiF1sD59JgCDs+QYCdt2tgomBiXGqbFIFr/mwrQASuWX8bF1kLFHFucPbW2yUYUUQp1crE4CJ23jRjDFtMyp23VAO6wLqOpem4/OL/d9oDZIJwYCJNou6srr0NRtYgJBdSCF75qa6/tROAuDPCzlya+v6TqcsXMKaEEdTbewbQe6Y3gQ1U57kQAb05+INz1+4de+84M7GBLfN+03EbTU0GqbcLxOBAszVzfc/RozdudmiSG1hqp0/PKJw+bWEDbmmdbVd2AJmXQqFQDv6bDE01Y8bFI/tdKJfLfXCBU6O+dk3LOHhr4HZY4faJH3CLmsfX3obDA98z6rUOnCE2e3M8k8nEYvC/PR0aFd17YrEPP4R3qcyRDknYWyGGFC6GJnPff//OpXfOhkINd0xzKhf6aBLw0UeTuYsC1UkMmr7bAwyc27fvvWvwx700ud94e+BhEY3hu2ad18ukYX0eS3348fUHDz498mEs9UMhvozFOjs7xwE/io1TQUmdbTuBeydzDe8UTIIJF6NnQ7lPEpOTdxAH14HQaEPoQr0dIIfCPZ8dl2BisJH4cWP44f3j4RMJZWY4MX4cPld3u+L0T8YzXz7mXHDDmvlJLPMuHU9d55bggJnO1GlBd2SSdQEemZHR0GTDGaJxDTwrNxOPcqF3PmrolUrQpSyEQr31nERSk/34dvhWN5heDemI4OMD4RPHeq5JRQxQ9V74WD13lYKXME6Px1Izys4iZBBu/fQ/Yp+OZ04LQ+q6ThKdmdMc78xXIS4wuRxqCPWWrhEJKn6bAwNTZIOjAnwp6zAGlNy/Fu45xEu6Dv6o6URPY8+1kloCMfXYAYGlOBzLHJnhonQmPfFlKgNiArzAW0w7Y6cNvjPfxCSVe0OhDwpWyedRLgn6fShUSUwdTeODn4XD+0y6/gkyD37Ws2NimCF+lokd6VDSXvyEU8EfdI6X2Fgjpk6zuAaQw0e5hinGzRLBgjIizMu5XFFM6iYGNw3c7jluIsdPJaP8WPhaSTbrJIbwL2Opo90cpH2t75RjLmcysdPyLREjieAXvp+b3Is36DouZJGmzlIHMRAFURMfD98eOLjxS/4v3TsghoG17f5dJvYpcl8R0TpmSte+U2IQt0jvB6HQHeKRbSACWYhWFzGSIdN8D5zzQY90SErTWvuzDmIQlR0fZ1LXpSCue4mJKJmcHRMjTe3MZC40ipjc6B0Mzm3rUAcxBp1OnOsJH0uA3Gz4kiKyA4kh8vR45kcznFhUVH7DISFb+3NHxBga0ph5J5f7qBcLgljpU1xKIsGd2k1vlxjdgKAlcSysYhSv7A7jshZslxgmkbjZGQN3ZDDhFkZJ8FuRGA4JmPl+qOHiBaewQIDnvtRtEoN1Cr7n3u3wPkk3O3a7xGBLXP9R7MhpbZPgYUfEIEHEVKjhiZDEkZvi0VHscv/bJMagptnUGG68a1qb/ma7xAgNov493VzyfyAxhnbhSSj0jolnKwZgLk65D7SJubAdYu5CfNtE0OZB7XaJ6f5pKnUDAi+0SeYGxGTqC/Ak5fqFD3KhOybl1Pl7fHHKLTEMFxomeyXDxDXq4XVFEOwb+3rCnx0kSOqbdnpf+JxmDx9sDp1K/fFPMh9e10RxUKcWOIUgGPq4hXZdSEgOWePk6EbrCMRU3g1IcQqTuSkDxHfzDkDeJb8X7vl5ekudBYl52GRSsqktUmCiYzwz/kBsfqSyRanYpwlRRx4m8eVQ6KNewpi7AxuJwZL9Npf7LSQom54IUzPxn+HwIQNZW8qa7z/sabw7vbVj+eFUJvVruaWBV2FA5rTn8ZZIdOHSZO7sBWkZG9RjAzGGSqb+fTJ09oK56Z1VqRBkR5KwzT2SAr5/Ihx+z9xKZ/mDVGz8scBbIoYK43oMkqmtHLsOFQxMhXKPCrYxweJyFqGylSdPpuSaaZDSwL13mBITrN0JQbwjIear3q4avGl6GO65q5VIMS070zAQFapNKu3G0PrQGkRK10DAqFlL8wzGqBRfpmJHrcovdI1SxtTwCxxB3WbnZmcK4kC4JrxV50R44UkutJejotNDF0O9hIi1ZjEQU+pWwhxteGLa8jiLRicnQ6MEcquq7UpLuaOB46bJ1hozpO2ZDCIxLR6geJXILJ3CQNP8VhgiZLPGoBJHhNM9mcwey3VusGcOuKg1xMx4pvOHknNjq44PN5/NTb4PvxC2WEr5JDSKS4YVP9lbFgqSDT1JF8d6scAXfjEZusOM6iqCCbijE/cJLc9MUSwPqr9R4r56YfygYowmDpZYwDpC0/Cre/drmC8q+eOjqdS7TLp6CIkM7VgD2hDyEXHw8w8zDyjjWyEGdAb3np0MXTYlBKg2l1QkpiZ7CVctU80806tMIWTxHGdzU/B/RYwB2YOR+H4u9Immw3k8ZBMzgsEdXTtIpWFAyxqDfkzL459xQvH03XsSGTr55c9NuPn47jVzLQWhOgNRv9sY/tVBTLy8O4ashIjTn8cyDzgpz3ih4vwIaOjp8Vgmlcp0HumwnbjjynToabfikxqcbR7qYW6OToYael0fXmy4AE5TMKGUiwpoCfrZm3vilF3dLEyFQk8gOnDfOdVDNJ1Y0wklcMhAJsYJ64uBnnsJyLMHeo51E7wvfPsaYWRf4+1jXCu7Q07N4409A8eJaW1oVuMWo2Lmw1jqsPO+IyzVYLTUxM9Sh399+vSvH3Qe5lzCR1w6KcDWjdiHewpys3hQnUjNkZxNuBQaiYsNvZgZwsSJQoIgkB5DjuaeMOJokEoTXcqFLl4wPaY8CDl4D/zLtImZLHaWfSGs6YHGxvA+s/tXPfBCDvb8qjH8A7M73DgQvovL7EpIIRIPw+G7mofXZiTNH4B/mamwIViimZmZw/Dfpx/P/Hpm5teHj/yrPZ90+LTuvGvc5Nczqc8fS7bpuDiegq4JdzAgKH+0Fwx44v0PJnOhhg/eL8Ahj55AMuW8TRwJeifXcLYXbZQYfF+5I2wh2+9AfxI/P3Hi+P2egYHG39z6TWNjT8+xWz8eGBjouXXtPfiwZ59prifxCFkCaD3k4YnBkf1rJnX0McfOm2HoD1IZG7HOzkwqlunsjBXff3jYqTVUCONmZ+bIjMA1g2BBEqAMU3yDYGEwEQVi3ZlUs20NoVDD2cvYLAhwJw4KCEZYkFGIf84QaTmMJXyOjz8MNzZhTOAXtqczwY7su3arsXGg8dzAvYfAzK1f/Rzkp+dYI3yo5IeUDYb6EWaHwuFbtCK/wgYDlbwRi92wOK60EuJIbLyIVPGlc+1tbI9T5dTfcqYzNn4YrpxUj4BI89nJ3F7dO2Qg/LehhtDF9y8/Ar/cMHkJopKNB3FmZcGl3cHSaX0wudtz+8R9Z2Pm/Ye/vPdv+3pAh241fjbQA4wM3FPEXOs51mMTY7juIX8PnFPCGUMajMhucNPXLeHqE+Wfd1bBHrfbRLzjSCr1gEvKquZXBeDlDq6SQeBPcrmzvbPZy09yDQ25htAlD+kDH8GJGiK+bDrZNYGXz+47x+oY4seP3U0kgIPGQwebGoGYPySOK0beu/AvYU9iwNmHb99LOC6OU2kdzaQeaNLdWWkcWVMdF2KpPcRlTYQpHh+NATOIVbXAU7mG0aqpLOSUjxKXwcSA3DQofRrdeCAkwhAWJoC6C84hnIMD4WNp03lD4CzINK20Mie/AasLxBwiTTYxpMmbGI6mm26HbzkMsEH5p6kMGA3pzgMs8bjbG48fu3MRLCyR2BNTybZnvwk3e3O5O+6PkQ1sCfT9hkmyN5ebbFhD7v/g9QOcv8C48IvQVOnOqrqIQ+GH3kafhQcae86tEYOLxOAqxCjcDfc0gcUqzRWxx7HYA+FxI8Fvnrbn8mNFwYkpZJQV7uAeo0DYYkdSP9W8Y3ZJ8d7cRebdAW6Z2cnc6JkQWJcyMZMF785iE4NvKncLy8RA+LjnodsmRp4IH8JlkUba9djnCeRxHBDTkYp1fvwxGN3O8d+pl8z4x0fByj72IgbS4MOZH3V4UawmNPDZ3O83zh4VO0fNO7lJ8ZHSozJCo57HGhzj2YZQKUREKH08PJDw1s/tEmPuC1/jZqnghMojsZ/NehEjkXyc6fyYiU9jnTEwtx/Dy3XRfaSz0/IandLh5nVmZryHQ3VOJhvOOEkzBLLrghS4+e+5qURossHBS+6SRkvf97LysJ5uGIicnbxcJkb+QPXm7RDzRfhEAlLyUv/HUzPM7ZEUwNBZqdgRatyIjcc+5vQnsfHMdf1xZ+e4Ib3qeKQFHN+Unl4JcvPJhvvOsBAhNhWykZtE5juhqVGHuDQ0gGPXsh8VD4DYhxiOE+J1YjAz992+VyVP2y4x6IvwwwQqxY+Yp1KntSolgUasc5xqX8ZSnUc5O9KZij3QHsNH3nEcI/zj2HXv4i1If87m7ji/M2Y5pUQV2BFBzb0NobMNFcSE3gfDilTtHAGdxs6yNv6LUIkYIsldsL3eFn/bEnM3/BlIQ4ll/nnsJqFViem0tHdBYmxiOoGYjljnEc++qzRlPHbY21tzJqdyjyoGEakhWBEQyN5RProC0HcO6aQNvXKA/E4uVLLMoNQHe8LH347EmD8Pn5tGJeuLxY3UUcqqDEgAF93az1KpNWJSN21ivI9lxkwm1eE9F8WxPBMKXca61CCjUjeY81JRKcRtFLzSZKiSmF7QtvIRcI9UtR/HkB4XLuYelWtpwOIcC38mIMIEh+C6KVsmxlBjAwz/Etw1KWdiaPY0aIiQcBGMIsNF0DgQw6+D1V0j5jA/Hes8WnmMQSh0weDi8e9iv2PeagZWgE+FGi5Dci4M08Wdmnt71FDBSwhMjOssuhoVxSbJXsxNVkwzNQ2E7zVNmwhhV7tbJgaBB55O/6An/GOn4hDjRgoSAkMKuGrqEsojnbHH8nqqTMyMImaP65qxNCRoZsfHnR9WcUqaAYET3OmGs+/3Zu9ccIsnRPpnKgUmFMpubISDgxqdgi/POHmBjLEn3Hjri6Yvjrva3Sox5ODdpqZ9JyAlSDuvnqpg/j9+8mBm5gHogUsagZgO+cBJzEys80blMUgahw/PHP5yXI1zVYt8GZcSkuucKk/d62JfMKqT90M5JzEeuZJRyIUaoIHJUeIcuNCl2fQwHA73gCLUR4z2Y/XrcPgQMR3dR2CHxbsQ0sK/nwr3kPbRVKZDOImRYEdcxOii48NYLJWJHTktIImsmishjTdfOgvJ8zuuOyupKbn2SYmYEGRMezHECtzphsG49IZCZ89OjXr4CXL82IkTjeE6iSHHenpOnDjkUWSEjY4vfwLeeI8mXDfzRgZ8+UzJK43HOrSboHcuYrSOVOf4kaM3ae25bm4YqrhmKvSO6yRg3HrPCOuDdT26SOVoryTO2RJFTG6yl4HibnSKmGAGpqZ+Yn5jEewh6xSERmNfxvbobmK+VDWbFcQ88CbmNFgo6bZ+ruO4siZo7wZiuDnasJeJM6EyMaPCmlJlnI72bGI+KkhMvZSVSFPWTQw+Fv6eKb1qaSRDFhbXPYgBHZvRT6/HMY/1B2BJNhIT65bIsryCg3Ug8Ljg9VzEqPypN/ckAYHVoyIzoYZHknFuzx3Q8qyMrUqT3SB2HlUEanlJosdJDPyMJGxizPtOYryGHfCxnu8R5PY7NrgS23czG4m5Hovd1DvK7jrWrV+PZW5uJCbTDW1sbXYfiHHEeZgkyvMBd4rZEsQ7kK9geyYOiZLJsolpqHEKFzEQFypibp8jTTYxZpEYzcv4AjHVJ3+Y/q6HxFzPpB4YDmIs491UZqbyGJsYa8uroiqJgUQim3tCVWyGZy9dev/3ly5d+v2sPS8rgRlc1s5tEoN0k4Aq9fT8QSpVCh+iRWLM7RNjeBHzIBN7wB+vE4P4l7G3S4w2mlPzAYqKR7m19Sbv2PW9hD2ZPFM3MebB944ribk18J8DQMm1E8fUmO9/PrzlMeZbBzE3Y7HrvHudGM5vxDKnK4/ZGTGJD57wtfmAC+9fKsKejcQCs4sXy0PE2yRGM5tun2sc+FXjb3p+87CxcWCg516jmiW4rWYJevaRiqiiDmIOZzrfne1OgfGdFZ+rvFrs6Xy7xJAL5RHoUQj+7DVLd9YcDxa95fmf7RJDut/7ZU/jQM+5h/YsChCj5pV+fmJNYirGnusgZiYzfmTmX1OdneMPIDHoTF0/PN6ZcdV97FCVypV+uPD+J0pe9r5fHgJ11ORulxhqmgyMbvgPswcbexQx1wYGgBFx8DYQcxebOyRGeeqY4kWN944DM5nO8dTjymN2Rgxn5dn0C5PFcamPsqVQxTB5vV5JMtM8FG4MH+TyXLjn4b2efYfCPQMHzelr4Z5GZlVMW9VBTEdsHOhQo70/+lC9qAVcqe7KY3YoMesQl/Y+enLx0d5PvApRtysxAJPue9gNPzTfG5B/CB/Chz5LwKf40AlXB+ohpvtIJpZKpSCTAm7W/vzYvWb0LRGjC1KYyk1OceKuRleogxhpJpogWaDTiSZTEZNuUteIu5vc2X0dxIiOmcM2roOVKf454y66e2sSQwXqnZy8gJHHtH09xDCTqbXKiBJCgBgT2wYL0w3FfHUQg4iqMeNIdKTGO7huv3FPJr41YjDHkEBDOuSVjNZBjJqLRwjyKB2Rc+FDpLiIALMNs8R1EMMR5P4Yc6mIkUz9ydyDdG+NGE1lTSHvibZ6iHH+Goip/tM6iFmDoUMC3VFlkfL/amKMXWI8v9wlpjoxsdrE0P8eYmpUoe+EmHC9xOi7xNRBDN4l5h8vMRcmG5qx9KoyRxyP5iYT1ZmpSQxEvucw85olRZBU3YN0u+pPaxLDcXcq9mvT2/RZYibWSWtUJVaiJjFaQ+4Spl7rEpAkU7kpr3KVNdQkBt8ND0BG7VWjgVSt2hfVr6gmMRrnnbHrs1VUafbdzMd0awtWtM2I+W3ubEHzWhvGlSZdrrGEpiYxKDEQ/oGJPH7NiNwXHtiwbspxQC1iGOfXY0ceV6lkeDyeuanXWjFTgZrEsGYQGW4KhChyQtfUFiFna2hSbWI081C4R61mIwYzymC62p/puJo8qJMYbpDHqdgNTiR1T8hjzH4aG38s3w4x1LgUmnyUUAteiFmGlCYuXAw13Nkwt+5ATWIMnDhx++FxphFn2Ssxicbu/ip8jXmsIyihtioBfphJ/bRDCumC6Pjph+4JlZqorUoSXwrlJj+5DBh14M6jUCh3R20MVfWXNYnh1Dx4Ihy+tu/u8Qrc3XcvHP6su5aF3IwYTK7HYqlPHxyuxM09sVTmhzX43ICaxAhmanfO5kJu5HKhs1lLEzXksra7JpQkjvWEPdDzhzTyHOhYg/e8kvOa+c3xUmWrsxg68/lh4S7ZqYW9uanqJ8EMg9TfuXi2Er+4OHWGgQOptWKY3r5dw8YgE2Gz6Q/XTrhw7RBYHo3UIAbz65k9tVaXw2+7b9444saNm5a2hRXR68ju7a2xnkxTHtCUvLjYsAQhyKab15H3DiVqHkCxlKybJirATVJldUMJBun48rRnaZrzkg1GK6Guf5MrdsHEm6yhhyYpr4COa5cL2MCmWXtVEKEUE7C3677ONIFva5PdxxgRXJDq1S32uSV33ziqbXcLA0Q22RmBM8TV5hfrQGwLG01i4vaYG04MGoNBHdfbVRuHbVKjAXxyRFnt8zMuDKPiXhqE/wM2x9zFLnaxEyiniVQyYBuy8hY7O9otFww3soo+hWuIquUrAhUTAvvLOnbscAIZiOtrRhaMlg6uD2PDUJXJEHcYb8nKgPNUa3TT0h7foBYTkktlwra1yUslCMFsNv1ycGlp8HzrrECqQH/6xakiWvmWVovXALeEVvjj/rFvh19l1RJ7IL+QXUOztuXdCzYBpDFIrfOmxfkfE2SHMWZIuYP2SYK3DiaTyf7+/oX+oZdE6IkX/uSCf8EPnyQPbG13j+pAeuLbeDx+EhCfWKTYxNlAPBBXH8Vbhnk9W8h4gPe9bmv7bn4lrdnt8Xxf3kZ6B7rEjJdDyf6rg+evHFhO9icHpw1zYWHoKmB5+epC8uUOr5xnA8DI8KvFrjGg49tm3BwPBCaKiMcXcY3hjC0AQxwABmXlaSTo8wWDkeh8mkor/V0wGPX5fJFI9Fneqr4GtUa7wiL8fNK//FIaYAj4m6/8/qutL5NXp9ey9q/6B3ci7JDRLgbiEyNFcgtd8ZMTzSOBQMEOZFhhf3zMa7eF7YBh0J7ViC8SXG1rfxaM+KJzlvFd1KeIAqoi0VWD1kGM2o5h0O9fMpm9tI5Q45R/6OpScske1YEGz++IGB2zrnhgrMCpLeGcjrTEJ7oCE1pxrQwfUcTsaCNSpps4/zzie7aSsDRdzrYBI3+3fMH5tFSLcmbnfb4+q44eEJZeWvjT4LTUWPHKmWz1J4GpteEufWfEaLNj8UCXbb5VKxBTN08EgJuizUVvgRhDQ3PPfcHXmkUVFcTKR4O+tmhwTvk+TdK8L9i37V2DdUiL31z1J69IkEa7+/BCxfRyMvmWiCkAL4scMiluWxKKOAaqTq5JDDJGTu6IGI6wRCu+aGTF0Sf6NArGZk4tMNQRTwNH294a2xC4dWjB/5I7l2JhTUwv9Q+WDFa9xDDFRXYiHhhxfUEKXSfHhE0M03coMZC54te+4PO5ikV2sh0M75xat6kznq+DGMg7Xy74h14IUTECTsmsPPWmNHJcJzGGkodsSyCQdc/z6EiMNBfXb+6YGNOSX/t8zwuaWbHUBr+ORubUZEmdxGjgjvqX30BM5CzP4owiS1h8ZxLDERgQMCYF7oqw1G46anPyHRODDK4ztuoLtkHuXxGEIibmXnNlcesiBvzRAbAlJlW7PzrX36rAgIqSvaqDGDWGiIWxP37y2wLfMFKM1Nojw85odkSMzjQ0+zQYWa2xO1s9xCBKlpL9g5sGb/VIDOJc0uGTgeFNBuh2RAyhWh4iuHliVQ9T6iFGtC4n/efdD97YiDqIAV5sd/RK32S3sp2pkrYSDAZXIJ2uPgxYDzFvbHe0eYoFxGz3wjEHdxQILGpC+wdJDNhBDa8EoxDkCsO98agD2yIGDBWYkBcLSf8LbbNbCjgPIQ3esD1MdWCmMU1liVnwTLV50ZlUxNSRKiEk+Ouo71ke1R6M3g4xunrKAb+STC7/dUvJIUgMF1vYc6wEbkB2FG9paUabb6NJ8UjLsFalpqXmSShaBbML6WLtkxSJ6dsaMQZl/IA/uZTe2oTOAf9CK7c2ufcOUCReqewIeW95UnEpHFKCluattuz4Ico/jfhWpaVbtWdTtkyMUhxdmEsLya/4FmfSVeZ0im9tGlVXuwKK4Xh8mGmiRjVKCQbKBpQt2mzv30oQZOSfR32v5ebbV4No5YO+eYbWNp2v3iajHHhJJq+IrV4KfwPe6wqXjG5uj5glkHJHw1sflytMBOKLvEpVkTcQnwtGgytarU3QSiA0/SwYbZNokzySY8nfLCwkXya2/GAjkjCX/P0HTEE2FwEstEIg0DJimJvMMTl+UhgLBLq2sEW3AyvRILgjO1LcDCqLXA362vNW7QuSSJzyDyVbDY8tJ6sASSwGVYS8hedaES3bcjLwR8ilt+xpdIS64vGxrRpgtZ3KfDTyvM9SkcamndDVZhasLRj9Jg96a1TZ5UpV9vMrC37/NJKGc7RP7U6qUd1gXA3ZQ6rAHaEFQwJyh37/sskIryk08N1iIN6SFZB7lWKuNTum1hGUti1RSxdweW4WLgmcGBhrzME+bRrScIuuRoLPtzOQyyw8H4xE+2i6ygMBEHRL/PlPyeVpt+AWawNMAlcmBSfKbVUeYBrg3v1vxMaNZx2XDOZL9bCZlhM6pJy3EGkQT8hrWCKRYLb4S9ej7owR0L9mnW1hDoimV32+9m1NFknD0uZA+VZoFWNtMGHaOjHrLrniV7468HJanvpq6asXafPl4OApbm8ZUIawQAMXkqd4okahB0p0xQNdArGyHhk60rFeyI50fdtSxsT+xUICfLpzewQICMEyUX0zDdS1/PNgZN6qohPeUFvvsL6gL/i6ynQH195A1vhnwanbdZ1K9vvhX0Cyf0iNay6c0ipKOqig4s1VcE56dRNmzI7F411qx+dy1ABhoRgZBoccjwcciAdaxhad1ShgN5qVcxKo+jMSkQFGxZoLBn0r0BMHMboB2aQE/aRSpov7gqknljl/quxB/rkv0oY0dwSPwYzw1qvJhSucbFwDtuRfWPDbvNj/wOsgr3ArmBmEQfTTf0Cokt+Nl81EsWtcbYBkj+5ysB6EL04oJlpsNtZmkkr0vFrfPk/NdRa+PRnv4oLoVcqToOc6XfH5on9zqTnBbE5SSjim0pdX/camteLuP2Pp9mikXVqiUtiYZYpTQ0MQqXlth3FAkdFfpGRBvSYPbNjBDVl8ejC5sCSFV7WsRM0t8cCIrq/HmJyhxNgaCS1KSiqkBmiacG4LZOhsOBAfY1hUmfeEvmvzwWC0zy3uxBLP2qRFuIHbg0/t2Ts273NJniU5kd9Fg9/kLZe2SvESOtyKdNMjuYCIb2HpyqlBcORfvTzwfxf6B03uLmLnkmhEOScqPBRcz0LfmxHoTvm8ghYC8ZLuTIzt3/9qZGRkf9f+ljIzzmQAzIt41RKfSFDhbcYg0Pgu4nuWJusTl7pdVIdQXyTaLinmcz5fcF590RaMzGlqt/OyP+fYAr/x2udTX1SQxl/2LyybQgo3YwrMMKUhIPLzJ81Zjk3T4NaGtYuUCWa8TC4sbxww0yF8iY/1YsmMcsxlMDRckhHItAuvCqpMAL3K6mUpOjnhaJC+AbUAAA3lSURBVIIxro+AGBWqWBmSX/VB1ujcYxpjyhHElPO+oK8NEtJn0We+b5CkbWCI2izJSJo6K3BBR1XEPIfSznsOGc/SNKsxcgFW803/UNKUNZIK0FCQu6/cm9kaDMLdMfcjpnChrDsnA83ZeEE9XlEP7BeBdZ3K8soAHMKgb71WB6tzP4v62ljF5s1muk+zkNRWfcBZXrLnvvQ30TwTEOgGvzFMC1lwgJMYguYi0ehcRVHZgeSyOWtUn8PFUrRe6V/oP/XXGk9uBHEXV5ILrZWfIkGHQQfc28jh5kBZNgLZbEszZWDQJ/bTljIz8UXNaWqRsBZb4s0bVUlddZsv8loznbvMML4S/bpPo/SZL/+XSJ9ET+fR62dSS0de533fQDg2+zr6uuLqNdMC5+SbdbBrDiWvIGJ6b2VZvCoGwczg4OALUr0AnEsTyeXkAVcrhgicXHSPS3CjeV0y4iIbuGB/Ojasja1/vIidEkPBIY/FuzxOrNN0JPoa4vKKzXmtvmA0soJoWySNn89qdO611TZnIBllMtqm4TlfJDrnvEzoo4byz4L/VdIJrPPWpD/NjRpawt8M+f1DQ0ML/qHpqgepOlFxPrmU0J0hooGy8UDBvX7EQGKsGL7E4y2L2vBaeUNgItFs+yjbBhcqRhA5RHojgQltA8Cvt/l8aZcoUZKPqDlIZrWtiLQl8/m+ubm/5aXF5NzXRJuLgOnp29gWuLbysyjAJfUv1yikV2BX1vCy9piYONV/VRKrojEgZsMTVyB9mx1Z7OrqGl7MCu0VcHTyZACimPi3nC1+q1gZ2++ROUIIvDEdQ1x/Hpx3JzLgp33P+55+B4Sm/9IGKhIBrxSNRJ+3raRN/rjtaf55JL3xDHmfryRHWBrn+5dqDzUZYqm/PwlYWKo9uMDfJP2mrJAYbSQ+obmJ4SrulSpV1Hl2GOyvKpAZhngvPpaFUAUxZhgejhkM08Ybgw0t6Jtz+1OMtPZgOv210dcejQYBqugDIn9V/PFdn/a6jwVXvXpgu2wbkDu+VLe5Vn8xX/IXg9/lTYh56SkxG57QYUCAB3rCsl1jdvS7X2iFrFEYsWVlcaQZM90rFYSmNt5AQjAQU7H6BVhnDDLKdppv89mIRksvUSU5q2kGMkOJZG774VuvAAAb40+2CglRM3bbAoj9CdcRN5ftyBdsjMnVtqBw1dPSFGbJt8FhCEPILpYWBnlF3I4weOsRA5IZjvG6zVBpD2TpKpgBkzKSGC4Mx7PNzbaFCZwcA6nRK7g0DEjPta7AmNcOfhLk33LcMWSvUOSM96Wf+YqMuPFNPi8eg9y6E04UjP7F8XYpuUQNE7IXt6nB0J9ZIVUh1RoOmEII+LB1YWGoVZTcBiZClZXzlwv9Lypb0A1jLDCWwOpxLKIiSVM1n7a4BBa1xf/3x+xiYaKFvio6K7d9gVQICzaiYpsNxECs8szX7iweRej186erX/dhazUajEQ9qAlGvzNQ3/zTZ8//UimYc75g3vG21b+w/GZWlam4JYZrreeXF5Iqp15TpqtLy0tXl89fHRrqbxXlNV2MczkLYUzSPasLWQB45olmjUrICZwWAiKHrE1DSyFbKAgITrNZw7SpiruKQyAlYBxB6Dumb1R5RNBK0fXqa+m3mj4BPoIQsfi8aPFFg75oHsK5YPSpo8PQF/os+NzZNIdgPjl4qvXUC5ct4G++AlLWsusiFpKQNC2cvwrJZKssDVMb5pUXf72y3L9wNe9SWoMa0KOTLcMjzYsjFREBBIT7VX1mYP/syWE4DsSvuWVk0Q7wxipyFsxHstmRiTgEipr3yMZzX3COWJQa9miTQSkEJHPp+T7gxYsZIC3a93W6z/c8rwQGQn61RAJZ+adge515hSFeXE2C3+lPOuJW0A2wPt5IHrgKGfdfeWmVFR8Ep9Wf9EN+6bVxTXYsbqPZKbdM0OKwwyJ91WwPQuHmsWw2bscwzUZ5gQVjeL8akggEuqqO90DIGl1dyefn0uoQsEcovRpcSaef+7yJiUQj6fRc9GlfyU8YfX35uXngd75i8hIZwnw5eHUo6f+rsz+iVdXzboUYDbzW0PKBF2rNyMbL5qgAvlhl2M5PxVpaEF80RoQdzSOWINmTQExLfBGtj4Uxsh+UcaKrufoMjT3FBh32tdkEE0Q5mXvdh//irUtR8D00//pvkK3bT8BBOA22CLx5ZJ45o21wbaapGYk3/opMh00v+715KRKTdBAz2H8A7BMhplcFvXoIG09kJyolhuNXxdh/f3N80Q7n0at4drEoMWNo/bEPSmKGC4laM1eYopXVSDDia7dPDz5Dp1KzzJV52yvZRb22ry4i6Jtf0SyDE2oPU1NDy0PwF4nM56mVdqi7vZwJQu603+9UpdkDipchf3II7ExRdOA16b8Khvf8kB+MLy1PtAIxHKt5BO9FupD/00JLpcRwMVF0QWOzi7Pc1CTWmieahwPFLLKw/pQiRUyX2pW2dqUySufbg+3OQ5jV/rf0d5AURdfiFwjwwE35Iqtz6W8cRgz8GlijOcg0vaJKgOl32hgD3iq5+OqNIK3LSXsE72rySisH72UUTv0p2f+GzpboBWJqXbR6IiJvqZQYMLVFVYqPoP0TIoFmv81qidLo1WJ5vL1IzKaTRFxIrS3S7uwZk9/MaX0rbc98EbveOaisru/565U8EOHIBxQxQZ+kYLy9qa8khp/vB7FInifSYEJN9IMzWnqjQxLLpSTizZs3cv0xfkBMzdsJxAgXMdr+0kBVS+LVGGvpKpx8Jcq59cT6NMvWiNEsSxHj/ESmo998HYy2gVGeb2tfffZs9bv5lTk2H/RB8uQIVxQxkWiei2rzEJXEaMsLoDrLpuAUUn72Zik52MotaWBGJEQ8nDK8/jiOOogRE+XBzZYs52NdWuHCRHkwouXCNiXGkLpbYmjeVqF2zZprb2+TkDu3t69Y1mpQmV8XMcFoGsL5Kn1wEIM4sYbUCpMDaucxtW7I+ArMCISrhm7o8C/XIRPUUamlOoiZLU4QFNG1mG3ODq+/D7Rkt0mMQiUxOiPtYFeikZW+Vciu8ygPfDzt+3swCu7aeeAaMdVP4SCGI9oKZta/8KIUrOqDyRpmpB6JGYOsOl7SJufcSXFgs2S+6iYGMuxZCGSKoUw0+Oy/noFPVusqILx77gz8t0OMoOjUAcCVUyUz8laIcXyiy+aJwJoLUgNTDmmBWC4wUk4f6ieGC5puV446ohw20GEzpLRrddY5tLsdYsB9L/WrtVvl3OetSwzifGT/2Nja0qSW8iKliYmxrpHC+prr+omxMbeqvFEpFQCJ8QXb53DlM8q2QQxh5A3kTqdetJZqwN86MZUYhnzJGzsiRu3om19pf67CWghhgtFvVl/nJWbIufp9e8QwzoRZ4OStqlIVYphhE+MdXe2IGDVBTilC+XzffDD493wagjjLogg7I5btEKMGiqw3VyUvz0r9cxKj5t0wAVeu232nGEIMiDa0ivqDbdkY9TSrA396ieQ/zCs58I8jxgEIbj1Gv+0zbIMYgN660L/MSKki4217JSf+uYhRZQ7JF6y0iceuxJTfDS4tJJfLO/fuEmNDzdD/edk/tPBGbM0r1fpS+x9EjAGmdykJWeT5XWIqiNG5uawGHfyDW/RK/1uIYRpe9i8kh/xfuSSmiiXZITH6fwcxPudQQ8UZJN1G5CtfJv2qTLzCXaMq0xd8MHml5uRtbWJ0xPcH9lepcUeS7Q+8qrJ9ayU2kZhoFWKoRNvIroGZZf/VU+WqJn6g/yuDV5nj1pf6r9Qsma9NDPT6VXysyuIexrWxwOKW1lnUKzFcVeptlRjBdNOUkLiXNr15mRwyjSoP8zWH+l/swF1zro3EWwpVNiI1Cmpqdiu6VJuYiC/PkddOr1hoc0FfjXWOzhE8HVJQTggtFxty6PwVtawAY+fuYwZmlOigdrXXT24iMYYmVGmZmlOpAKJIQ0KRtnOJ4UHfHKJeN5ZKqy36zPsRwDZcka+rXfTnZPJNL1MPt12/cvtBuFprMnm+dkH7psMOWlcg0Mw5Wnt27hq44AZvjsdfeT6BYgNqEqOtBp9i5rUMm5npaHC+xlqumsRYareLhVMCc+aQGINxaV5J+pfT1g6Mr6YWJEwEWhYRNioACkRHVNEnrTLjU4maxJC/+YLz3OsykVCFnTX2xKxJDJO8dbk/uXT+1IvSBlUKL06dX+r3L0+z2g/mM5junldyNS+aJ04GJhazLryaCJycaMZ8Sxvs1CQGo9Wgbx4kpmIdC0JUy7cHI69ZjeVi0r/w16pfcjBb3YNq6l+NeJZhF6ANmsYmC9x0rAqIPJ6OW75ArhWGA/GTcTcCgeEC2eJawZrESJJYDQaD832VmFv5+lk00iZQjZ2ap5M1JEaB8BeDy0MLQxVYPtC6SWmjphwyLwTiHmU/DuiouWuiYqYg0NIytr956xt41SSGESraItGIT+0fs46IGgmeRxbZ8ASgdYjzB2qvDRRECCEJWd9sU5Wwgn3cdBE1pwItdhVqbEBhaLbQVXoligxwjVWiyo0AYqofalocoT5VwOmqrvqmLY9MrHaDqAa58fFAlRAMNFFKh08lAGnomy6d4pZQT7mvfusNriPEhVFJjAHhAGUeD0L1xtzzlRo7dK8h70KVBOp/FCjfwmJrtbOkE2jL+y/884KgKo+Xd0IahnREqFLWWCrwPwWs1nrVMiqeSqBVzr3tYhe72MUudrGLXexiF7vYxT85/j81Ka1Md1TIcQAAAABJRU5ErkJggg==;fontFamily=Georgia;fontSize=10;" parent="1" vertex="1"><mxGeometry x="26.329999999999984" y="444.03" width="46.67" height="30" as="geometry"/></mxCell><mxCell id="tUA2d2M24Zf1GxSSOIwZ-8" value="" style="shape=image;verticalLabelPosition=bottom;labelBackgroundColor=default;verticalAlign=top;aspect=fixed;imageAspect=0;image=data:image/png,iVBORw0KGgoAAAANSUhEUgAAAOEAAADhCAMAAAAJbSJIAAAAflBMVEX///8zMzPb29suLi4aGhoxMTEqKir8/Pw1NTVZWVl+fn4fHx8jIyMsLCwcHBwnJyfT09PR0dE/Pz+3t7fY2NhGRkZvb2+tra0VFRXv7+9XV1fFxcW9vb2Pj4/h4eFgYGDr6+uXl5eFhYVNTU2kpKRmZmabm5t5eXlERESoqKgjKeonAAALiUlEQVR4nO2cC3fjqA6AcTCG1BjnXTsPJ22apP3/f/Ai4aQ2OLPt7GztzNV39sw0lMkiI4QkhBkjCIIgCIIgCIIgCIIgCIIgCIIgCIIgCIIgCIIgCIIgCIIgCIIgCIIgiEdDWvDvcrKZPwPzzeRQyr7H9UeR07fLmhdG61QDaWHE+vI2fXApJf7H2OhtXMR5xoWKRBRFSkXwp+CJNvH6vOh7mL+PRPmq89LkPLoHz9PZSwW9H3A6YcybvbbiuVm7gxJa7zcPKB8wXxoQT0Xqqpw8xx9zEYmb1PbXWbx87nuw38XOyValwolQr7yIx/sdiJi/7AtRi1j/kqez7YOp6mKc1jJYWXDiuB6PWJXan439e5zWU1g/BSvjetL3oL+B3MUc15jiaXQSTkBQxJGxP8cj+9Nz6oTbK53BJFoZze5qfgfPZKZrU1mMt+VSgIAJztAodhJaORbcShXxZbk9FRyVVenZ9DEkPBu3PXBzmjK2yiPYCA849quEMFeHme2mspUV9pTCv7Azbl56HvtXKFcpGE8l0rWVj80LMKN2BmVbQviQgewxaO9kneJqjNLVwCfRzswxx7EmsO7sx8QaGlVs6t+3JGQb+CSSEoSf57ldtlZTj4eexv4lJFvkGZrQ9FKCy2111Aqob7rXlNCK9QIzl6ych3eJYZdUPB+0IzdxHhrPcQeXbGpgI1jedrr2HEp2tC6BMFP3+7nmoKhCj4ZqbySbJLAJquS9wjFKtgaB08+NzpdwkVrVFMdaouo9gR1E6IHOIqgo2lB9uu5rm8J+zJ8++7QltJ1erRYLs2F1BHnSop7F4WGHeAAVVVH66uIK+9/abnkiO3z28iS0Mll7qvj4psavKXyF0IfhKaqU5RHXoH51w7V/TGJws18ag/UltJuntopZTK/fgiKCIzA8H9WZzQhmsJ5CbLFeaPlLCUtj+8C2775FshdoQAM7NM64Z+vLNbaXrNLW/Cev7JcSMgw30sp9gJ6v1jtXypyHFmosYOxRsr+NS1oFtC2mavbqkBDCDVDlK5KdwKIqMxnWUpQzMIL8vayzF67J6t+61a1DQrbPrK2ZfX6TlEsu7DY5G9IcSrYDjYxwr76OawoLKp23OjZiixtbba1na8aqHB5XvhtSLLWAjS/Kt822XQLhQnuMFcT9cUtxmVR2xpJds2mDG6uZDGgpjjnGu09NZjDK2WurbcXRcrbaXt9RJ1tNMwya1wOREHJqxqXNsjxLbrj8RJYnDdDxjLKs2Za4bEazLXMBdLodhJrCY1biF/nC38fanyFIaAcxx5j3z6M8O9UXki0hLSp4G5dg83Fz0ybDrFzwBdDxyAZhTyFUV9Fs3GR/xPzTetxmDepsW/etvtgqjq22MSaw4s0//+9/gBM87tjLdj6DQ1P4XTFfGgexEQZZb+22SQHmZz+EKaw0zkBrKNbrTmola/GZL211hkA5O3l9j5AP0RXrn7MOfRfG7CaHXkmbLq+NgXNgY8KZ1zjXeALwJ4f6m1g7Ewku25vzAbyS0BR2SijZFpTXRr3tZmEfkuh9w5BshI/61RsIBL9RGuRb7sxhBZGX8RPeO3hKpv+czVtu93s99VrnsDh56Xe+I2EJfo32T9imBlIEb37nH0ba4AfOVfwzlXMehSvrroRsZrdPu2rbc4jhFx//4RF/FynB0mdPfjvKvQ+635MQNhzIR7W+mj3B1BZ9bxdT2O51YFIgOAgm5b6EOzwW9lu34A0afwH8NB+4swe7Fhw42SX0VQk/cMfx5/AA+qH7XoiXjjjXmg4wjnZmvyrhPHVZOY8ZHPFcenZNwR3hK38MaP7T0Km8JyGYTS9pBawyjIN7RcJZdeh4TGAFxeEJyz0Jq9htiB5njI77LRArY6eOHlO7OlURaN1dCQ+F6ppzdNyKslctXUBCzQRD28ZQCvR1CUt08rZ+M6br/Kjlh5mmnUMGl0bkoYRVV2xhKXmXU8Oqons5/yRbSA/qzahNZV1KxdVk5IPOnN5WC699AlUL+YvfHZS9w3//UXDIIjVxGzzLF6nXGhusQgnbUyyfUon/NVh1FE7tj/Ls6hKCHBIEPl3ZKXX7w2tWXe3YnPcsYfqfZNma9D2H+m+XEHesKFiHCeiX8FvjGI/pIx38Ag9+VR6swwFIuEX3bOrZxgqOPVVoSyt8IHob2NjJDF2jyrelmN3o15ZuMP/QtR8qlXTt+OHZE1BCTiY0KZXpdHV+FBxykGFxqaX03/s0df6mT8oYRAke/hTmsDgE3e/7pVGnX4pBVfg1P4kEy9EdW6hQee/HFujNBQ7oi13Ogvecxhh3x4fWaKp08+XoCd2z8ImsOMSHPR+TPuGBdEeMr74X40fBupV1su3yZwf8bTBPE1pHaP1GnuYNnpNutw0lTzOpMzIeUHwCxUIe93Nt4Mf6mahB5NowX6qSQJMwAfqNfGmmoLs35cPIl9rBQSjoD2P373Pe0i3D8DH9LBLOLXAra8uIHnly8LvfO7eoQ/z2d8B+3/+5hR00lDTlr17pywT9rUCUe2dPmBAOzp5AScPzqx/GjumdKyUST00P3fmHOxKCSVH++SHLIIxe9n1+yOoz4MCawrnpF8+AJaxaqNRrN4PLJvR5ABIeoMo3OLJf8c5z/EIFlXsMq6WVVzMLdfxKqEGc44M1jVTsbVtYi2H85191Z+9jd47TYmqENdKnQZS2bWCAwqungRoZlQX1NFgHtN63+44zFdTe7MFngHqaAQiI+gQxQAtX6falmqi6teMLQjXvA7izZP6bdJQyw6hrY84libryoFB02vrY2Uf5vxGuLw+dor7YQM4adsUmTrZWKWlW15e2+mWRX3TKM6fjA6kvRaAwwQYHrYJgnL6gRjgKa4ThzN+rEcZZzcaDMKSOkQF9zFvLprPOG7MVXp33LCgQ22JY3bvD1kCyl1z4Y8IqPS+dG/o00h3ufNbqS+lqASMdeEQ9IqV8B4PBl81EBBTv8X+6byEx0wOB1u0mikTDxX0vrm8WBu7dZ/vGSPHOTPrPd2YgRjqz67+SbA+lKsO7M8PeYgUXYi+fEtr4QkAqo2EuOu89Rc17T9LltlR6HkT9cwPJLhAoqvRaAGblusAl4KL8pYSliRp31/B6HqZgV0MT0CLhUm+k9OdltUns18D6d0hRlZWI3bt4oEb1Ca0MXw5OPKB0G7V5vY1uDBtGM5fh3QO2msyFEqK+HCNZfcEyyg9skFQaj+P1/mpR8cL9L+8BP8G1zFsEUZ7S61Xn4ez1LUZ4FUhlswpH+HmXu/u2urXAMGW4o4CNqd5xpxd8QFu9z8LNIt7HhzFP4A0m4l3ek/AI3h7mfG2P59zdd8oXwzMyV+w0JBn60fGqrM0pWP5bJtST8EXXZpPB+zSMcO8hGqyKOsqjVuBzJwb8NVliJAtXX/w3f9jPmwJKUnKszHs29QQO+70YgLzEAstp4N0m1uvE+8F517tN3AsKYnDXp2uNYaKCd5sMeQIZWvw3934alZmxez8N3Ex0TktTwoPitY5O9ymvXxc1OE+mm8VSu4idF/ttecSMSw6v95AoocGFNtH4HJbldhy7JxLp2YO8Ksrq2QtU1GCIn6o9+gEi/WDNOXw2GNrzvUpr+RK9k8O2MZ/YYS72tapC0sVdL0zXi1sEPBqbOiMjIPuBT2CPU/sYEiKbmeHtPBQ34x0YzGw3LhovGoT3t4hUBaUmAwe0bXtsCgKiCHznnsi9a8NJupw/hoVp4FbU9KT1p5BY69aUGCdYaH2CQpoHWYEB1dvSaLjo21FtCms0T9/Pgzh8+T3qdyN9nIo4z3lbNQXn2sT7t9Hjzh5yzWhMPp7WysRp/QpaExu1fvqY1EHhI0vYRJaLzRZeJDzfbhZ/2WuEHX+jTB61ThIEQRAEQRAEQRAEQRAEQRAEQRAEQRAEQRAEQRAEQRAEQRAEQRAEQfy/8z+2s5oVqCcWRQAAAABJRU5ErkJggg==;fontFamily=Georgia;fontSize=10;" parent="1" vertex="1"><mxGeometry x="22.329999999999984" y="556" width="50" height="50" as="geometry"/></mxCell><mxCell id="tUA2d2M24Zf1GxSSOIwZ-9" value="" style="shape=image;verticalLabelPosition=bottom;labelBackgroundColor=default;verticalAlign=top;aspect=fixed;imageAspect=0;image=data:image/jpeg,/9j/4AAQSkZJRgABAQAAAQABAAD/2wCEAAkGBw0NDQ0NDQ0NDQ0NDQ0NDQ0NDQ8NDQ0OFhEWFiARFhUYHSosGCYmGxUTLTEiJyorLjEuFx8zODQvNygtLi0BCgoKDg0OGhAQGi0dHyUtLTIvLS0rLTItKysrKy4rLS0tKy03LS0tKy0rLS0rLSstLS0rKy0tKy0tLS0tLSsrLf/AABEIAKUBMQMBEQACEQEDEQH/xAAbAAEBAQADAQEAAAAAAAAAAAABAAUDBAYCB//EADwQAAICAgACCAMFBwEJAAAAAAABAgMEEQUSExYhMUFUk+IGUZEUIjJhcRVCUoGho/AlIzRicnSSsbPB/8QAGQEBAQEBAQEAAAAAAAAAAAAAAAECAwQF/8QALxEBAAIBAgYBAgQGAwAAAAAAAAECEQNhEhMUIVGhMUFxIjKR4SMzgbHB0QRS8P/aAAwDAQACEQMRAD8Ayz4L5JAQIBIIBAgECCkBAgECIECAQECAQIBAgEBCoBIIB2AgQCQQCBAIEAgZB0ZIEAgIEAgRAgQCAhUAgQCBECAgQCBAIEAgIEAhUAkEAgIEAkEAgQCBkHRkgQCBAICBAJBAIEAgIVAIEAkFsBAQIBAgECAQECCkCIh2FQCAgQCQQCBkHRkgQCBAIEAgIEAkEAgOwIBCoBAtgIEQIDsCAQIB2BbAQECAQq2QIEAgIEAkGQdGSBAIEAgQCAgQCBAIEQICBscH4FLIrlkW2wxcSD1LIt/ef8MI/vM7aejNo4pnEeXSmnmMz2h2/wDQofd/1G752x6OCf5qL1/U1/Ajt3lv+FHmTP4foyYSs4ZkO+UFzTxboqGSl84+Ev8AO0cmtozpznafk5cW70nOzzrWux7TXY0+xp/I87igEgQIBAgECAQIBAQIBCrZAgOwICAyTbJAgECAQIBAdgQCBAOwIBIOzw7FeRfTQnp3Wwr38k3rf8kapXitEeWqxxTENX4vz1ZkPGq+7i4W6Ka1+HceyU3823vtOv8AyL5twx8R2b1bZnEfEMPZwcnNiZNlFkLapOFlclKMl4P/ADwLW01nMLEzE5h6biHGeEzn07wZ333xjO+LtlTVXZrTUdd734nptq6MzxcOZn5d7X0574zLp8V4djWYqz8HnjUrFVkY9j5pUTfc0/FPa+q/RYvSs046fH1jwzatZrxVYJwckAkCBAOwIBAQIBAgECCkCIECAyToygEggEBAgECAQECAQIB2B6xyq4NCr/ZQu4nZBWylauavDjJdiS8Zf53d/p7aMR2zb+z0dtL7/wBnl7rZTnOcnuU5SnJ925N7b+rPNM5nLhM5fJEa/COByya53zupxcauSg7rnqLn/DFePgdaaXFE2mcR5l0pp8UZziHDxnhNmHOEZyhZC2HSU3VPmrth80/p9SamnNJxKXpNXLwXjtmHG2tVUX03ODtqvhzRly/L5f1Lp600iYxmJWmpNe3y7nFsDGuxv2hgxdcIzVeVjN83QTfdKL/hfZ9f1S3elbV5lO3mPDV6xNeKrz553IgIEQQCAgIEAgQCBAIEFJMCGBknRlAOwECIECAQIBAgEB2BAc2HOMbapT/BG2ty/wCVSW/6Fr8wsfMNn45hKPE8ly/fdc4PwcHXFJr6P6HX/k/zZdNb88sI4uTb+HuE1Wwty8uUq8LG0p8v47rH3VR+q+q/VddLTiYm1+0R/wCw66dInNrfENzC4jhcUUeGyoeFDplPDePqWmovas33trfb/j7VvTV/hzHD4w6VtXU/BjHhx5fG+HxcOHWYsrcPGUqftEnrKhZzPmsjrw34eP8AQW1dP+XMZiPr9SdSn5cdoYHH+FPDuUFNW02QVuPcu6yp9z/X/PE8+rp8FsfMfRxvThlpfDiceH8Xsn2VSorqW+6Vzb0l+a2vqdNH+XeZ+Me29P8AJaXnDzuJCoBAgEgQIBAgEBAgECAQIDJNogECAQIBIECAQIBAQIBA9Li8TxM2irG4jKdNtEeTHzYR52q/CFkfFL5/+PH0Ret6xXU7THxP+3aLVtGL/q4sHguPLiOLirLryaLnzSsq3DuUn0b7exvlX/cZrpVnUiucxJFI44jOXoMe2vPeZwyeHXh4+MrbarIc0Ogsg9Kdng9rf8t9/eeisxqZ05riIdYmL5pjEOlwbgbw+IcMtWRRkV5Fl3JOhtx+5Bp9vj3/ANDnp6XBqUnMTnwzTT4b1nOXWxvhv7VZfkWZVGPS+IXUf7R6nOXPvUfDbT7DMaPHM2mcRmY9sxpcUzMzju3VZVkZv7GswIrFojZXTb9930pR30qk+5N6+q/Q75i1+TNe0Ova1uXMdnicnPu6FYXSJ49V1k4qKS5pb1zNrv8AHX6/oeK15xwZ7RLzTaccP0dIwwQIBCoBAQIgQIBAgECAQHYFsDJNogECAdgQDsBAiBAgECAQECA+q5yjJSi3GUWpRlF6lFrxT8B8K9rw3jN/FcS/h92RyZcuWWPY9VxyIrvpm189fz3+R7KaltWs0me/032eit51KzWZ7u9w7Hsp6u1WwlXZC/iClCS1JPcmarE15UT5lusTHBE7ur+zbszh9tOPHmm+N5Db3qMIqMvvyfgltGeCb6cxX/tLPDNqYjy63xN8TWwUcHFyZTrqpVN+T2OeRZ3PU/l+a/Mzra8x+Cs/HzPlnU1Zj8MS8ieR50AgWwHYEAhSBAIEQIEAgIEAgQGQdEICQQCBAICBAIEQIEAgQCAgKbWmm012pp6aYV+k8F4/PoeDRstqslfPJjkTualbCMZS5Xvf3XrXa+8+hp6s4pEznOcvZTUnFcs/j/HbLuG26thXL9pW0clDVbljqMu9J9qb1t+Jz1dWbac/f0xqXmaf1eHR43lQCAkEAgQCBAIUgQCBECBAICBAZB0QgIEQIEAgQCAgQCBECBAIEAgQCAgQCBAICBECBAICFQCBAIEQIEA7AyDohAtgIEQICBbAQIBAQIBAiBAtgICBAIEAgQCBAICQQCBbAQEKgEC2AkEA7AyDoyQIB2FQCAgRAgQCAxTbSSbbaSSW238gOVY9js6JV2O3bj0ahLpOZeHL3lxOcGJ+HzXXOXNyxlLki5y5Yt8sV3yfyX5kwYKrk4uajJwi0pTUXyxb7k34DH1MOaeBkRrV0qLo1PWrXVNVtP8A4taLw2xnC8M4zhwwi5NRinKUmlGMU25N+CS7yIpRabTTTTaaa0014NAcmPRZbLlqrnbLW+WuEpy189IREz8LETPw7EuFZaTbxclJJtt49qSXzb0a4LeJ/ReG3h1F+Xj3fmYZdjIwr6VGVtN1UZfhdlU4KX6NrtNTWY+Yw1NZj5hwGWUAgQCBAICQQCBbAdgQCAhUBAZJtkgQCBBSAgQCQQCBufCGM5ZMshwdkMKqeU4Ri5OdiWoQSXzm4/RnbRj8WfHf/TppR3z4d/it1lWRw3is4Trnd0UshSg6309MlCfY+7miov8AmzV5mtq6k/1+8fLVpmJrdqYVNeBk5vSpdHm564dDfhj2xdjkvy1ZUdKxGna2frOP17/5dKxFLTn6zhkXr7BhYtVseaU+KW5F0H2c9eNJVcj/ACbUzlMcukRPnP6dnP8AJWInz/Z33fkXZN2ZgZsc1T6Wc+H3ynC3omnup0t6mop/uvwRvNptxUtnbb7NZmbTas52ec+HP9/wv+rx/wD2ROGl+ev3cdP88fdp34mPF8QzcmE7YR4jdjVUQs6LnscpTcpT09JR+Xib4a/ivbv3mHSax3tPl1eJUxohi5mHO6mvLhauTpX0lU65qMoc61zLuaM2iIiLU7Z/wzaMRFq9su58SZ16q4alfelPhtTmldNc7c5puXb2/wAzeracU7/RrUtOK9/o4PhP7tmXekukxeH5ORTtJ8tq5Yqevy5mZ0e0zbxEpp9pmfEOrRxu+MMiu2csivJrcJRuslNRnvatjt/iTMxqWiJie+WYvOJie7Qsw8HFlj4+TVdbbdVTZddC7o1j9J2pQhyvm0mt7NzWlZitoznf4y3w1riJcn7JxcWrNnlwsyJ4ubHGjGq3oY2Jwb23p67t9n6F5daxabd8Tj0vBWsTxd8S7WD8Nx6LFlLDycn7VCNs7ar41Rxa5PsUYtffaXa99hquj2ieGZzv8LGnGI7Zz6eb4nifZ8i+hy5uhtnXzfxJPv8Apo8968NphxtHDMw6xlkgQCBAJBAIEAgIVAIGQdGUAkCBAIFsBCoBASDUxOMToxJ0UdJVbbfCy3IrscJOuMWlWtdq7W33+J0i/DXEdt24viuINnGrLcS3FyHZkOVtd1Ntlspypkk4yX3t7Ti+75ibzNZrbucczXE933x3jssyGJFx6N41Kg5c23ZbqKdv5dkIfQupqTfGxfU4sbOXjHxHPJysfKjXGuWPCvlg9ThKxTc5Sa1+9KT2i6mrNrRaPot9SbWiXPj8cwqbvtlOFZDKTnOEZZPNi12STXMo8u3+J/d3osalIniivf79li9YniiO7H4bl9BkUXtc/Q3V2uO+Xm5ZKWt+Hccq24bRLnWcTEtGrjNcvtVWRTKzGysmWUo12KF1FrcvvRk00+x6aaNxqR3i0dpnLcXjvEx2l1+LcSjfGiqqp04+NCcKa3PpJ7lLmlOUtLbb/LwM3tFsREYiGbWziI7RD54nxFZEcSPI4fZsWGM3zb53GUnzfl+IXtxREeIwWtmI2HCOIyxbulUY2RlCdVtU9qNtUlqUG/Df/wAJS/DOSluGcu9LiuLVVdDDxra55NbpssvvVrhU3twglFd+l2vtNcdYiYrHz5a46xE8MPuHGsafQWZWLO3IxoV1wlC9V1XRh+HpI8rfZ2dz7dF5lZxNozMe/uvHE4mY7w4MnjUraMmuyO7MnLjlysT0k1GS5eX+fz8CTqTNZifrOUm+YmJ+s5ci4ni21URzMWy2zGrVNdlVyq6SpNtVzTi+7b7V2jjpMRF4zg4qzEcUfDKtkpSk4wVcXJuMIttQW/wpvv0c5YfJEQCBAICBAJBAIEAgQGSdEQCA7AiBAgpCHYVAIEAkEAgQCAgQDsCASBAgECAQIBAgEBAgECASCAQIDJOiIBAQIgQIBAgEC2AhSBAJBbAQECAQLYCBAIEQICBAIEAgQCAgQCBAIFsgyToiAQIBAQIBIIBCoIQEKgECASCAQECAQIBAgEgQIBAgECAQLYCBAICBAZJtEAgQCAgQCBAJBAIEAgIVAOwIBIIBAQIBAgECASBAgHYFsB2BAICBAOwIDQ6oPzK9D3ns6efPp25G56ovzK9D3jp58+jkbrqi/Mr0PeTpp8+jkbrqi/Mr0PeOmnz6ORuuqT8yvQ946afPo5G56pPzK9D3jpp8+jkbnqk/Mr0PeOmnz6ORuuqT8yvQ946afPo5G66pvzK9H3jpp8+v3ORuV8JvzK9H3jpp8+v3OTuuqb8yvR946afPo5G56pvzK9H3jpp8+jk7rqm/Mr0feTpp8+v3OTueqb8yvR946afPo5O66qPzK9H3Dpp8+jk7rqo/Mr0fcOmnz6OTueqj8yvR9w6afPo5O66qvzK9H3Dpp8+jk7nqo/Mr0fcOmnz6OTuuqr8wvR9w6afPo5O66qvzC9H3Dpt/Rydz1VfmF6PuHTT59HJ3XVV+YXo+4dNPn0cnddVX5hej7h00+fRydz1VfmF6PuHTT59HJ3XVZ+YXo+4dNPn0cnc9Vn5hej7h02/o5O66rPzC9H3Dpt/Rydz1WfmF6PuJ02/o5O66rvzC9H3Dpp8+jk7rqu/ML0fcOnnz6OTueq78wvR9w6efPpeTuuq78x/Z9w6afPo5O56rvzC9H3Dpt/Ryd11YfmP7PuHTb+jk7rqw/ML0fcOm39HJ3PVh+YXpe4dNv6OTuurL8x/a9w6bf0cnc9WH5hel7h02/o5O7//Z;fontFamily=Georgia;fontSize=10;" parent="1" vertex="1"><mxGeometry x="270.72" y="380.38" width="50.34" height="27.23" as="geometry"/></mxCell><mxCell id="tUA2d2M24Zf1GxSSOIwZ-10" value="&lt;font&gt;Aws IoT Core&lt;/font&gt;&lt;div&gt;&lt;br&gt;&lt;/div&gt;" style="text;html=1;align=center;verticalAlign=middle;whiteSpace=wrap;rounded=0;fontFamily=Georgia;fontSize=10;" parent="1" vertex="1"><mxGeometry x="263.3299999999999" y="357.61" width="60" height="30" as="geometry"/></mxCell><mxCell id="tUA2d2M24Zf1GxSSOIwZ-11" value="" style="endArrow=classic;html=1;rounded=0;entryX=0.5;entryY=0;entryDx=0;entryDy=0;fontFamily=Georgia;fontSize=10;" parent="1" target="tUA2d2M24Zf1GxSSOIwZ-15" edge="1"><mxGeometry width="50" height="50" relative="1" as="geometry"><mxPoint x="73.32999999999998" y="276" as="sourcePoint"/><mxPoint x="137.32999999999998" y="346" as="targetPoint"/><Array as="points"><mxPoint x="157.32999999999998" y="276"/></Array></mxGeometry></mxCell><mxCell id="tUA2d2M24Zf1GxSSOIwZ-12" value="" style="endArrow=classic;html=1;rounded=0;exitX=0.815;exitY=0.608;exitDx=0;exitDy=0;exitPerimeter=0;fontFamily=Georgia;fontSize=10;" parent="1" source="tUA2d2M24Zf1GxSSOIwZ-6" target="tUA2d2M24Zf1GxSSOIwZ-15" edge="1"><mxGeometry width="50" height="50" relative="1" as="geometry"><mxPoint x="73.32999999999998" y="396" as="sourcePoint"/><mxPoint x="127.32999999999998" y="391" as="targetPoint"/><Array as="points"><mxPoint x="147.32999999999998" y="346"/></Array></mxGeometry></mxCell><mxCell id="tUA2d2M24Zf1GxSSOIwZ-13" value="" style="endArrow=classic;html=1;rounded=0;entryX=0.25;entryY=1;entryDx=0;entryDy=0;exitX=1;exitY=0.75;exitDx=0;exitDy=0;fontFamily=Georgia;fontSize=10;" parent="1" source="tUA2d2M24Zf1GxSSOIwZ-7" target="tUA2d2M24Zf1GxSSOIwZ-15" edge="1"><mxGeometry width="50" height="50" relative="1" as="geometry"><mxPoint x="87.65999999999997" y="466" as="sourcePoint"/><mxPoint x="127.32999999999998" y="426" as="targetPoint"/><Array as="points"><mxPoint x="147.32999999999998" y="466"/></Array></mxGeometry></mxCell><mxCell id="tUA2d2M24Zf1GxSSOIwZ-14" value="" style="endArrow=classic;html=1;rounded=0;entryX=0.5;entryY=1;entryDx=0;entryDy=0;exitX=1;exitY=0.5;exitDx=0;exitDy=0;fontFamily=Georgia;fontSize=10;" parent="1" source="tUA2d2M24Zf1GxSSOIwZ-8" target="tUA2d2M24Zf1GxSSOIwZ-15" edge="1"><mxGeometry width="50" height="50" relative="1" as="geometry"><mxPoint x="73.32999999999998" y="586" as="sourcePoint"/><mxPoint x="127.32999999999998" y="486" as="targetPoint"/><Array as="points"><mxPoint x="147.32999999999998" y="581"/></Array></mxGeometry></mxCell><mxCell id="tUA2d2M24Zf1GxSSOIwZ-15" value="" style="shape=image;verticalLabelPosition=bottom;labelBackgroundColor=default;verticalAlign=top;aspect=fixed;imageAspect=0;image=data:image/png,iVBORw0KGgoAAAANSUhEUgAAAPsAAADJCAMAAADSHrQyAAAAk1BMVEX///9Lg7ZsbW9naGpjZGZpamw/fbO1tbZPhrjl7fS3zOGnqKlHgbVDf7SgoaLY2dmFhoeen6D4+PhwcXP1+Pvt7e2/v8A6erHm5ub19fV4eXtfYGJZjLvFxsbT09Tq8PbZ5O98fX+TlJXC1OWZttNzncXi4uKvsLGOr8+qwtq3zOCJiox8pMlkk796ocfR3uuhvNc1JW+4AAAQjUlEQVR4nO1diZKqOBRthaC20C6IuKGIinvr/3/dA9lykyAJoGI/z1RNzdiCOSS5uTtfXx988MEH5WFgXw7f17WH6351sQevHs+TsLC/T7OaqmmK90/wL7U2O33bi1eP7MFYHE4zVVFrag3A+0DRZqfDH6a/OjUVgjV4AkrttOq/epCPwGDfNNU7zG/sVbN5/XOT39op2n3eETRz13r1aMvEYt3UMqYcZ99c/525P8zubXMW+9nh1WMuB4tfQeY+zM1fWPgHU5x5zRf6+1ePvCgGuxyTHpDXft9b3WttOKU7C9rZfvX4C8Bu3qPuaXOUhge/0Ly8mkFuXNLWu6oppmnWZh5q3n8oqQeg8q7yfsWcdI+3ct7tL/ERvrjsd2eFzV81v1/JIDdW7JmsbfYtSogNWvtNjfWoVO0dydss5V1rXu20C1rXGZP96omDLgcLmrpnp+3vHluDg7csaPLvJvAG9BxqKoe2smecDNqbafcnmvovF4XFjpp67YyvlsFg4aO6es+epK42uWXWipp6ZR38ZeCdCL+bs380ns+b3XVVxSdgkweWNrP5r26dKfKevLtcN5qvCQRyRFU1zVMSZrtD1eg3SeobsRGeTIL8bKeaGvPgUMzNqkr098SW1U6id1iT5O+4PjStua6MwdsiJkjbid9jJ2QDVcfTQ4w7ny0qRt5jXwlz/wJHrZ7zbUdR69esgsW7gStezbkaB2dBp4dqXsslIg5y2nOr49RBmQmFT316HH4BdyWHnItAKUiZeLGnpwXON3VW5OydCbv6NM0ui0gOXMFkmYUMUKYZnAHzhVZfE0zDptjNaIvopswqiqakP5aX2fsXoJAVnQSbcGVqSvP8u7vuv/fr03mmst1cTbsUJuJY4zOlnoveDtdwVKW2vmDK68LenxWGN1SdvUbaw0NZKbz8WvEy0swTYxG11gxPT/FHngs2GMms+A1PwbPUtFOKuTLYNyn2kb3/XAALTithCPZt4rXNHcGxoCWi8gphf8KXvFbGCLxNpNUyfD4H0tOT14YoArDdyxnASjF3mfdpzYh1/4JV38IdNnnMdgZ2NseXBhtIXlV5rioVF3wET42l9QmTVxV2FRXFN87dfKojiTR5n/vrX4Rm03yuvGkBbbqsHcePX1zUCfpmCwOq0zXlydodEPNP33Fr6Dl4sgNv9spF99WH0u7JZzy+5V5wxAJRW1Psp/44zl17gecQOHqePIBXcz/gE/9cc87G1TrlBdwXuMCpNZ93xK9+wXYrw4oTBojmlGJL8eB7ZhaPwhXGCj/j1dNTJP2KLojQfp/xwwQGwIWpmteHs2+dGF7DV9jQnj0HBqJq5wd7bekkkUDUvMJluCa9GI/dejsyTyDE0y0pH2Tag3fenB82jsWZkRIXcH9FkGDFcNtqDxqInR4zEzUm+mNj5HZucN2RMc41ngtrEWoPMWvIwAn4Re6dNjY6wx+nu5zoSJJ9SEifLI9O23LHgvVyLRb3h9RgpFP3o2Z8wTh32FtKsiQhhOo4vP/3HkT92LYMgREN2MKn/HTsFplLFk64Yirn9YGjwtewevWpR7ueDu8BTCftOfeYTHYdXtnkF4y9rqrmbPfNJVkNqytJ0h3aGH+p3pvzrf7B90ZjsC9b4NHZQKpWO124VJp+p6fL9+abhCQttyO+cbXWjGR0tVTLhj5KVZXLme4xt44y14zD2Ue9Dt/QFnsyWFGuSWuTUkXlzvJqiE05NvnykXPnD9ZUWV55RvWA3OyayidO+g1JzkU8mHx5wsnepqa+tHSUK5kzyznp1lJ4sRPsJcfl+qUBmYlflnVlw0hATdlwWS6jY87VjkNCbT6ZT85PSSoOEfPW+B7p9u5RLsCec+GvCfKlhIrsPDmznUnmRkcRsr43dbj0fYJ8KeLuBF0EM56zs3Fvud8UWElfdo8efM3+ptXfuUDSuaYerk9VKz7xC3i+8TgFDSd10j3aetfZWq5hjMd9H+OxYXSs9nFZT39eSGrwjBSGZ5Xiqi1MnuSJwHQmKeLd01iW7fmILbzGruV4tl0Kf5ln3UOjtriCQ5ztzewrLPb8IWnaHWaZaZ2tPmU/OGnCoeXCIgTT5iF4B/BZcmTRbZnrHU27DT771G2zNUEkZyu5A+BBLuy+24klT/Z7rGmTkMNpmvkYD5espY+QlXnpFQaqikk7mN6hZabVOAzqCDmcdkmEPlsjRMOsCxdADSsYnW2B3Z6ZIX+kh4zkJZ9eCmGxzH05kzxYpgV1OxDtzBTybXqvc9sjFLYM9tOsBQQUsYJp7fA5ZpztBjVYJG3zN+wa0WoCOmZcAzMeC1VygKyaWlbC9pAcq7QU3OjkDeukzJtmHRYgE71Qev0AD3JnZhT9EPMu9/I53hO4pMyTs3YQ3KRFrHiYOJplHcDzDcmpZ5IxH7ad7gQh7ySfdHtbq5P2kPq9qRh34LQvpNbaQuUBDZy7pLPF+8jqTZAkxcaL75v3jvPlNoU/3EjTLO1uAHJhiuREgOK/TB3RxYYpdVmjNIZHXWbq7N4DmPTmLPoWtunRMmvEQNgV0uxAuM/MdNckmo10ZAgl976v2rPxlg0G+7keX5S+jWLg3vRCOY+Qe+aJMdZD8vKRPto6ToqZAum36Yfm1qPbOtlDxt0NhQ54Qe5fY0f2trIstam/uF1O750ktam5N45T/7aIx4o/gTxfLpZsiHL3OG57P7SparQzXVMYe51e2R3mbVl40LznjvTMxZzVSHZE4rEQm7JynC/4GZfb398WdlZL9WyhxkZ5ch4E3XNqCsYyT2xm+pNvxCDzrFCuK0jczKcpzCc543H51j0IHRYr1jwXlRwWZY5wk2dqR1mAFYuFonIg7p4ji26ett59tVa66bOpuRjSJMfMg2hCsTg88FCLZ5KN2I5Leao7DWvujkZuZ261j9KUyV/K1GApgE1a0EsNquBU4bRZhvvOs90c6qR2t11WggKHCksAHMoFHbXA+Secy2HoNPMl21fdd3902u3DocNCgD1atGIRtDIRPTNcypEzGaa7M4wfUi6ipaDHC3TNUNWCaTdAbqqqmAPMhY4HNM3w3o0c4oKloOMHhCMLV+0tYD2S2BFvgHmUutlye17HF77omod5QcXTD35hcNMWubZ/xMhLW55LDNzFn+2Ph4AZ9cWrJVcwuCm2jrDjnSOidEM/8Xiiuth2h5lwZRRr1gAE0xmiaAVPJDG+Zip+jY8L7INTRqoV0WpK0KJpIN+bMV2K6KdWeI0Y9UWTSBARupoN4KOvCXcrGw9/elvBEMXYavcEcopvILvklpNUS/YYq2Tz4AXR8LSQuyoB1VnvUYUZBUD1ei2rWPBCJi2WUvdsWNue89MQSEpIx4osbCjSSw+CzNsroXFe53izXv1/MbzSYqAySotGYMHNqcoBVS3UKXXcw/y2ki6owhCDW9Ep9GV2tqP7SarKLP/boAyYhYakXv6hHTZ0f7Nya5Pp4gG/VuaUr0WyoZOeCp6ACwuXa5PxShvOyiVuUJ2Tg8k3Z+vVxW7xIH5M/S7tppATZX/BdTf7stpvFJNVrMiZ7CwAuld8QF9TtFqTB/EOabAcWSiOWK80nrv5lWns3qZ8Gb9CGJzSCkI9wZeNpEzcYDqtky3f0rhumDqYh7RASCfPgcTlQ2XlBNAjjV+4STGkXntMOTBzz3MiCRN02S7pxFYXbM0Nf+b8qGr0Q44msiHipI1+ijc+8dFcc3NXOfrf5QZdkMTNPZqPURr32BnPOk+5oD2mCDrCgNXygYt7NCGdtOT6SfQb3/m4q9r50QbmZZZr18fc3QdxV57S0Ov77ptf07hH4jd1zXej++dZ85qye07LjcH+fKdHdAr3eD2yqWMHPGU1ZkJpchbnlsJ+tbn3OhDW8OL4kJNyxsV+3JPYY1W02fXJrUbs/fn2+hveEcamlZWi20RWvIBu479yp7l+iQttsLqeZoppKhwwYwOjv2RNvBynpdlc9/NfRtjcrA8vfdtMv2WvVofDdwYO37HWwcpHQJM48tbKupWP1erSGlTpHUO8+GGUV+Strng39KmyGpknY/KPwAEZd0g05vjeGE5i9kg+5imkemOMh1391tZoIlI2+GcwmltDq1PUOf/BBx988MEHH3zwwQcffPAc9Ptjwxj338x6mzcwMMduYV9g5U13Gs5Sn/qQ9e7PEBru40YGhsEt7kM0iZMTbb8kN8SU6WHTZewbFHEHNCxDkiTX8YakI4RdzYB8C1c2pne/JE0f4wRqY342Zl7/HHfEyQTzI2KE4qR6L7bgR1R5DeHMvYWthhm1tQ9ygAHurOq1n3Tu27RK6KQ73dtwr0uMRQ+GhXPvp7e0q6PIS/s+3BmLHkYdMO5kWhmxBsKgzPtwr9epIqYeoIRxx2sEJVmaLJe6jLupg/GOUCKxsJTTO7IOl5tPlHXeoMgKmDExAfEfsOYvkt6bG+Px2BhZDlYOJ/mnndFOEEdrEfbhbW/Mf5IPotAe6iaf/TzojIPcyUVPRFhj7gZ+DSYh3SQ+QzWq6sjkXViIZCujwUbZCLmjcG2TwwrmCjk6Meqk3xG5F3vx0yLVBUHuOTsFCCDkLs/DYcFFPwo/nRPcjbjYkQ67xYKAnPjKcu8ENX9E6neQMImOLoKjbqTx+8KrhRHUbyvL3Q3p6EDSBwmTkhVlkYWjToojWYHmbfRgiDVRWe7zcBkDMm44f+M55D6Od7vOuGWcdpXkWd1QWe5WOMdAvQlm0Pso0nDCUccKD7sgNl4VcBFVlvsw3MNApw92rqfpWpB7vN1ZSjB2biJwLleVu9T4GlGLPhisnzczhNzjE05n1oXGSgF8NJXl7i3eCbnog7/5or8B93ukoaEJ09sR90aAZ39lubdjgskmDZa8X7q8BdxjMZ/Sdy8+/aE4qDL38BCPdfpAot2aNBDcu7HOzbzn+M24+79ELPpgFLfxt8W4x/sd6OSV5e7rc+HsRod48Cim7pcw9+n7cQ8XfSjpLTnZ0u0/vd9venyo3gQ6fSDMg1cjtP+0nL/xDRc98iV9aJLIBvYt+nxnplQl5zuwCqvNPZywmyEb+NDCVU1wj60VxHSopPy52tz72KIP/jNctQT3RJ9nOtJi5xRcFtXmHs2YN+aRhI+e4G5ELJjCLjbgib9WnHuk01uRZeOAbzHsd0bebGLpQCuv4twT9SZwl0YuLII75rehPfrjuDBYgtKg6tzDRT8J9dnIoCW5Y/46yoqNDwHUhSdg1blHZX46+JTijkUmEEE+eRkN2aKw6ty/QO+GuPsUxX2UcEd42N5IXNTktFefe3w213G1jeKOxzSkZWM07n/1+4bbxjp+UG27Ks+9g7enaxPfwkaNF8ggWZocnWN3gjfnlKm4SuW5f2GlblOX+BY+atjngXpjHqPNSfW5J4sZ6eS3wKiNe53IZUZ7m+pzTwq6sbfbsbh/9Z209sOI2VK/+txjxwQeUmJyv70xlfmSjS6zSqp63OXbVsXicOEnCG+fHH1G5lmNhxP6vZCMdwzc0Jki9l0AeuFPyY/n3ugGSFRvdxl8srTobzFMl9HQmUynfmlYPO2Mt3LgN2bdJcE2/FL3Teoq+6PO3Gok2SKi/XffH1YiJZf/XYlc0t5IEmpi+ieQtPRCKa+e+sPYyjHYybl/GdYwwavH8sH/gn8yRkf0soSFFwAAAABJRU5ErkJggg==;fontFamily=Georgia;fontSize=10;" parent="1" vertex="1"><mxGeometry x="187.32999999999998" y="377.5799999999999" width="40" height="32.03" as="geometry"/></mxCell><mxCell id="tUA2d2M24Zf1GxSSOIwZ-16" value="" style="endArrow=classic;html=1;rounded=0;entryX=0;entryY=0.5;entryDx=0;entryDy=0;exitX=1;exitY=0.5;exitDx=0;exitDy=0;fontFamily=Georgia;fontSize=10;" parent="1" source="tUA2d2M24Zf1GxSSOIwZ-15" target="tUA2d2M24Zf1GxSSOIwZ-9" edge="1"><mxGeometry width="50" height="50" relative="1" as="geometry"><mxPoint x="157.32999999999998" y="396" as="sourcePoint"/><mxPoint x="207.32999999999998" y="346" as="targetPoint"/></mxGeometry></mxCell><mxCell id="tUA2d2M24Zf1GxSSOIwZ-17" value="" style="endArrow=classic;html=1;rounded=0;entryX=0;entryY=0.5;entryDx=0;entryDy=0;entryPerimeter=0;fontFamily=Georgia;fontSize=10;" parent="1" target="tUA2d2M24Zf1GxSSOIwZ-22" edge="1"><mxGeometry width="50" height="50" relative="1" as="geometry"><mxPoint x="323.3299999999999" y="397.61" as="sourcePoint"/><mxPoint x="423.3299999999999" y="387.61" as="targetPoint"/></mxGeometry></mxCell><mxCell id="tUA2d2M24Zf1GxSSOIwZ-18" value="&lt;font&gt;IoT Devices&lt;/font&gt;&lt;div&gt;&lt;br&gt;&lt;/div&gt;" style="text;html=1;align=center;verticalAlign=middle;whiteSpace=wrap;rounded=0;fontFamily=Georgia;fontSize=10;" parent="1" vertex="1"><mxGeometry x="20.329999999999984" y="236" width="53" height="20" as="geometry"/></mxCell><mxCell id="tUA2d2M24Zf1GxSSOIwZ-19" value="&lt;font&gt;Mobile Devices&lt;/font&gt;" style="text;html=1;align=center;verticalAlign=middle;whiteSpace=wrap;rounded=0;fontFamily=Georgia;fontSize=10;" parent="1" vertex="1"><mxGeometry x="18.829999999999984" y="299.61" width="60" height="30" as="geometry"/></mxCell><mxCell id="tUA2d2M24Zf1GxSSOIwZ-20" value="&lt;font&gt;Meters &amp;amp; sensors&lt;/font&gt;&lt;div&gt;&lt;br&gt;&lt;/div&gt;" style="text;html=1;align=center;verticalAlign=middle;whiteSpace=wrap;rounded=0;fontFamily=Georgia;fontSize=10;" parent="1" vertex="1"><mxGeometry x="21.329999999999984" y="486" width="60" height="30" as="geometry"/></mxCell><mxCell id="tUA2d2M24Zf1GxSSOIwZ-21" value="&lt;font&gt;Web&lt;/font&gt;&lt;div&gt;&lt;font&gt;platform&lt;/font&gt;&lt;/div&gt;" style="text;html=1;align=center;verticalAlign=middle;whiteSpace=wrap;rounded=0;fontFamily=Georgia;fontSize=10;" parent="1" vertex="1"><mxGeometry x="13" y="599.6100000000001" width="60" height="30" as="geometry"/></mxCell><mxCell id="tUA2d2M24Zf1GxSSOIwZ-22" value="" style="sketch=0;points=[[0,0,0],[0.25,0,0],[0.5,0,0],[0.75,0,0],[1,0,0],[0,1,0],[0.25,1,0],[0.5,1,0],[0.75,1,0],[1,1,0],[0,0.25,0],[0,0.5,0],[0,0.75,0],[1,0.25,0],[1,0.5,0],[1,0.75,0]];outlineConnect=0;fontColor=#232F3E;fillColor=#8C4FFF;strokeColor=#ffffff;dashed=0;verticalLabelPosition=bottom;verticalAlign=top;align=center;html=1;fontSize=10;fontStyle=0;aspect=fixed;shape=mxgraph.aws4.resourceIcon;resIcon=mxgraph.aws4.kinesis_data_firehose;fontFamily=Georgia;" parent="1" vertex="1"><mxGeometry x="443.3299999999999" y="382.61" width="29" height="29" as="geometry"/></mxCell><mxCell id="tUA2d2M24Zf1GxSSOIwZ-23" value="&lt;font&gt;Firehose&lt;/font&gt;" style="text;html=1;align=center;verticalAlign=middle;whiteSpace=wrap;rounded=0;fontFamily=Georgia;fontSize=10;" parent="1" vertex="1"><mxGeometry x="427.8299999999999" y="357.61" width="60" height="30" as="geometry"/></mxCell><mxCell id="tUA2d2M24Zf1GxSSOIwZ-24" value="" style="sketch=0;outlineConnect=0;fontColor=#232F3E;gradientColor=none;fillColor=#7AA116;strokeColor=none;dashed=0;verticalLabelPosition=bottom;verticalAlign=top;align=center;html=1;fontSize=10;fontStyle=0;aspect=fixed;pointerEvents=1;shape=mxgraph.aws4.s3_tables;fontFamily=Georgia;" parent="1" vertex="1"><mxGeometry x="438.8299999999999" y="486" width="38" height="38" as="geometry"/></mxCell><mxCell id="tUA2d2M24Zf1GxSSOIwZ-25" value="" style="endArrow=classic;html=1;rounded=0;exitX=0.5;exitY=1;exitDx=0;exitDy=0;exitPerimeter=0;fontFamily=Georgia;fontSize=10;" parent="1" source="tUA2d2M24Zf1GxSSOIwZ-22" target="tUA2d2M24Zf1GxSSOIwZ-24" edge="1"><mxGeometry width="50" height="50" relative="1" as="geometry"><mxPoint x="543.3299999999999" y="381" as="sourcePoint"/><mxPoint x="583.3299999999999" y="331" as="targetPoint"/></mxGeometry></mxCell><mxCell id="tUA2d2M24Zf1GxSSOIwZ-26" value="&lt;font&gt;Iceberg&lt;/font&gt;" style="text;html=1;align=center;verticalAlign=middle;whiteSpace=wrap;rounded=0;fontFamily=Georgia;fontSize=10;" parent="1" vertex="1"><mxGeometry x="427.8299999999999" y="517.6100000000001" width="60" height="30" as="geometry"/></mxCell><mxCell id="tUA2d2M24Zf1GxSSOIwZ-27" value="" style="endArrow=classic;html=1;rounded=0;fontFamily=Georgia;fontSize=10;" parent="1" target="tUA2d2M24Zf1GxSSOIwZ-28" edge="1"><mxGeometry width="50" height="50" relative="1" as="geometry"><mxPoint x="291.05999999999995" y="407.61" as="sourcePoint"/><mxPoint x="283.3299999999999" y="517.6100000000001" as="targetPoint"/></mxGeometry></mxCell><mxCell id="tUA2d2M24Zf1GxSSOIwZ-28" value="" style="sketch=0;outlineConnect=0;fontColor=#232F3E;gradientColor=none;strokeColor=#ffffff;fillColor=#232F3E;dashed=0;verticalLabelPosition=middle;verticalAlign=bottom;align=center;html=1;whiteSpace=wrap;fontSize=10;fontStyle=1;spacing=3;shape=mxgraph.aws4.productIcon;prIcon=mxgraph.aws4.lambda;fontFamily=Georgia;" parent="1" vertex="1"><mxGeometry x="203.33000000000004" y="512.6100000000001" width="42.27" height="28.39" as="geometry"/></mxCell><mxCell id="tUA2d2M24Zf1GxSSOIwZ-29" value="" style="sketch=0;outlineConnect=0;fontColor=#232F3E;gradientColor=none;strokeColor=#ffffff;fillColor=#232F3E;dashed=0;verticalLabelPosition=middle;verticalAlign=bottom;align=center;html=1;whiteSpace=wrap;fontSize=10;fontStyle=1;spacing=3;shape=mxgraph.aws4.productIcon;prIcon=mxgraph.aws4.sns;fontFamily=Georgia;" parent="1" vertex="1"><mxGeometry x="333.3299999999999" y="512.6100000000001" width="40" height="40" as="geometry"/></mxCell><mxCell id="tUA2d2M24Zf1GxSSOIwZ-30" value="" style="endArrow=classic;html=1;rounded=0;exitX=0.5;exitY=1;exitDx=0;exitDy=0;fontFamily=Georgia;fontSize=10;" parent="1" source="tUA2d2M24Zf1GxSSOIwZ-9" target="tUA2d2M24Zf1GxSSOIwZ-29" edge="1"><mxGeometry width="50" height="50" relative="1" as="geometry"><mxPoint x="291.05999999999995" y="447.61" as="sourcePoint"/><mxPoint x="283.3299999999999" y="557.6100000000001" as="targetPoint"/><Array as="points"/></mxGeometry></mxCell><mxCell id="tUA2d2M24Zf1GxSSOIwZ-31" value="L3(PDs, EMail, SMS)" style="rounded=1;whiteSpace=wrap;html=1;fontFamily=Georgia;fontSize=10;" parent="1" vertex="1"><mxGeometry x="303.3299999999999" y="610" width="100" height="30" as="geometry"/></mxCell><mxCell id="tUA2d2M24Zf1GxSSOIwZ-32" value="" style="shape=image;verticalLabelPosition=bottom;labelBackgroundColor=default;verticalAlign=top;aspect=fixed;imageAspect=0;image=data:image/jpeg,/9j/4AAQSkZJRgABAQAAAQABAAD/2wCEAAkGBwgHBgkIBwgKCgkLDRYPDQwMDRsUFRAWIB0iIiAdHx8kKDQsJCYxJx8fLT0tMTU3Ojo6Iys/RD84QzQ5OjcBCgoKDQwNGg8PGjclHyU3Nzc3Nzc3Nzc3Nzc3Nzc3Nzc3Nzc3Nzc3Nzc3Nzc3Nzc3Nzc3Nzc3Nzc3Nzc3Nzc3N//AABEIAJQAzwMBEQACEQEDEQH/xAAcAAEAAQQDAAAAAAAAAAAAAAAABQIDBAYBBwj/xABAEAABBAECAwQFCgMHBQAAAAABAAIDBBEFIQYSMRNBUXEiMmGBsgcUNDZic3SRobFTctEVIyZCUsHhQ2SSs/D/xAAaAQEAAwEBAQAAAAAAAAAAAAAAAQIFAwQG/8QAMxEAAgICAQIDBwMEAQUAAAAAAAECAwQRIQUxEkFRIjIzYXGh0ROBkRQjsfDBFiRSYuH/2gAMAwEAAhEDEQA/AO8UAQBAEAQBAEAQAoDV+KOOdI4dDopZfnF0DIqwkFw/mPRo812rx52crsc52RgdQ8T8aaxxGXRzymtUztWhcQ0j7R/zft7FoV0Qh9TyytlM1sN8APyXY5lxrCUAdGVGyNFBbkEHcHrndSSbbwrx9q+ghkMsjr1If9KZxLmD7LjuPI5XCzHhPnszpG2UTtzhri/SeImAUrAZYAy+tL6Mjfd3j2hZ1lM6+64PXGyMuxPtJPVci5ypAQBAEAQBAEAQBAEAQBAEAQBAQ+v8R6Xw/WM2qW2xZ9WMek958Gt71eFcrH7JSU4x7nU/E/yl6pq4fBpjXafUO2QcyuHtPd7vzXvrxYw5lyzzSuk+3Bo7GEnxycknqSvUcS+ISQo2SGwHKbBnVage5oI2J7lRyJ0ZOoacyB4bHk5HUqIvYS4IqSAgq+yCnsDjJU7BQA+KRssb3MkYctew4c0+IPcUb33IN94Z+VG9p4ZBrkbrtcEDtmYErR7QcB36FeSzEjJ7hwd4XtcSO1dG1rT9brCzpdpk8Z68uxafAg7j3rwzhKD1JHpjOMlwSIVSxygCAIAgCAIAgCAIAgCAxNQv1NNrvs3rEcELernuwFKi5PSRDaS5OruKPlVlkL63DcXIzp88mbkn+Vvd5n8l7a8Rd5nmne37p1vasT3bLrNud887/WkkcS4+9e1JR4Rw79yhrcqewM+rW5iMKjbJS2bNpemVnU5DNEHvycOK+d6pm5FGVCFUuH+TZwMWq2iUprlMiH0yw7jPsX0LZj642SNSWJkbG9iMjA5lzkiGjItTRsfyui5tvYoSI0Q7q/aSOc1uznLpstoyGUYuQ87fSxsubm0yr76I23TLercLrGRLRGSM5ThdNkFzT71vTLTbWn2JK87f88bsZ8/H3qsoqS0wm09o7O4W+VVkhbW4jiEbuguQj0D/ADN7vMbeS8VmJxus9EL/ACmdm1bMFuBk1aZksTxlr2OyCvG01wz0Jp9i8oJCAIAgCAIAgCA4dsgOu+KvlOp6e6SrokYuWm5aZX5ETD+7vd+a9dWLKXMuEcJ3pe6dUaxrGo63a+c6pbfYl7gdmsHg1vQL3whGC1FHllJy7mCrEBAZEAyQoJNw0mpQdVikfLiUjJHOP2XzmbmdRhfJVQ3FfJ/k28XFw5VRc5afnyTMDI2xlkZy3zWFmXZU7YytjqS7cP8AJq49dEa3GqW0+/KMSWrRdtJJyg/aWj/XdVXav7P8ni/pOn/+f3NfleI53iLdodt3r6evxOCcu5g2JKTUexxLZfM7mftthX0URl12js2uHXvXNtkba7F8l3MNgqFW3stWY2Sg9pt1V1JonbNcuMDZCB0C9EXwDBI3ViDhCCV0HiHVeH5+10u26Np9eF3pRyebf9xg+1UnXCa9pF4ylHsdt8JfKNp+tSRU70fzK8/Aa0nMch+yf9is+3GlDlco9ULlLhm9LzHYIAgCAIAgCAol9R3kUIPLtz6bZ++f8RW2uyM7zZaUgICpoygMqBhJCqyUS9QuZg74XN8llo2TTJTJTeSc4cR+i+V6zr+tr/3zPoemP/tpkBNNzjAGfevq9aPnlwuCulWE0re0zjG+F482+VFEpw7o9eFRG6+MJdmXb9NsPL2WT57rz9MzLMmEpWa49D0dTw68acY1759TEjeYnY3Wn3M0z2y8wD9tlya5KP3jFuP5x0710SLshrLDnouiKNGC4YKuQUIAgJXhMf4o0nYfSmfuudvw2Wh7yPSqxzQCAIAgCAIAgKJfUd5FAeXbn02z98/4ittdkZpaUgIC7EMqGCd06jJJGJGty3PXK4ymkWRL2K7nsjDGDIGDhcYzXqSmiOldLC8xlzm+Ia7C6OEJ8tL+CynJLSZdp1HTtLg5oAON1483qNeLJRmm988a/J7sPp9mVFyg0tPXO/wS0ELYWnI3PQrIzOq1X0yrjF8/T8mph9KuoujZKS0vr+CqSMPGHDdefp/UIYkJKab2/I9HUcCzKnFwaWlrkjLdJzGuk5m4b3d62cfq9V9irjF8+uvyY9/SrqK3ZKS0vTf4MFkhBxnZarRlouPc10ZwcnwwqnRR0yzMxjmbeG6smRKD2Q1hmHLqjkY56qSDhAS3Cf1o0n8Uxc7fhyLQ95HpRY5oBAEAQBAEAQFEvqO8igPLtz6bZ++f8RW2uyM0tKQEBdiOCoBNULr42coeQ3wC5SimWRM2Z3NZEWP3IzscrjCK80SkiMnfzPy93pHpnvV3OEHpvR3rx7rIuUINpF6tZfAOVpGCcnZcMjCoyGpWLbXzZ0xs2/Hi1W9J/Qla1gSjBxzLKz+n49NEpwjyvmzTweoZF2RGE5cP5IuTSiNu/VeXpWHTkQk7F2Z6eq5l2POKrfdETauSPDo8jlPUYW3T03GpmrIR0183+TFt6jk3QcJy4fyRghzWSBrnAOPQZXvPEZDyBHuN1Vo6J88mPPM0NwAOilIrKT2RE78uXVHMxipICAluE/rRpP4pi52/DkWh7yPSixzQCAIAgCAIAgKJfUd5FAeXbn02z98/4ittdkZpaUgIDlpwgMqu4kjdVZKJmoOY7kfmuMpJd2dY1zlrjj6HGosDbldo5cEDoem6y8uSdyZ9Z0ZTjhWeJae/+C/aiDNw5p9601ZHzZ8p+lZ20/4FOwIZg52QMb964ZlEr6HCHdnfDvjj3qc+yLt64yUjsiduuQvP0zCsxYSVnmejqWZXlTjKvyMSJrXvHO5oPfl3RaXJm8GFqDGN1usGuGDybg9PSKtHfhKtcklcDGA+mz2YdlVRZkNZcc7q6KMwnHJVyChAEBLcJ/WjSfxTFzt+HItD3kelFjmgEAQBAEAQBAUS+o7yKA8u3Pptn75/xFba7IzS0pAQBAZEDsEdyqyUScEDJzkvx5BZt2F45Oez6HD67LHojV4N6+ZzapshmijZIXB++cAd68N1H6c1DZv4XUHk0St8OtP/AI2XptOijPoyk7+AXqWB/wCxk/8AUkuGq/uccngtGK8KSPm7J/qTcvU55FJVpoxv7KZYnc4zFvMc7NBVvE0U8JiWtPbBqENUS8zZA30sdMnClS42Q1yZFjSIoMclguxsCGhQpbJ1oxbLtwM5wMKyIMQ9VYg4QBAS3Cf1o0n8Uxc7fhyLQ95HpRY5oBAEAQBAEAQFEvqO8igPLtz6bZ++f8RW2uyM0tKQEAQFTSgMyvYLCFVolPT2ZUkwkex+fVWfkY1k7Iyib/TOpY+Nizqs3t78tlx9nnPmvbrRg/IyYnHl9EA5VWdIpHILgw+iMeKjZZpeZiun5Hq+jkYtkmW7HN6OG8v6HKsu2iPmVW7fMdkSI2Rz3cxyrkFCAIAgJbhP60aT+KYudvw5Foe8j0osc0AgCAIAgCAICiX1HeRQHl259Ns/fP8AiK212RmlpSAgCAICoOI6IC4JSAo0Cpsx5k0SZte1yjfoqNEplyS03lwM4UKJaUtsj5JiTsuiRQp7YpogtucSpBQgCAIAgJbhP60aT+KYudvw5Foe8j0osc0AgCAIAgCAICiX1HeRQHl259Ns/fP+IrbXZGaWlICAIAgCAZ8UBznBQFTXnxQgrkEzI45JI5GMkGWOewgOHsJ6+5Rx2J5LROVIOEAQBAEAQBAS3Cf1o0n8Uxc7fhyLQ95HpRY5oBAEAQBAEAQFEvqO8igPLtvPz2zj+M/4ituPYzWZOgV4beuUK1lvNFNOxjxnGQT0UWPUG0TFJySK+I60FHiHU6dccsMFmSONuckNDsAKKm3BNielJojlcrsyq2m6hbjdJS069Zjad3wVnyNHvaFVyiu7LJSfZFN6jb06bsL9aWvNyh3ZytLXYPfgqYyUltBpp6ZLcB0q2pcX6bTvQtmryukD43dHYieR09oC53tqtteRaC3NIw9Y0m/Ss25ZdMuV6gsSBkslaRsfLzkN9IjHTGPFWjOLS55IlFpvjgjcfqrlTa+Kh/g/g0/9tY+Ji89XxJ/U6T92Bqm//A3XoOZmWNI1SrX+cW9LvQQfxZqz2N/MjAVVOLekyWpLlow9vHbyViNmRUo3bpcKVK3aLT6QrV3y8vnyg4UOUV3eiUm+yKr2m39PERv0rFXtRmPt4ywuHfsd0Uovs9hprui1XrWbTntqVbFhzGl7hDE5/K0d5wNh7UbS7sjl9jiGvYsMlkr155o4W88r4onObG09C4geiNj18EbS7scvsSXCf1o0r8UxUt+HImHvI9KLHNEIAgCAIAgCAol9Q+RQHl26M27QOxMsgwT9orbj7qM1rlm68N8Xvm1XTqn9haQwOmYztWQem3uz5rzWUJRb2doWPaWi5xNxi6trmqU/7C0mQR2JI+2kgy92CRzH2qK6NwT2yZ26k1pHX8hIY8t9bBIXsXc4NHYXGepaxpDNJr8OTWK+kjT431312bSOPUnA69PzXjpjCXic++ztZKa14Oxh/K2SeLWF3rGlFk/+Sti/D/ci73/2MH5NPr5o4+3L/wCmRXyfgy/3zRFXvo2PhfVNdvcZ3aV+WzY0tzrDbLJ2ZjZEObB3GB3D3rjbGuNace/B0i5uxp9jrmYRieUQnmiEjhGc5y3Jx+mF7Eed+ejaOK/qdwZ+GsfFGuFXxLPqi8vcgPkvirzcaVBaDSGse+MO/wBYG3v6pkt/p8E0++bSziylX1i9HqEPFVwTc8U1GetCYgO/ADsgDzXn/RbgmtL+Tr+olJp7Z1W31Rg5A717+y+h5dehvdy3qWl8C6CdAfLDBNzm1JXblxlz0ccFeWKjK6XjPRJtVrwnHyiT2LOh8LzXHvfYfWc6Rzxhxdt19qYySnLRF3ZFn5LAXavqrGDLnaVKAO8+kxTk+5F/P8inu0W+BInM4S40kewsadOiYHOGBkCXI89x+am9p2V69fwRXxXLZC8J/WjSh3/OmdPNdLX/AG2ykPeR6UWOaAQBAEAQBAEBTINj44UMldzqfiDhqjqE0rnxmCxk/wB7GN/eO9ZmP1K/Gl4e8d9n+TUtwaciO+z9UaPZ0zUuH7sdtgDhC8Pjma3mbkHbI7vevocbOoyl4YvT9GYmRhXY721teq/BHXbc1+5PcsuDp55DJIQMAuJydl7oxUVpHkb3yywpIJ3SOL9d0et82o3nNgBy2N7A9rfLIOFylTCT2y6slHhEdq2q3dZuuualOZpyA3mLQNh0GArwhGC1Eq5OT2y1RuWdPuRW6MzobERJZI3qMgg/oSFMoqS0yNtPaJjU+NOINTqOq2tQd2Dxh7Yo2x8w9pG5XKOPWntIu7JNEB5FdjmS+r60NR0fRdObXMZ02KSMvL8iTnLTnGNvVXKFfhlKW+5eT2kvQi4JpIJWSwSOjkjIcx7DgtPiF10mtMquHtGyP4/4llrGB2oNw5vK6TsGc5HmuKx6096On6stcmsNHo4HTouz5OfYltE4k1jQmvj0y46OJ5y6NzQ9pPjg965zqhN7ki0ZyitJlGua/qevSxy6rZ7Z0YwwcoaG+QCmFcYe6hKTl3MXTtQt6ZbZboWH15484kZ1weo8irSipLT7EKTi9m0CzxPxTUFe9ZENBzg5xETYw/v6NA5llZObjYj45l9TQx8LIyFzxE2rhLQKel3K/wA3i7SYvGZX7uP9PcsaWffk3JS4XojVWHTj1Pw9/VnZ60zLCAIAgCAIAgCAwdQ0yveH963D+ge3Yj+q4XY8LV7SO1WROp+yarqmhT1Q48nbQ97mj9wsm7Ftqe0atOXXZwzRdX4UrTl0lI/N5TvyD1He7u9y9uJ1i2n2bfaj9zz5PSqrfbrfhl9jULtGzQl7O1EYyeh6td5FfS0ZNWRHdb3/AJMC/Hsolqxa/wAGNn2ru+O5xCAIAgCAIAgCAIAg79jM07TLeoyYqxZb3yHZo968uTmU4y3Y/wBvM9GNi3ZD/trj18jctH4XrVCyWwPnE/cXD0Wn2Dx9pXzWX1a69eGHsx+/8/g+gx+m0Ue1P2n9v4/JvOmcPz2A18o7GP2jc+QXCnCnZzLhfcvfmxhxHlm0UqFek3EEeD3uO5K1KqIVLUUZdl07HuTMtdjkEAQBAEAQBAEAQHBGfJQCI1LQK1vL4h2Up729CfJeS/DhZyuGeujMnXw+UafrGhviaYbtcPidsMjmaVlSruxp+KPHzRrQuqyI+F8/JmkatwoW80mnPHiYnn9j/VbWH1vSUL1+/wCTLy+j73Ol/t+DV5YZIJDHNG6OQdWubghfQV2QsipQe0YUoShLwzWmUK5UIAgCAIB/9hAXa1ea1KIq0T5XnuaOnme5crrq6Y+Kx6X+/wAnSqqdsvDBbZtekcJsbyy6g7tHfwm+qPM96+dyuuTfs4/HzN7G6PBe1fy/Q3jSNDlsBra8QjhHQ4w0D2eKyqqLbpb+7NC3Jrpj4fsjbdN0WtSAdy9pL/qcOnktanErq51tmTdl2W8dkSo6L1HlCAIAgCAIAgCAIAgCAIAgKHxtewte0OaeoIyoaTWmSm1yjX9T4aZIHSUiGv6ljjsfJZ1+AnzWaFGe48WGm6zobJ8w36xBHTIwW+RXiqtvxJew9f4f7GhOFGVDU1v/AD/JpOq8MWKhdJUPbxf6f84/qvocTrNVns3ey/sYeV0i2HtU+0vv/wDSBILSQQQR1BW15bMjWu5wgCAqjY+RzWsaS49ABklVlKMVtvSJjFyekuTYdJ4VnnxJfJiZ1ETT6R8/BYeX1uEG44/L9fI2MXpEpLxX8L0/Ju+kaJgCChVDQOoaOnmVgt3ZU9y22bW6cWGopJG46bw7FDiS3iSTryj1R/VaFGDGPNnJm3Z0pcQ4ROsbytAAAA6ABaCSS0jwNtlSAIAgCAIAgCAIAgCAIAgCAIAgOD0Qh8GParQ2o+znjDmnb2hc51xsWpIvGyVTTizR9VqRV7MkUYJa0jGVgZFarm4x7I+gx7ZTitmra7pNO3BJLJHyytGRIzY/8+9enAz76LFCL4fkzlmYdN8HKS59UdfkYJHgV9uz5ARHnsRRnYOeG5HUAqknqPBMeZaOyNJ0inRaBBF6XfI7dx96+Hyc27Kl/cfHp5H2ePiVY0f7a59fM2fRKMNy4Ipebk5c4aVGLTGyzwtlMu6VVfiibpXgirxhkMbWNHcAtuuMUtJaMKUnJ7ky8OuF0K7OUAQBAEAQBAEAQH//2Q==;fontFamily=Georgia;fontSize=10;" parent="1" vertex="1"><mxGeometry x="383.98" y="657.6100000000001" width="60.69" height="43.39" as="geometry"/></mxCell><mxCell id="tUA2d2M24Zf1GxSSOIwZ-33" value="" style="endArrow=classic;html=1;rounded=0;fontFamily=Georgia;fontSize=10;entryX=0.5;entryY=1;entryDx=0;entryDy=0;" parent="1" source="tUA2d2M24Zf1GxSSOIwZ-24" target="tUA2d2M24Zf1GxSSOIwZ-2" edge="1"><mxGeometry width="50" height="50" relative="1" as="geometry"><mxPoint x="263.3299999999999" y="316" as="sourcePoint"/><mxPoint x="523.3299999999999" y="505" as="targetPoint"/><Array as="points"><mxPoint x="653.3299999999999" y="506"/></Array></mxGeometry></mxCell><mxCell id="tUA2d2M24Zf1GxSSOIwZ-34" value="" style="endArrow=classic;html=1;rounded=0;fontSize=10;fontFamily=Georgia;" parent="1" source="tUA2d2M24Zf1GxSSOIwZ-29" target="tUA2d2M24Zf1GxSSOIwZ-31" edge="1"><mxGeometry width="50" height="50" relative="1" as="geometry"><mxPoint x="273.3299999999999" y="296" as="sourcePoint"/><mxPoint x="323.3299999999999" y="246" as="targetPoint"/></mxGeometry></mxCell><mxCell id="tUA2d2M24Zf1GxSSOIwZ-35" value="Leadership Dashboards" style="text;html=1;align=center;verticalAlign=middle;whiteSpace=wrap;rounded=0;fontSize=10;fontFamily=Georgia;" parent="1" vertex="1"><mxGeometry x="368.3299999999999" y="717.6100000000001" width="140" height="20" as="geometry"/></mxCell><mxCell id="tUA2d2M24Zf1GxSSOIwZ-36" value="Operational Support Teasm Dashboards" style="text;html=1;align=center;verticalAlign=middle;whiteSpace=wrap;rounded=0;fontSize=10;fontFamily=Georgia;" parent="1" vertex="1"><mxGeometry x="432.3299999999999" y="250.81999999999994" width="220" height="20" as="geometry"/></mxCell><mxCell id="tUA2d2M24Zf1GxSSOIwZ-37" value="" style="shape=image;verticalLabelPosition=bottom;labelBackgroundColor=default;verticalAlign=top;aspect=fixed;imageAspect=0;image=https://www.svgrepo.com/show/354111/new-relic.svg;fontSize=10;fontFamily=Georgia;" parent="1" vertex="1"><mxGeometry x="592.6699999999998" y="272.79999999999995" width="50" height="50" as="geometry"/></mxCell><mxCell id="tUA2d2M24Zf1GxSSOIwZ-38" value="" style="shape=image;verticalLabelPosition=bottom;labelBackgroundColor=default;verticalAlign=top;aspect=fixed;imageAspect=0;image=https://www.pinclipart.com/picdir/big/129-1298432_splunk-icon-free-png-and-svg-download-carnival.png;fontSize=10;fontFamily=Georgia;" parent="1" vertex="1"><mxGeometry x="654.26" y="289.79999999999995" width="72.07" height="20" as="geometry"/></mxCell><mxCell id="tUA2d2M24Zf1GxSSOIwZ-39" value="" style="sketch=0;outlineConnect=0;fontColor=#232F3E;gradientColor=none;strokeColor=#ffffff;fillColor=#232F3E;dashed=0;verticalLabelPosition=middle;verticalAlign=bottom;align=center;html=1;whiteSpace=wrap;fontSize=10;fontStyle=1;spacing=3;shape=mxgraph.aws4.productIcon;prIcon=mxgraph.aws4.athena;fontFamily=Georgia;" parent="1" vertex="1"><mxGeometry x="464.3299999999999" y="657.6100000000001" width="47" height="36" as="geometry"/></mxCell><mxCell id="tUA2d2M24Zf1GxSSOIwZ-40" value="" style="shape=image;verticalLabelPosition=bottom;labelBackgroundColor=default;verticalAlign=top;aspect=fixed;imageAspect=0;image=https://www.nrb.be/sites/default/files/dynatrace_logo_color_positive_vertical.png;fontSize=10;fontFamily=Georgia;" parent="1" vertex="1"><mxGeometry x="523.3299999999999" y="270.81999999999994" width="61.97" height="61.97" as="geometry"/></mxCell><mxCell id="tUA2d2M24Zf1GxSSOIwZ-41" value="" style="sketch=0;outlineConnect=0;fontColor=#232F3E;gradientColor=none;strokeColor=#ffffff;fillColor=#232F3E;dashed=0;verticalLabelPosition=middle;verticalAlign=bottom;align=center;html=1;whiteSpace=wrap;fontSize=10;fontStyle=1;spacing=3;shape=mxgraph.aws4.productIcon;prIcon=mxgraph.aws4.cloudwatch;fontFamily=Georgia;" parent="1" vertex="1"><mxGeometry x="743.3299999999999" y="274.79999999999995" width="53" height="50" as="geometry"/></mxCell><mxCell id="tUA2d2M24Zf1GxSSOIwZ-42" value="L2(PDs, EMail, SMS)" style="rounded=1;whiteSpace=wrap;html=1;fontFamily=Georgia;fontSize=10;" parent="1" vertex="1"><mxGeometry x="603.3300000000002" y="136" width="100" height="30" as="geometry"/></mxCell><mxCell id="tUA2d2M24Zf1GxSSOIwZ-43" value="" style="endArrow=classic;html=1;rounded=0;fontSize=10;fontFamily=Georgia;" parent="1" source="tUA2d2M24Zf1GxSSOIwZ-2" target="tUA2d2M24Zf1GxSSOIwZ-42" edge="1"><mxGeometry width="50" height="50" relative="1" as="geometry"><mxPoint x="373.3299999999999" y="746" as="sourcePoint"/><mxPoint x="423.3299999999999" y="696" as="targetPoint"/></mxGeometry></mxCell><mxCell id="tUA2d2M24Zf1GxSSOIwZ-44" value="" style="image;aspect=fixed;html=1;points=[];align=center;fontSize=10;image=img/lib/azure2/other/Azure_Monitor_Dashboard.svg;fontFamily=Georgia;" parent="1" vertex="1"><mxGeometry x="755.8299999999999" y="237.18000000000006" width="40.5" height="37.64" as="geometry"/></mxCell><mxCell id="tUA2d2M24Zf1GxSSOIwZ-45" value="" style="endArrow=classic;html=1;rounded=0;exitX=0.5;exitY=1;exitDx=0;exitDy=0;fontSize=10;fontFamily=Georgia;entryX=0.5;entryY=0;entryDx=0;entryDy=0;" parent="1" source="tUA2d2M24Zf1GxSSOIwZ-31" target="tUA2d2M24Zf1GxSSOIwZ-48" edge="1"><mxGeometry width="50" height="50" relative="1" as="geometry"><mxPoint x="283.3299999999999" y="822" as="sourcePoint"/><mxPoint x="237.32999999999993" y="712" as="targetPoint"/><Array as="points"/></mxGeometry></mxCell><mxCell id="tUA2d2M24Zf1GxSSOIwZ-46" value="Leadership Team" style="sketch=0;outlineConnect=0;fontColor=#232F3E;gradientColor=none;strokeColor=#232F3E;fillColor=#ffffff;dashed=0;verticalLabelPosition=bottom;verticalAlign=top;align=center;html=1;fontSize=10;fontStyle=0;aspect=fixed;shape=mxgraph.aws4.resourceIcon;resIcon=mxgraph.aws4.users;fontFamily=Georgia;" parent="1" vertex="1"><mxGeometry x="487.8299999999999" y="827" width="50" height="50" as="geometry"/></mxCell><mxCell id="tUA2d2M24Zf1GxSSOIwZ-47" value="" style="endArrow=classic;html=1;rounded=0;entryX=0.75;entryY=1;entryDx=0;entryDy=0;fontSize=10;fontFamily=Georgia;" parent="1" source="tUA2d2M24Zf1GxSSOIwZ-46" edge="1"><mxGeometry width="50" height="50" relative="1" as="geometry"><mxPoint x="540.3" y="736.8255729930156" as="sourcePoint"/><mxPoint x="449.3299999999997" y="737.6100000000004" as="targetPoint"/><Array as="points"><mxPoint x="449.3299999999999" y="816"/></Array></mxGeometry></mxCell><mxCell id="tUA2d2M24Zf1GxSSOIwZ-48" value="A" style="ellipse;whiteSpace=wrap;html=1;aspect=fixed;fontSize=10;fontFamily=Georgia;" parent="1" vertex="1"><mxGeometry x="338.3299999999999" y="672" width="30" height="30" as="geometry"/></mxCell><mxCell id="tUA2d2M24Zf1GxSSOIwZ-49" value="MOPL Model" style="rounded=0;whiteSpace=wrap;html=1;fontSize=10;fontFamily=Georgia;" parent="1" vertex="1"><mxGeometry x="352.3299999999999" y="303.61" width="120" height="19" as="geometry"/></mxCell><mxCell id="tUA2d2M24Zf1GxSSOIwZ-50" value="" style="edgeStyle=orthogonalEdgeStyle;rounded=0;orthogonalLoop=1;jettySize=auto;html=1;" parent="1" target="tUA2d2M24Zf1GxSSOIwZ-36" edge="1"><mxGeometry relative="1" as="geometry"><mxPoint x="468.3299999999999" y="206" as="sourcePoint"/></mxGeometry></mxCell><mxCell id="tUA2d2M24Zf1GxSSOIwZ-51" value="Operational Support Team" style="sketch=0;outlineConnect=0;fontColor=#232F3E;gradientColor=none;strokeColor=#232F3E;fillColor=#ffffff;dashed=0;verticalLabelPosition=bottom;verticalAlign=top;align=center;html=1;fontSize=10;fontStyle=0;aspect=fixed;shape=mxgraph.aws4.resourceIcon;resIcon=mxgraph.aws4.users;fontFamily=Georgia;" parent="1" vertex="1"><mxGeometry x="443.3299999999999" y="130" width="50" height="50" as="geometry"/></mxCell><mxCell id="tUA2d2M24Zf1GxSSOIwZ-52" value="" style="endArrow=classic;html=1;rounded=0;" parent="1" source="tUA2d2M24Zf1GxSSOIwZ-51" edge="1"><mxGeometry width="50" height="50" relative="1" as="geometry"><mxPoint x="237.32999999999993" y="246" as="sourcePoint"/><mxPoint x="537.3299999999999" y="155" as="targetPoint"/></mxGeometry></mxCell><mxCell id="tUA2d2M24Zf1GxSSOIwZ-53" value="A" style="ellipse;whiteSpace=wrap;html=1;aspect=fixed;fontSize=10;fontFamily=Georgia;" parent="1" vertex="1"><mxGeometry x="537.8299999999999" y="140" width="30" height="30" as="geometry"/></mxCell><mxCell id="tUA2d2M24Zf1GxSSOIwZ-54" value="Event Driven Architecture for Realtime Devices Management(MOPL Model)" style="rounded=0;whiteSpace=wrap;html=1;fontFamily=Lucida Console;fontSize=22;fontColor=#FFFFFF;fillColor=#000099;" parent="1" vertex="1"><mxGeometry x="25.830000000000013" y="50" width="730" height="40" as="geometry"/></mxCell><mxCell id="tUA2d2M24Zf1GxSSOIwZ-55" value="Data Tranformation(Error Handling)&amp;nbsp;" style="text;html=1;align=center;verticalAlign=middle;whiteSpace=wrap;rounded=0;fontSize=9;fontFamily=Georgia;" parent="1" vertex="1"><mxGeometry x="163.13000000000002" y="556" width="122.67" height="17.39" as="geometry"/></mxCell><mxCell id="tUA2d2M24Zf1GxSSOIwZ-56" value="Data Transfers/Streaming&amp;nbsp;" style="text;html=1;align=center;verticalAlign=middle;whiteSpace=wrap;rounded=0;fontSize=9;fontFamily=Georgia;" parent="1" vertex="1"><mxGeometry x="381.04" y="407.61" width="66.58" height="17.39" as="geometry"/></mxCell></root></mxGraphModel></diagram><diagram id="mE9hYD98_oArz-QRKWjF" name="MAIM"><mxGraphModel dx="544" dy="427" grid="0" gridSize="10" guides="1" tooltips="1" connect="1" arrows="1" fold="1" page="1" pageScale="1" pageWidth="850" pageHeight="1100" math="0" shadow="0"><root><mxCell id="0"/><mxCell id="1" parent="0"/><mxCell id="1aQJizUw2zjihYZcxIvp-152" value="" style="rounded=1;whiteSpace=wrap;html=1;dashed=1;dashPattern=8 8;" parent="1" vertex="1"><mxGeometry x="157.33" y="333" width="361.67" height="277" as="geometry"/></mxCell><mxCell id="1aQJizUw2zjihYZcxIvp-153" value="" style="rounded=1;whiteSpace=wrap;html=1;dashed=1;dashPattern=8 8;" parent="1" vertex="1"><mxGeometry x="565" y="576" width="279" height="360" as="geometry"/></mxCell><mxCell id="1aQJizUw2zjihYZcxIvp-154" value="" style="rounded=1;whiteSpace=wrap;html=1;dashed=1;dashPattern=8 8;fontSize=10;fontFamily=Georgia;" parent="1" vertex="1"><mxGeometry x="513.3299999999999" y="286" width="300" height="70.8" as="geometry"/></mxCell><mxCell id="1aQJizUw2zjihYZcxIvp-155" value="" style="rounded=1;whiteSpace=wrap;html=1;dashed=1;dashPattern=8 8;fontSize=10;fontFamily=Georgia;" parent="1" vertex="1"><mxGeometry x="393.3299999999999" y="666" width="151" height="71.61" as="geometry"/></mxCell><mxCell id="1aQJizUw2zjihYZcxIvp-156" value="" style="endArrow=classic;html=1;rounded=0;fontFamily=Georgia;fontSize=10;entryX=0.5;entryY=0;entryDx=0;entryDy=0;" parent="1" source="1aQJizUw2zjihYZcxIvp-176" target="1aQJizUw2zjihYZcxIvp-155" edge="1"><mxGeometry width="50" height="50" relative="1" as="geometry"><mxPoint x="463.3299999999999" y="296" as="sourcePoint"/><mxPoint x="513.3299999999999" y="246" as="targetPoint"/><Array as="points"/></mxGeometry></mxCell><mxCell id="1aQJizUw2zjihYZcxIvp-157" value="" style="shape=image;verticalLabelPosition=bottom;labelBackgroundColor=default;verticalAlign=top;aspect=fixed;imageAspect=0;image=data:image/png,iVBORw0KGgoAAAANSUhEUgAAAMwAAADACAMAAAB/Pny7AAAAmVBMVEX///8JR008rLYAMTkAJi/GzM2gqav7+/sAQ0oBRUsNRk2tuLrd4uIYS1IAPkUAOD/x8/O1wMFeeHt0hYjp7O1Tb3IRQEcuqLJJsLmMyc/i8PKAj5J/w8rs9fZyvsXZ7O6Bl5sgUlhJcHRAY2c2WF1lhIijsbPQ2dqVqasAHyp1jI+Tn6I0YGUATVO23OAqUFaf0tfI5OdfuMBEIlKZAAAIKUlEQVR4nO2d6XqqMBCGRcoJVGWpVtSKYlW0mwXv/+IOWsUZSGQxIPLk+9k0Mi8kYTIzQKvFS113of+43WQDsd5V9d0itC4/+oLW5c4iW1nWJE2Wt3Gju98fuiTpH99xo6MuHoXzniKeoUoHqUMPt5gL49ggGQtsM9nqpy5GzWg2Pf3PZElfblDLp3xqkGQXNSirqMsv7nJnES8yWTK+4Hk2h9q5QRuasMuXEXWp10Az1xfLjDdoswJhFNAw+ARd1mb8F+8o80W/WNYfgBYLwligYdC/wOgvAqYkCRgBU4EEjICpQAJGwFQgASNgKpCAETAVqFEwBMFAy5gwJoK5SwzA3FhWJylvqV4se/VAi/scNUjPLuzyeuFXl178F0NZyqbEC0aUr/7raiE9JyRpEhRsydSg0X5zsXrtfynlXDPSeVnpuq6qGkXIYmYLanhmtpykquHhVi+dEnA2Lz1dlSqXqvdeuIcIt0P1DihHHHW45cuyftLSD1uWtKc1VxY5/ZBlSuZHQ1wj/XjlynB5LQPe8E7T5aJEpqSoNks9/WhlK54pKSjTrQFLSOPycAeUxd0H2UHqSkm3NU0wKXT8UfmpIsn4JOIkVjF18Yx5+t5aSiWytt9P8Mj68va0tAJvMdqTRyrz1gnx0K1avnmckS2A0W7/vXxSZECTzMrnFdwQSvK/ijdR5B84lcZ6kN7jquCUUTmM2tyHB7u+95thwMJscFnqc8kEnpS6uPVcdnsXGJnD4phT5OsyztQeV5iqpwyeNAIGScDwk4BhSsDwk4BhSsDwk4BhSsDwk4BhSsDwk4Bh6lFhyKCb0EDpaXWB0XoKzUKqTZt/69ekliCPemcY6XlJMXD9j5IesL5lnSapPjASzT5DXlrxXlYvPXFxdxi69EUszmq+ZkjC1BRG0l9xPK/zmyGbXFcY7beDOmXKjtUVRtJd1OmtGIyz8/15PvPCLmOW/J1TDOYNdXKzpPriMM7UPqgd5EAZ29c1xTiFroz1m4EmBuOM7PZBtp2ZZjL768KWPUI0mWDUX7w4w1K+rDDTyDB7ko2FjNNYwt+a5obR+7Hhv1mmV2FgmInNMICteTpL7MxkgTGSJQKbvmxQpMM8HILZActG8YlL1y4TzI4Fo+k0C2VaCdeg8/WWVF9iOZpwyIyyjTM/E8yYAaNJfYqBXx16Ps2kaMP0mquH6W1oFmY68p/Y+5kCMEEmGLg2VrU5KwBzXsyvw8CD1Bgmy6VB87/WMMS3r+PYto871BgmvDaz0UkI4vzHWcyZqDdMeLOdHxUAz8beB39/TNyu6g5zkjMFMDPW3uIhYVgehIBhSsBkUdkwipWUd4tv5gTBLggYbblhtJ5HMZBezueF/n5SQ+YWIAWGBNPRaSvcnu2Sq1V+GEkb0oKABqV8O8OjCzlgiN8G9/rD3j7+HwVg6KI89pAl1pQZhuwSXkvop2CDucEcivpwp80qd0CDDTOZ0hwwe4SCUhxh1BXea26fc0c0mTDzPd2ZtJFDzBFGe8ZPCxUIArJgWCyhzW1AwxEmHgTkBzNhshxG2oWmRBhuw4xQ50tk9T6aNyUOM24LQEo0yR6fzS5xAWhleRIrA4yZui8+775KXJp53TRTg0lRZLzMm2ar1eHgzpAYS3jvTNAFhWGyuzMtHo4mnjF2e+/v/BmOL9k+KQiTx9GkK98WAC3L4c7++MfJFMHsnYIwFe9n0CizZ+eJhDMZ9vwxYFDKArhiKMd0Cr/WHgYFLGHOBs6l06SpPQya/9CrnO8BzPgBYaDDD8fZQ8LAQCv0pB8SBkbAAxBZfpQ5g1YzGHL1H3ABcNC9/nJp4IV5mPtMCxk9OgeY8N7zlBovG+b2BC2+1bf9ueM48x1yzs6GF/HNsidoBx335tR5rGrBHs3GoZ+JHc1dYUeTmjp3aalz5SVnUQN1PxMPANiJANrZyymyBcha1JC/3IQKk5qBPe8AOO40E+UmBQqBqDDkSmzmaHYU0eC4bY4XAhUo0aIHNNJqfSKPjWdAI1aiVaB4jhFquhoFsKfRL3CNm7moE78g4DUaaHSJQcACBafQaFii5TAr5Ow9iOIimCke9DdemQKlwHDh2iMD/GRI5mBx7PyDkxEtccVg4qXARYq0Lzd2XO/SIjvKmmaPcCFJ6LDZUROzArdQkXZLWeQunw/OFyBZ1Tj39+huadujabwqlexO/e02JUuYAyZRPh8uzkuZFgS89mBDeAGOGlOmb+DP2lF9b3s/DpL/Q/y/pOfIZ03/og82FHrkZO5P9zOanQczJsFuPJ3tZ7OxHySLYo7/Mvdn+6kfXKljL/jISaGHgYgzmVypNXUOzY7DNjbsf6W1Ffeasz8MRNejPqZFlYDhJwHDlIDhJwHDlIDhJwHDlIDhJwHDlIDhJwHDlIDhpxJhHv7Vk/d9KSj8UOXtLwUdvDfoda2NepFuo15x3KiXT9/xteAu/9eCN+qF7S0lS/12+eLyKv1mfeSgUZ+faNaHQZr1yZZGfUznQPPRnM8cHZ7ibM4HqJr1abBWoz7adsBpzuf0jjI3SkM+dMjWY36CkqFGfRxUwAiYCiRgBEwFEjACpgIJGAFTgQSMgKlAAqa2MOuLZcYbtEyBMDApAfPIxrpOMMS7xG9xUsiEMNBkmMSSvTrFAFqb3/M402NJoc8IU/5EDcoq6vJbQpjvBhHP+As2qcPYWTYXpytgLMxYl1OmRDXqdWGONLImqXIyv939/ggvgf7xHc+vkq0sq5Im144lVNdd6D8upe6AWO+q+m5RLB64P/rC5Vf28R8AD2gjszpefQAAAABJRU5ErkJggg==;fontFamily=Georgia;fontSize=10;" parent="1" vertex="1"><mxGeometry x="40.329999999999984" y="276" width="34" height="32" as="geometry"/></mxCell><mxCell id="1aQJizUw2zjihYZcxIvp-158" value="" style="html=1;verticalLabelPosition=bottom;align=center;labelBackgroundColor=#ffffff;verticalAlign=top;strokeWidth=2;strokeColor=#0080F0;shadow=0;dashed=0;shape=mxgraph.ios7.icons.smartphone;fontFamily=Georgia;fontSize=10;" parent="1" vertex="1"><mxGeometry x="50.15999999999997" y="347.61" width="18" height="30" as="geometry"/></mxCell><mxCell id="1aQJizUw2zjihYZcxIvp-159" value="" style="shape=image;verticalLabelPosition=bottom;labelBackgroundColor=default;verticalAlign=top;aspect=fixed;imageAspect=0;image=data:image/png,iVBORw0KGgoAAAANSUhEUgAAARgAAAC0CAMAAAB4+cOfAAACClBMVEX//////f////4ArAD9///+pQH///z6////+///GyIAdv7//fuvqwD///oApgD6ogD/AAAAowAArQD7/vH+1dj4//mnAOyrpADr7M/1/v+4Y+7/y37/9e6wsQD/+P//w3wAbvnR5vt+0H1+y2//oqDx4/2lGu/LkfekAOTQyIDPy3b37PP5ARb/7tLS7tLu9+z5kZsAav+Ds/b74+L8GSf8h4fouvOyP+xgo/ifAPG7XPXr5sL+am37v7/7PkKuogDH2vsAe/Pp0vn94cD8joPJzmz9ry38e3qTvv3c16X9nQD+47e7ukXf9uH79uSpG+W2tC30qAD/8uL9xGfp////zZb8uUXsxPj904/2/+j/4LbE58GR2pOFxPcAb+wohP7e3Z3/s0//qrT9XWDNk+u/dvLUq+r2uzf1anLpAAClANn64KPxsQD6tbT/Ulz+592zU+TRqPTdrd2YFdH52ID/HjjqcniiQd70w061cO3KcuLPlvjwu8f/PU726fz/VmH7uln8qDeqRvT7r57twrbmISDeyuzWier2fHH40G3ul4T2xT/9xoysVNyzAOLLiPv93Y3/ZXr/hJNOl/Th2rkuhvG17LdHv0t0oulHtkVBv0EAXvrI3vmRyYdlzmhBuEhxvvy0zP1FjeLW2YfMy0ye05rB27NzwXeRngDT4v/G4syD3nyo8afK7fpiRyLKAAAgAElEQVR4nO19i38Tx7n2zmq8M9ZodBuP5AV5I9vYEb4pBgMW4maoAcuWbGMHY2yMWy6BECC0oaXpCaVp2tOe7/Skp65NoMQpH6H52lP+x++dlSWv1ivZlun5/XqOn1xkSavZnWff68w7s5q2i13sYhe72MUudrGLXexiF1sD59JgCDs+QYCdt2tgomBiXGqbFIFr/mwrQASuWX8bF1kLFHFucPbW2yUYUUQp1crE4CJ23jRjDFtMyp23VAO6wLqOpem4/OL/d9oDZIJwYCJNou6srr0NRtYgJBdSCF75qa6/tROAuDPCzlya+v6TqcsXMKaEEdTbewbQe6Y3gQ1U57kQAb05+INz1+4de+84M7GBLfN+03EbTU0GqbcLxOBAszVzfc/RozdudmiSG1hqp0/PKJw+bWEDbmmdbVd2AJmXQqFQDv6bDE01Y8bFI/tdKJfLfXCBU6O+dk3LOHhr4HZY4faJH3CLmsfX3obDA98z6rUOnCE2e3M8k8nEYvC/PR0aFd17YrEPP4R3qcyRDknYWyGGFC6GJnPff//OpXfOhkINd0xzKhf6aBLw0UeTuYsC1UkMmr7bAwyc27fvvWvwx700ud94e+BhEY3hu2ad18ukYX0eS3348fUHDz498mEs9UMhvozFOjs7xwE/io1TQUmdbTuBeydzDe8UTIIJF6NnQ7lPEpOTdxAH14HQaEPoQr0dIIfCPZ8dl2BisJH4cWP44f3j4RMJZWY4MX4cPld3u+L0T8YzXz7mXHDDmvlJLPMuHU9d55bggJnO1GlBd2SSdQEemZHR0GTDGaJxDTwrNxOPcqF3PmrolUrQpSyEQr31nERSk/34dvhWN5heDemI4OMD4RPHeq5JRQxQ9V74WD13lYKXME6Px1Izys4iZBBu/fQ/Yp+OZ04LQ+q6ThKdmdMc78xXIS4wuRxqCPWWrhEJKn6bAwNTZIOjAnwp6zAGlNy/Fu45xEu6Dv6o6URPY8+1kloCMfXYAYGlOBzLHJnhonQmPfFlKgNiArzAW0w7Y6cNvjPfxCSVe0OhDwpWyedRLgn6fShUSUwdTeODn4XD+0y6/gkyD37Ws2NimCF+lokd6VDSXvyEU8EfdI6X2Fgjpk6zuAaQw0e5hinGzRLBgjIizMu5XFFM6iYGNw3c7jluIsdPJaP8WPhaSTbrJIbwL2Opo90cpH2t75RjLmcysdPyLREjieAXvp+b3Is36DouZJGmzlIHMRAFURMfD98eOLjxS/4v3TsghoG17f5dJvYpcl8R0TpmSte+U2IQt0jvB6HQHeKRbSACWYhWFzGSIdN8D5zzQY90SErTWvuzDmIQlR0fZ1LXpSCue4mJKJmcHRMjTe3MZC40ipjc6B0Mzm3rUAcxBp1OnOsJH0uA3Gz4kiKyA4kh8vR45kcznFhUVH7DISFb+3NHxBga0ph5J5f7qBcLgljpU1xKIsGd2k1vlxjdgKAlcSysYhSv7A7jshZslxgmkbjZGQN3ZDDhFkZJ8FuRGA4JmPl+qOHiBaewQIDnvtRtEoN1Cr7n3u3wPkk3O3a7xGBLXP9R7MhpbZPgYUfEIEHEVKjhiZDEkZvi0VHscv/bJMagptnUGG68a1qb/ma7xAgNov493VzyfyAxhnbhSSj0jolnKwZgLk65D7SJubAdYu5CfNtE0OZB7XaJ6f5pKnUDAi+0SeYGxGTqC/Ak5fqFD3KhOybl1Pl7fHHKLTEMFxomeyXDxDXq4XVFEOwb+3rCnx0kSOqbdnpf+JxmDx9sDp1K/fFPMh9e10RxUKcWOIUgGPq4hXZdSEgOWePk6EbrCMRU3g1IcQqTuSkDxHfzDkDeJb8X7vl5ekudBYl52GRSsqktUmCiYzwz/kBsfqSyRanYpwlRRx4m8eVQ6KNewpi7AxuJwZL9Npf7LSQom54IUzPxn+HwIQNZW8qa7z/sabw7vbVj+eFUJvVruaWBV2FA5rTn8ZZIdOHSZO7sBWkZG9RjAzGGSqb+fTJ09oK56Z1VqRBkR5KwzT2SAr5/Ihx+z9xKZ/mDVGz8scBbIoYK43oMkqmtHLsOFQxMhXKPCrYxweJyFqGylSdPpuSaaZDSwL13mBITrN0JQbwjIear3q4avGl6GO65q5VIMS070zAQFapNKu3G0PrQGkRK10DAqFlL8wzGqBRfpmJHrcovdI1SxtTwCxxB3WbnZmcK4kC4JrxV50R44UkutJejotNDF0O9hIi1ZjEQU+pWwhxteGLa8jiLRicnQ6MEcquq7UpLuaOB46bJ1hozpO2ZDCIxLR6geJXILJ3CQNP8VhgiZLPGoBJHhNM9mcwey3VusGcOuKg1xMx4pvOHknNjq44PN5/NTb4PvxC2WEr5JDSKS4YVP9lbFgqSDT1JF8d6scAXfjEZusOM6iqCCbijE/cJLc9MUSwPqr9R4r56YfygYowmDpZYwDpC0/Cre/drmC8q+eOjqdS7TLp6CIkM7VgD2hDyEXHw8w8zDyjjWyEGdAb3np0MXTYlBKg2l1QkpiZ7CVctU80806tMIWTxHGdzU/B/RYwB2YOR+H4u9Immw3k8ZBMzgsEdXTtIpWFAyxqDfkzL459xQvH03XsSGTr55c9NuPn47jVzLQWhOgNRv9sY/tVBTLy8O4ashIjTn8cyDzgpz3ih4vwIaOjp8Vgmlcp0HumwnbjjynToabfikxqcbR7qYW6OToYael0fXmy4AE5TMKGUiwpoCfrZm3vilF3dLEyFQk8gOnDfOdVDNJ1Y0wklcMhAJsYJ64uBnnsJyLMHeo51E7wvfPsaYWRf4+1jXCu7Q07N4409A8eJaW1oVuMWo2Lmw1jqsPO+IyzVYLTUxM9Sh399+vSvH3Qe5lzCR1w6KcDWjdiHewpys3hQnUjNkZxNuBQaiYsNvZgZwsSJQoIgkB5DjuaeMOJokEoTXcqFLl4wPaY8CDl4D/zLtImZLHaWfSGs6YHGxvA+s/tXPfBCDvb8qjH8A7M73DgQvovL7EpIIRIPw+G7mofXZiTNH4B/mamwIViimZmZw/Dfpx/P/Hpm5teHj/yrPZ90+LTuvGvc5Nczqc8fS7bpuDiegq4JdzAgKH+0Fwx44v0PJnOhhg/eL8Ahj55AMuW8TRwJeifXcLYXbZQYfF+5I2wh2+9AfxI/P3Hi+P2egYHG39z6TWNjT8+xWz8eGBjouXXtPfiwZ59prifxCFkCaD3k4YnBkf1rJnX0McfOm2HoD1IZG7HOzkwqlunsjBXff3jYqTVUCONmZ+bIjMA1g2BBEqAMU3yDYGEwEQVi3ZlUs20NoVDD2cvYLAhwJw4KCEZYkFGIf84QaTmMJXyOjz8MNzZhTOAXtqczwY7su3arsXGg8dzAvYfAzK1f/Rzkp+dYI3yo5IeUDYb6EWaHwuFbtCK/wgYDlbwRi92wOK60EuJIbLyIVPGlc+1tbI9T5dTfcqYzNn4YrpxUj4BI89nJ3F7dO2Qg/LehhtDF9y8/Ar/cMHkJopKNB3FmZcGl3cHSaX0wudtz+8R9Z2Pm/Ye/vPdv+3pAh241fjbQA4wM3FPEXOs51mMTY7juIX8PnFPCGUMajMhucNPXLeHqE+Wfd1bBHrfbRLzjSCr1gEvKquZXBeDlDq6SQeBPcrmzvbPZy09yDQ25htAlD+kDH8GJGiK+bDrZNYGXz+47x+oY4seP3U0kgIPGQwebGoGYPySOK0beu/AvYU9iwNmHb99LOC6OU2kdzaQeaNLdWWkcWVMdF2KpPcRlTYQpHh+NATOIVbXAU7mG0aqpLOSUjxKXwcSA3DQofRrdeCAkwhAWJoC6C84hnIMD4WNp03lD4CzINK20Mie/AasLxBwiTTYxpMmbGI6mm26HbzkMsEH5p6kMGA3pzgMs8bjbG48fu3MRLCyR2BNTybZnvwk3e3O5O+6PkQ1sCfT9hkmyN5ebbFhD7v/g9QOcv8C48IvQVOnOqrqIQ+GH3kafhQcae86tEYOLxOAqxCjcDfc0gcUqzRWxx7HYA+FxI8Fvnrbn8mNFwYkpZJQV7uAeo0DYYkdSP9W8Y3ZJ8d7cRebdAW6Z2cnc6JkQWJcyMZMF785iE4NvKncLy8RA+LjnodsmRp4IH8JlkUba9djnCeRxHBDTkYp1fvwxGN3O8d+pl8z4x0fByj72IgbS4MOZH3V4UawmNPDZ3O83zh4VO0fNO7lJ8ZHSozJCo57HGhzj2YZQKUREKH08PJDw1s/tEmPuC1/jZqnghMojsZ/NehEjkXyc6fyYiU9jnTEwtx/Dy3XRfaSz0/IandLh5nVmZryHQ3VOJhvOOEkzBLLrghS4+e+5qURossHBS+6SRkvf97LysJ5uGIicnbxcJkb+QPXm7RDzRfhEAlLyUv/HUzPM7ZEUwNBZqdgRatyIjcc+5vQnsfHMdf1xZ+e4Ib3qeKQFHN+Unl4JcvPJhvvOsBAhNhWykZtE5juhqVGHuDQ0gGPXsh8VD4DYhxiOE+J1YjAz992+VyVP2y4x6IvwwwQqxY+Yp1KntSolgUasc5xqX8ZSnUc5O9KZij3QHsNH3nEcI/zj2HXv4i1If87m7ji/M2Y5pUQV2BFBzb0NobMNFcSE3gfDilTtHAGdxs6yNv6LUIkYIsldsL3eFn/bEnM3/BlIQ4ll/nnsJqFViem0tHdBYmxiOoGYjljnEc++qzRlPHbY21tzJqdyjyoGEakhWBEQyN5RProC0HcO6aQNvXKA/E4uVLLMoNQHe8LH347EmD8Pn5tGJeuLxY3UUcqqDEgAF93az1KpNWJSN21ivI9lxkwm1eE9F8WxPBMKXca61CCjUjeY81JRKcRtFLzSZKiSmF7QtvIRcI9UtR/HkB4XLuYelWtpwOIcC38mIMIEh+C6KVsmxlBjAwz/Etw1KWdiaPY0aIiQcBGMIsNF0DgQw6+D1V0j5jA/Hes8WnmMQSh0weDi8e9iv2PeagZWgE+FGi5Dci4M08Wdmnt71FDBSwhMjOssuhoVxSbJXsxNVkwzNQ2E7zVNmwhhV7tbJgaBB55O/6An/GOn4hDjRgoSAkMKuGrqEsojnbHH8nqqTMyMImaP65qxNCRoZsfHnR9WcUqaAYET3OmGs+/3Zu9ccIsnRPpnKgUmFMpubISDgxqdgi/POHmBjLEn3Hjri6Yvjrva3Sox5ODdpqZ9JyAlSDuvnqpg/j9+8mBm5gHogUsagZgO+cBJzEys80blMUgahw/PHP5yXI1zVYt8GZcSkuucKk/d62JfMKqT90M5JzEeuZJRyIUaoIHJUeIcuNCl2fQwHA73gCLUR4z2Y/XrcPgQMR3dR2CHxbsQ0sK/nwr3kPbRVKZDOImRYEdcxOii48NYLJWJHTktIImsmishjTdfOgvJ8zuuOyupKbn2SYmYEGRMezHECtzphsG49IZCZ89OjXr4CXL82IkTjeE6iSHHenpOnDjkUWSEjY4vfwLeeI8mXDfzRgZ8+UzJK43HOrSboHcuYrSOVOf4kaM3ae25bm4YqrhmKvSO6yRg3HrPCOuDdT26SOVoryTO2RJFTG6yl4HibnSKmGAGpqZ+Yn5jEewh6xSERmNfxvbobmK+VDWbFcQ88CbmNFgo6bZ+ruO4siZo7wZiuDnasJeJM6EyMaPCmlJlnI72bGI+KkhMvZSVSFPWTQw+Fv6eKb1qaSRDFhbXPYgBHZvRT6/HMY/1B2BJNhIT65bIsryCg3Ug8Ljg9VzEqPypN/ckAYHVoyIzoYZHknFuzx3Q8qyMrUqT3SB2HlUEanlJosdJDPyMJGxizPtOYryGHfCxnu8R5PY7NrgS23czG4m5Hovd1DvK7jrWrV+PZW5uJCbTDW1sbXYfiHHEeZgkyvMBd4rZEsQ7kK9geyYOiZLJsolpqHEKFzEQFypibp8jTTYxZpEYzcv4AjHVJ3+Y/q6HxFzPpB4YDmIs491UZqbyGJsYa8uroiqJgUQim3tCVWyGZy9dev/3ly5d+v2sPS8rgRlc1s5tEoN0k4Aq9fT8QSpVCh+iRWLM7RNjeBHzIBN7wB+vE4P4l7G3S4w2mlPzAYqKR7m19Sbv2PW9hD2ZPFM3MebB944ribk18J8DQMm1E8fUmO9/PrzlMeZbBzE3Y7HrvHudGM5vxDKnK4/ZGTGJD57wtfmAC+9fKsKejcQCs4sXy0PE2yRGM5tun2sc+FXjb3p+87CxcWCg516jmiW4rWYJevaRiqiiDmIOZzrfne1OgfGdFZ+rvFrs6Xy7xJAL5RHoUQj+7DVLd9YcDxa95fmf7RJDut/7ZU/jQM+5h/YsChCj5pV+fmJNYirGnusgZiYzfmTmX1OdneMPIDHoTF0/PN6ZcdV97FCVypV+uPD+J0pe9r5fHgJ11ORulxhqmgyMbvgPswcbexQx1wYGgBFx8DYQcxebOyRGeeqY4kWN944DM5nO8dTjymN2Rgxn5dn0C5PFcamPsqVQxTB5vV5JMtM8FG4MH+TyXLjn4b2efYfCPQMHzelr4Z5GZlVMW9VBTEdsHOhQo70/+lC9qAVcqe7KY3YoMesQl/Y+enLx0d5PvApRtysxAJPue9gNPzTfG5B/CB/Chz5LwKf40AlXB+ohpvtIJpZKpSCTAm7W/vzYvWb0LRGjC1KYyk1OceKuRleogxhpJpogWaDTiSZTEZNuUteIu5vc2X0dxIiOmcM2roOVKf454y66e2sSQwXqnZy8gJHHtH09xDCTqbXKiBJCgBgT2wYL0w3FfHUQg4iqMeNIdKTGO7huv3FPJr41YjDHkEBDOuSVjNZBjJqLRwjyKB2Rc+FDpLiIALMNs8R1EMMR5P4Yc6mIkUz9ydyDdG+NGE1lTSHvibZ6iHH+Goip/tM6iFmDoUMC3VFlkfL/amKMXWI8v9wlpjoxsdrE0P8eYmpUoe+EmHC9xOi7xNRBDN4l5h8vMRcmG5qx9KoyRxyP5iYT1ZmpSQxEvucw85olRZBU3YN0u+pPaxLDcXcq9mvT2/RZYibWSWtUJVaiJjFaQ+4Spl7rEpAkU7kpr3KVNdQkBt8ND0BG7VWjgVSt2hfVr6gmMRrnnbHrs1VUafbdzMd0awtWtM2I+W3ubEHzWhvGlSZdrrGEpiYxKDEQ/oGJPH7NiNwXHtiwbspxQC1iGOfXY0ceV6lkeDyeuanXWjFTgZrEsGYQGW4KhChyQtfUFiFna2hSbWI081C4R61mIwYzymC62p/puJo8qJMYbpDHqdgNTiR1T8hjzH4aG38s3w4x1LgUmnyUUAteiFmGlCYuXAw13Nkwt+5ATWIMnDhx++FxphFn2Ssxicbu/ip8jXmsIyihtioBfphJ/bRDCumC6Pjph+4JlZqorUoSXwrlJj+5DBh14M6jUCh3R20MVfWXNYnh1Dx4Ihy+tu/u8Qrc3XcvHP6su5aF3IwYTK7HYqlPHxyuxM09sVTmhzX43ICaxAhmanfO5kJu5HKhs1lLEzXksra7JpQkjvWEPdDzhzTyHOhYg/e8kvOa+c3xUmWrsxg68/lh4S7ZqYW9uanqJ8EMg9TfuXi2Er+4OHWGgQOptWKY3r5dw8YgE2Gz6Q/XTrhw7RBYHo3UIAbz65k9tVaXw2+7b9444saNm5a2hRXR68ju7a2xnkxTHtCUvLjYsAQhyKab15H3DiVqHkCxlKybJirATVJldUMJBun48rRnaZrzkg1GK6Guf5MrdsHEm6yhhyYpr4COa5cL2MCmWXtVEKEUE7C3677ONIFva5PdxxgRXJDq1S32uSV33ziqbXcLA0Q22RmBM8TV5hfrQGwLG01i4vaYG04MGoNBHdfbVRuHbVKjAXxyRFnt8zMuDKPiXhqE/wM2x9zFLnaxEyiniVQyYBuy8hY7O9otFww3soo+hWuIquUrAhUTAvvLOnbscAIZiOtrRhaMlg6uD2PDUJXJEHcYb8nKgPNUa3TT0h7foBYTkktlwra1yUslCMFsNv1ycGlp8HzrrECqQH/6xakiWvmWVovXALeEVvjj/rFvh19l1RJ7IL+QXUOztuXdCzYBpDFIrfOmxfkfE2SHMWZIuYP2SYK3DiaTyf7+/oX+oZdE6IkX/uSCf8EPnyQPbG13j+pAeuLbeDx+EhCfWKTYxNlAPBBXH8Vbhnk9W8h4gPe9bmv7bn4lrdnt8Xxf3kZ6B7rEjJdDyf6rg+evHFhO9icHpw1zYWHoKmB5+epC8uUOr5xnA8DI8KvFrjGg49tm3BwPBCaKiMcXcY3hjC0AQxwABmXlaSTo8wWDkeh8mkor/V0wGPX5fJFI9Fneqr4GtUa7wiL8fNK//FIaYAj4m6/8/qutL5NXp9ey9q/6B3ci7JDRLgbiEyNFcgtd8ZMTzSOBQMEOZFhhf3zMa7eF7YBh0J7ViC8SXG1rfxaM+KJzlvFd1KeIAqoi0VWD1kGM2o5h0O9fMpm9tI5Q45R/6OpScske1YEGz++IGB2zrnhgrMCpLeGcjrTEJ7oCE1pxrQwfUcTsaCNSpps4/zzie7aSsDRdzrYBI3+3fMH5tFSLcmbnfb4+q44eEJZeWvjT4LTUWPHKmWz1J4GpteEufWfEaLNj8UCXbb5VKxBTN08EgJuizUVvgRhDQ3PPfcHXmkUVFcTKR4O+tmhwTvk+TdK8L9i37V2DdUiL31z1J69IkEa7+/BCxfRyMvmWiCkAL4scMiluWxKKOAaqTq5JDDJGTu6IGI6wRCu+aGTF0Sf6NArGZk4tMNQRTwNH294a2xC4dWjB/5I7l2JhTUwv9Q+WDFa9xDDFRXYiHhhxfUEKXSfHhE0M03coMZC54te+4PO5ikV2sh0M75xat6kznq+DGMg7Xy74h14IUTECTsmsPPWmNHJcJzGGkodsSyCQdc/z6EiMNBfXb+6YGNOSX/t8zwuaWbHUBr+ORubUZEmdxGjgjvqX30BM5CzP4owiS1h8ZxLDERgQMCYF7oqw1G46anPyHRODDK4ztuoLtkHuXxGEIibmXnNlcesiBvzRAbAlJlW7PzrX36rAgIqSvaqDGDWGiIWxP37y2wLfMFKM1Nojw85odkSMzjQ0+zQYWa2xO1s9xCBKlpL9g5sGb/VIDOJc0uGTgeFNBuh2RAyhWh4iuHliVQ9T6iFGtC4n/efdD97YiDqIAV5sd/RK32S3sp2pkrYSDAZXIJ2uPgxYDzFvbHe0eYoFxGz3wjEHdxQILGpC+wdJDNhBDa8EoxDkCsO98agD2yIGDBWYkBcLSf8LbbNbCjgPIQ3esD1MdWCmMU1liVnwTLV50ZlUxNSRKiEk+Ouo71ke1R6M3g4xunrKAb+STC7/dUvJIUgMF1vYc6wEbkB2FG9paUabb6NJ8UjLsFalpqXmSShaBbML6WLtkxSJ6dsaMQZl/IA/uZTe2oTOAf9CK7c2ufcOUCReqewIeW95UnEpHFKCluattuz4Ico/jfhWpaVbtWdTtkyMUhxdmEsLya/4FmfSVeZ0im9tGlVXuwKK4Xh8mGmiRjVKCQbKBpQt2mzv30oQZOSfR32v5ebbV4No5YO+eYbWNp2v3iajHHhJJq+IrV4KfwPe6wqXjG5uj5glkHJHw1sflytMBOKLvEpVkTcQnwtGgytarU3QSiA0/SwYbZNokzySY8nfLCwkXya2/GAjkjCX/P0HTEE2FwEstEIg0DJimJvMMTl+UhgLBLq2sEW3AyvRILgjO1LcDCqLXA362vNW7QuSSJzyDyVbDY8tJ6sASSwGVYS8hedaES3bcjLwR8ilt+xpdIS64vGxrRpgtZ3KfDTyvM9SkcamndDVZhasLRj9Jg96a1TZ5UpV9vMrC37/NJKGc7RP7U6qUd1gXA3ZQ6rAHaEFQwJyh37/sskIryk08N1iIN6SFZB7lWKuNTum1hGUti1RSxdweW4WLgmcGBhrzME+bRrScIuuRoLPtzOQyyw8H4xE+2i6ygMBEHRL/PlPyeVpt+AWawNMAlcmBSfKbVUeYBrg3v1vxMaNZx2XDOZL9bCZlhM6pJy3EGkQT8hrWCKRYLb4S9ej7owR0L9mnW1hDoimV32+9m1NFknD0uZA+VZoFWNtMGHaOjHrLrniV7468HJanvpq6asXafPl4OApbm8ZUIawQAMXkqd4okahB0p0xQNdArGyHhk60rFeyI50fdtSxsT+xUICfLpzewQICMEyUX0zDdS1/PNgZN6qohPeUFvvsL6gL/i6ynQH195A1vhnwanbdZ1K9vvhX0Cyf0iNay6c0ipKOqig4s1VcE56dRNmzI7F411qx+dy1ABhoRgZBoccjwcciAdaxhad1ShgN5qVcxKo+jMSkQFGxZoLBn0r0BMHMboB2aQE/aRSpov7gqknljl/quxB/rkv0oY0dwSPwYzw1qvJhSucbFwDtuRfWPDbvNj/wOsgr3ArmBmEQfTTf0Cokt+Nl81EsWtcbYBkj+5ysB6EL04oJlpsNtZmkkr0vFrfPk/NdRa+PRnv4oLoVcqToOc6XfH5on9zqTnBbE5SSjim0pdX/camteLuP2Pp9mikXVqiUtiYZYpTQ0MQqXlth3FAkdFfpGRBvSYPbNjBDVl8ejC5sCSFV7WsRM0t8cCIrq/HmJyhxNgaCS1KSiqkBmiacG4LZOhsOBAfY1hUmfeEvmvzwWC0zy3uxBLP2qRFuIHbg0/t2Ts273NJniU5kd9Fg9/kLZe2SvESOtyKdNMjuYCIb2HpyqlBcORfvTzwfxf6B03uLmLnkmhEOScqPBRcz0LfmxHoTvm8ghYC8ZLuTIzt3/9qZGRkf9f+ljIzzmQAzIt41RKfSFDhbcYg0Pgu4nuWJusTl7pdVIdQXyTaLinmcz5fcF590RaMzGlqt/OyP+fYAr/x2udTX1SQxl/2LyybQgo3YwrMMKUhIPLzJ81Zjk3T4NaGtYuUCWa8TC4sbxww0yF8iY/1YsmMcsxlMDRckhHItAuvCqpMAL3K6mUpOjnhaJC+AbUAAA3lSURBVIIxro+AGBWqWBmSX/VB1ujcYxpjyhHElPO+oK8NEtJn0We+b5CkbWCI2izJSJo6K3BBR1XEPIfSznsOGc/SNKsxcgFW803/UNKUNZIK0FCQu6/cm9kaDMLdMfcjpnChrDsnA83ZeEE9XlEP7BeBdZ3K8soAHMKgb71WB6tzP4v62ljF5s1muk+zkNRWfcBZXrLnvvQ30TwTEOgGvzFMC1lwgJMYguYi0ehcRVHZgeSyOWtUn8PFUrRe6V/oP/XXGk9uBHEXV5ILrZWfIkGHQQfc28jh5kBZNgLZbEszZWDQJ/bTljIz8UXNaWqRsBZb4s0bVUlddZsv8loznbvMML4S/bpPo/SZL/+XSJ9ET+fR62dSS0de533fQDg2+zr6uuLqNdMC5+SbdbBrDiWvIGJ6b2VZvCoGwczg4OALUr0AnEsTyeXkAVcrhgicXHSPS3CjeV0y4iIbuGB/Ojasja1/vIidEkPBIY/FuzxOrNN0JPoa4vKKzXmtvmA0soJoWySNn89qdO611TZnIBllMtqm4TlfJDrnvEzoo4byz4L/VdIJrPPWpD/NjRpawt8M+f1DQ0ML/qHpqgepOlFxPrmU0J0hooGy8UDBvX7EQGKsGL7E4y2L2vBaeUNgItFs+yjbBhcqRhA5RHojgQltA8Cvt/l8aZcoUZKPqDlIZrWtiLQl8/m+ubm/5aXF5NzXRJuLgOnp29gWuLbysyjAJfUv1yikV2BX1vCy9piYONV/VRKrojEgZsMTVyB9mx1Z7OrqGl7MCu0VcHTyZACimPi3nC1+q1gZ2++ROUIIvDEdQ1x/Hpx3JzLgp33P+55+B4Sm/9IGKhIBrxSNRJ+3raRN/rjtaf55JL3xDHmfryRHWBrn+5dqDzUZYqm/PwlYWKo9uMDfJP2mrJAYbSQ+obmJ4SrulSpV1Hl2GOyvKpAZhngvPpaFUAUxZhgejhkM08Ybgw0t6Jtz+1OMtPZgOv210dcejQYBqugDIn9V/PFdn/a6jwVXvXpgu2wbkDu+VLe5Vn8xX/IXg9/lTYh56SkxG57QYUCAB3rCsl1jdvS7X2iFrFEYsWVlcaQZM90rFYSmNt5AQjAQU7H6BVhnDDLKdppv89mIRksvUSU5q2kGMkOJZG774VuvAAAb40+2CglRM3bbAoj9CdcRN5ftyBdsjMnVtqBw1dPSFGbJt8FhCEPILpYWBnlF3I4weOsRA5IZjvG6zVBpD2TpKpgBkzKSGC4Mx7PNzbaFCZwcA6nRK7g0DEjPta7AmNcOfhLk33LcMWSvUOSM96Wf+YqMuPFNPi8eg9y6E04UjP7F8XYpuUQNE7IXt6nB0J9ZIVUh1RoOmEII+LB1YWGoVZTcBiZClZXzlwv9Lypb0A1jLDCWwOpxLKIiSVM1n7a4BBa1xf/3x+xiYaKFvio6K7d9gVQICzaiYpsNxECs8szX7iweRej186erX/dhazUajEQ9qAlGvzNQ3/zTZ8//UimYc75g3vG21b+w/GZWlam4JYZrreeXF5Iqp15TpqtLy0tXl89fHRrqbxXlNV2MczkLYUzSPasLWQB45olmjUrICZwWAiKHrE1DSyFbKAgITrNZw7SpiruKQyAlYBxB6Dumb1R5RNBK0fXqa+m3mj4BPoIQsfi8aPFFg75oHsK5YPSpo8PQF/os+NzZNIdgPjl4qvXUC5ct4G++AlLWsusiFpKQNC2cvwrJZKssDVMb5pUXf72y3L9wNe9SWoMa0KOTLcMjzYsjFREBBIT7VX1mYP/syWE4DsSvuWVk0Q7wxipyFsxHstmRiTgEipr3yMZzX3COWJQa9miTQSkEJHPp+T7gxYsZIC3a93W6z/c8rwQGQn61RAJZ+adge515hSFeXE2C3+lPOuJW0A2wPt5IHrgKGfdfeWmVFR8Ep9Wf9EN+6bVxTXYsbqPZKbdM0OKwwyJ91WwPQuHmsWw2bscwzUZ5gQVjeL8akggEuqqO90DIGl1dyefn0uoQsEcovRpcSaef+7yJiUQj6fRc9GlfyU8YfX35uXngd75i8hIZwnw5eHUo6f+rsz+iVdXzboUYDbzW0PKBF2rNyMbL5qgAvlhl2M5PxVpaEF80RoQdzSOWINmTQExLfBGtj4Uxsh+UcaKrufoMjT3FBh32tdkEE0Q5mXvdh//irUtR8D00//pvkK3bT8BBOA22CLx5ZJ45o21wbaapGYk3/opMh00v+715KRKTdBAz2H8A7BMhplcFvXoIG09kJyolhuNXxdh/f3N80Q7n0at4drEoMWNo/bEPSmKGC4laM1eYopXVSDDia7dPDz5Dp1KzzJV52yvZRb22ry4i6Jtf0SyDE2oPU1NDy0PwF4nM56mVdqi7vZwJQu603+9UpdkDipchf3II7ExRdOA16b8Khvf8kB+MLy1PtAIxHKt5BO9FupD/00JLpcRwMVF0QWOzi7Pc1CTWmieahwPFLLKw/pQiRUyX2pW2dqUySufbg+3OQ5jV/rf0d5AURdfiFwjwwE35Iqtz6W8cRgz8GlijOcg0vaJKgOl32hgD3iq5+OqNIK3LSXsE72rySisH72UUTv0p2f+GzpboBWJqXbR6IiJvqZQYMLVFVYqPoP0TIoFmv81qidLo1WJ5vL1IzKaTRFxIrS3S7uwZk9/MaX0rbc98EbveOaisru/565U8EOHIBxQxQZ+kYLy9qa8khp/vB7FInifSYEJN9IMzWnqjQxLLpSTizZs3cv0xfkBMzdsJxAgXMdr+0kBVS+LVGGvpKpx8Jcq59cT6NMvWiNEsSxHj/ESmo998HYy2gVGeb2tfffZs9bv5lTk2H/RB8uQIVxQxkWiei2rzEJXEaMsLoDrLpuAUUn72Zik52MotaWBGJEQ8nDK8/jiOOogRE+XBzZYs52NdWuHCRHkwouXCNiXGkLpbYmjeVqF2zZprb2+TkDu3t69Y1mpQmV8XMcFoGsL5Kn1wEIM4sYbUCpMDaucxtW7I+ArMCISrhm7o8C/XIRPUUamlOoiZLU4QFNG1mG3ODq+/D7Rkt0mMQiUxOiPtYFeikZW+Vciu8ygPfDzt+3swCu7aeeAaMdVP4SCGI9oKZta/8KIUrOqDyRpmpB6JGYOsOl7SJufcSXFgs2S+6iYGMuxZCGSKoUw0+Oy/noFPVusqILx77gz8t0OMoOjUAcCVUyUz8laIcXyiy+aJwJoLUgNTDmmBWC4wUk4f6ieGC5puV446ohw20GEzpLRrddY5tLsdYsB9L/WrtVvl3OetSwzifGT/2Nja0qSW8iKliYmxrpHC+prr+omxMbeqvFEpFQCJ8QXb53DlM8q2QQxh5A3kTqdetJZqwN86MZUYhnzJGzsiRu3om19pf67CWghhgtFvVl/nJWbIufp9e8QwzoRZ4OStqlIVYphhE+MdXe2IGDVBTilC+XzffDD493wagjjLogg7I5btEKMGiqw3VyUvz0r9cxKj5t0wAVeu232nGEIMiDa0ivqDbdkY9TSrA396ieQ/zCs58I8jxgEIbj1Gv+0zbIMYgN660L/MSKki4217JSf+uYhRZQ7JF6y0iceuxJTfDS4tJJfLO/fuEmNDzdD/edk/tPBGbM0r1fpS+x9EjAGmdykJWeT5XWIqiNG5uawGHfyDW/RK/1uIYRpe9i8kh/xfuSSmiiXZITH6fwcxPudQQ8UZJN1G5CtfJv2qTLzCXaMq0xd8MHml5uRtbWJ0xPcH9lepcUeS7Q+8qrJ9ayU2kZhoFWKoRNvIroGZZf/VU+WqJn6g/yuDV5nj1pf6r9Qsma9NDPT6VXysyuIexrWxwOKW1lnUKzFcVeptlRjBdNOUkLiXNr15mRwyjSoP8zWH+l/swF1zro3EWwpVNiI1Cmpqdiu6VJuYiC/PkddOr1hoc0FfjXWOzhE8HVJQTggtFxty6PwVtawAY+fuYwZmlOigdrXXT24iMYYmVGmZmlOpAKJIQ0KRtnOJ4UHfHKJeN5ZKqy36zPsRwDZcka+rXfTnZPJNL1MPt12/cvtBuFprMnm+dkH7psMOWlcg0Mw5Wnt27hq44AZvjsdfeT6BYgNqEqOtBp9i5rUMm5npaHC+xlqumsRYareLhVMCc+aQGINxaV5J+pfT1g6Mr6YWJEwEWhYRNioACkRHVNEnrTLjU4maxJC/+YLz3OsykVCFnTX2xKxJDJO8dbk/uXT+1IvSBlUKL06dX+r3L0+z2g/mM5junldyNS+aJ04GJhazLryaCJycaMZ8Sxvs1CQGo9Wgbx4kpmIdC0JUy7cHI69ZjeVi0r/w16pfcjBb3YNq6l+NeJZhF6ANmsYmC9x0rAqIPJ6OW75ArhWGA/GTcTcCgeEC2eJawZrESJJYDQaD832VmFv5+lk00iZQjZ2ap5M1JEaB8BeDy0MLQxVYPtC6SWmjphwyLwTiHmU/DuiouWuiYqYg0NIytr956xt41SSGESraItGIT+0fs46IGgmeRxbZ8ASgdYjzB2qvDRRECCEJWd9sU5Wwgn3cdBE1pwItdhVqbEBhaLbQVXoligxwjVWiyo0AYqofalocoT5VwOmqrvqmLY9MrHaDqAa58fFAlRAMNFFKh08lAGnomy6d4pZQT7mvfusNriPEhVFJjAHhAGUeD0L1xtzzlRo7dK8h70KVBOp/FCjfwmJrtbOkE2jL+y/884KgKo+Xd0IahnREqFLWWCrwPwWs1nrVMiqeSqBVzr3tYhe72MUudrGLXexiF7vYxT85/j81Ka1Md1TIcQAAAABJRU5ErkJggg==;fontFamily=Georgia;fontSize=10;" parent="1" vertex="1"><mxGeometry x="36.329999999999984" y="464.03" width="46.67" height="30" as="geometry"/></mxCell><mxCell id="1aQJizUw2zjihYZcxIvp-160" value="" style="shape=image;verticalLabelPosition=bottom;labelBackgroundColor=default;verticalAlign=top;aspect=fixed;imageAspect=0;image=data:image/png,iVBORw0KGgoAAAANSUhEUgAAAOEAAADhCAMAAAAJbSJIAAAAflBMVEX///8zMzPb29suLi4aGhoxMTEqKir8/Pw1NTVZWVl+fn4fHx8jIyMsLCwcHBwnJyfT09PR0dE/Pz+3t7fY2NhGRkZvb2+tra0VFRXv7+9XV1fFxcW9vb2Pj4/h4eFgYGDr6+uXl5eFhYVNTU2kpKRmZmabm5t5eXlERESoqKgjKeonAAALiUlEQVR4nO2cC3fjqA6AcTCG1BjnXTsPJ22apP3/f/Ai4aQ2OLPt7GztzNV39sw0lMkiI4QkhBkjCIIgCIIgCIIgCIIgCIIgCIIgCIIgCIIgCIIgCIIgCIIgCIIgCIIgiEdDWvDvcrKZPwPzzeRQyr7H9UeR07fLmhdG61QDaWHE+vI2fXApJf7H2OhtXMR5xoWKRBRFSkXwp+CJNvH6vOh7mL+PRPmq89LkPLoHz9PZSwW9H3A6YcybvbbiuVm7gxJa7zcPKB8wXxoQT0Xqqpw8xx9zEYmb1PbXWbx87nuw38XOyValwolQr7yIx/sdiJi/7AtRi1j/kqez7YOp6mKc1jJYWXDiuB6PWJXan439e5zWU1g/BSvjetL3oL+B3MUc15jiaXQSTkBQxJGxP8cj+9Nz6oTbK53BJFoZze5qfgfPZKZrU1mMt+VSgIAJztAodhJaORbcShXxZbk9FRyVVenZ9DEkPBu3PXBzmjK2yiPYCA849quEMFeHme2mspUV9pTCv7Azbl56HvtXKFcpGE8l0rWVj80LMKN2BmVbQviQgewxaO9kneJqjNLVwCfRzswxx7EmsO7sx8QaGlVs6t+3JGQb+CSSEoSf57ldtlZTj4eexv4lJFvkGZrQ9FKCy2111Aqob7rXlNCK9QIzl6ych3eJYZdUPB+0IzdxHhrPcQeXbGpgI1jedrr2HEp2tC6BMFP3+7nmoKhCj4ZqbySbJLAJquS9wjFKtgaB08+NzpdwkVrVFMdaouo9gR1E6IHOIqgo2lB9uu5rm8J+zJ8++7QltJ1erRYLs2F1BHnSop7F4WGHeAAVVVH66uIK+9/abnkiO3z28iS0Mll7qvj4psavKXyF0IfhKaqU5RHXoH51w7V/TGJws18ag/UltJuntopZTK/fgiKCIzA8H9WZzQhmsJ5CbLFeaPlLCUtj+8C2775FshdoQAM7NM64Z+vLNbaXrNLW/Cev7JcSMgw30sp9gJ6v1jtXypyHFmosYOxRsr+NS1oFtC2mavbqkBDCDVDlK5KdwKIqMxnWUpQzMIL8vayzF67J6t+61a1DQrbPrK2ZfX6TlEsu7DY5G9IcSrYDjYxwr76OawoLKp23OjZiixtbba1na8aqHB5XvhtSLLWAjS/Kt822XQLhQnuMFcT9cUtxmVR2xpJds2mDG6uZDGgpjjnGu09NZjDK2WurbcXRcrbaXt9RJ1tNMwya1wOREHJqxqXNsjxLbrj8RJYnDdDxjLKs2Za4bEazLXMBdLodhJrCY1biF/nC38fanyFIaAcxx5j3z6M8O9UXki0hLSp4G5dg83Fz0ybDrFzwBdDxyAZhTyFUV9Fs3GR/xPzTetxmDepsW/etvtgqjq22MSaw4s0//+9/gBM87tjLdj6DQ1P4XTFfGgexEQZZb+22SQHmZz+EKaw0zkBrKNbrTmola/GZL211hkA5O3l9j5AP0RXrn7MOfRfG7CaHXkmbLq+NgXNgY8KZ1zjXeALwJ4f6m1g7Ewku25vzAbyS0BR2SijZFpTXRr3tZmEfkuh9w5BshI/61RsIBL9RGuRb7sxhBZGX8RPeO3hKpv+czVtu93s99VrnsDh56Xe+I2EJfo32T9imBlIEb37nH0ba4AfOVfwzlXMehSvrroRsZrdPu2rbc4jhFx//4RF/FynB0mdPfjvKvQ+635MQNhzIR7W+mj3B1BZ9bxdT2O51YFIgOAgm5b6EOzwW9lu34A0afwH8NB+4swe7Fhw42SX0VQk/cMfx5/AA+qH7XoiXjjjXmg4wjnZmvyrhPHVZOY8ZHPFcenZNwR3hK38MaP7T0Km8JyGYTS9pBawyjIN7RcJZdeh4TGAFxeEJyz0Jq9htiB5njI77LRArY6eOHlO7OlURaN1dCQ+F6ppzdNyKslctXUBCzQRD28ZQCvR1CUt08rZ+M6br/Kjlh5mmnUMGl0bkoYRVV2xhKXmXU8Oqons5/yRbSA/qzahNZV1KxdVk5IPOnN5WC699AlUL+YvfHZS9w3//UXDIIjVxGzzLF6nXGhusQgnbUyyfUon/NVh1FE7tj/Ls6hKCHBIEPl3ZKXX7w2tWXe3YnPcsYfqfZNma9D2H+m+XEHesKFiHCeiX8FvjGI/pIx38Ag9+VR6swwFIuEX3bOrZxgqOPVVoSyt8IHob2NjJDF2jyrelmN3o15ZuMP/QtR8qlXTt+OHZE1BCTiY0KZXpdHV+FBxykGFxqaX03/s0df6mT8oYRAke/hTmsDgE3e/7pVGnX4pBVfg1P4kEy9EdW6hQee/HFujNBQ7oi13Ogvecxhh3x4fWaKp08+XoCd2z8ImsOMSHPR+TPuGBdEeMr74X40fBupV1su3yZwf8bTBPE1pHaP1GnuYNnpNutw0lTzOpMzIeUHwCxUIe93Nt4Mf6mahB5NowX6qSQJMwAfqNfGmmoLs35cPIl9rBQSjoD2P373Pe0i3D8DH9LBLOLXAra8uIHnly8LvfO7eoQ/z2d8B+3/+5hR00lDTlr17pywT9rUCUe2dPmBAOzp5AScPzqx/GjumdKyUST00P3fmHOxKCSVH++SHLIIxe9n1+yOoz4MCawrnpF8+AJaxaqNRrN4PLJvR5ABIeoMo3OLJf8c5z/EIFlXsMq6WVVzMLdfxKqEGc44M1jVTsbVtYi2H85191Z+9jd47TYmqENdKnQZS2bWCAwqungRoZlQX1NFgHtN63+44zFdTe7MFngHqaAQiI+gQxQAtX6falmqi6teMLQjXvA7izZP6bdJQyw6hrY84libryoFB02vrY2Uf5vxGuLw+dor7YQM4adsUmTrZWKWlW15e2+mWRX3TKM6fjA6kvRaAwwQYHrYJgnL6gRjgKa4ThzN+rEcZZzcaDMKSOkQF9zFvLprPOG7MVXp33LCgQ22JY3bvD1kCyl1z4Y8IqPS+dG/o00h3ufNbqS+lqASMdeEQ9IqV8B4PBl81EBBTv8X+6byEx0wOB1u0mikTDxX0vrm8WBu7dZ/vGSPHOTPrPd2YgRjqz67+SbA+lKsO7M8PeYgUXYi+fEtr4QkAqo2EuOu89Rc17T9LltlR6HkT9cwPJLhAoqvRaAGblusAl4KL8pYSliRp31/B6HqZgV0MT0CLhUm+k9OdltUns18D6d0hRlZWI3bt4oEb1Ca0MXw5OPKB0G7V5vY1uDBtGM5fh3QO2msyFEqK+HCNZfcEyyg9skFQaj+P1/mpR8cL9L+8BP8G1zFsEUZ7S61Xn4ez1LUZ4FUhlswpH+HmXu/u2urXAMGW4o4CNqd5xpxd8QFu9z8LNIt7HhzFP4A0m4l3ek/AI3h7mfG2P59zdd8oXwzMyV+w0JBn60fGqrM0pWP5bJtST8EXXZpPB+zSMcO8hGqyKOsqjVuBzJwb8NVliJAtXX/w3f9jPmwJKUnKszHs29QQO+70YgLzEAstp4N0m1uvE+8F517tN3AsKYnDXp2uNYaKCd5sMeQIZWvw3934alZmxez8N3Ex0TktTwoPitY5O9ymvXxc1OE+mm8VSu4idF/ttecSMSw6v95AoocGFNtH4HJbldhy7JxLp2YO8Ksrq2QtU1GCIn6o9+gEi/WDNOXw2GNrzvUpr+RK9k8O2MZ/YYS72tapC0sVdL0zXi1sEPBqbOiMjIPuBT2CPU/sYEiKbmeHtPBQ34x0YzGw3LhovGoT3t4hUBaUmAwe0bXtsCgKiCHznnsi9a8NJupw/hoVp4FbU9KT1p5BY69aUGCdYaH2CQpoHWYEB1dvSaLjo21FtCms0T9/Pgzh8+T3qdyN9nIo4z3lbNQXn2sT7t9Hjzh5yzWhMPp7WysRp/QpaExu1fvqY1EHhI0vYRJaLzRZeJDzfbhZ/2WuEHX+jTB61ThIEQRAEQRAEQRAEQRAEQRAEQRAEQRAEQRAEQRAEQRAEQRAEQRAEQfy/8z+2s5oVqCcWRQAAAABJRU5ErkJggg==;fontFamily=Georgia;fontSize=10;" parent="1" vertex="1"><mxGeometry x="32.329999999999984" y="576" width="50" height="50" as="geometry"/></mxCell><mxCell id="1aQJizUw2zjihYZcxIvp-161" value="" style="shape=image;verticalLabelPosition=bottom;labelBackgroundColor=default;verticalAlign=top;aspect=fixed;imageAspect=0;image=data:image/jpeg,/9j/4AAQSkZJRgABAQAAAQABAAD/2wCEAAkGBw0NDQ0NDQ0NDQ0NDQ0NDQ0NDQ8NDQ0OFhEWFiARFhUYHSosGCYmGxUTLTEiJyorLjEuFx8zODQvNygtLi0BCgoKDg0OGhAQGi0dHyUtLTIvLS0rLTItKysrKy4rLS0tKy03LS0tKy0rLS0rLSstLS0rKy0tKy0tLS0tLSsrLf/AABEIAKUBMQMBEQACEQEDEQH/xAAbAAEBAQADAQEAAAAAAAAAAAABAAUDBAYCB//EADwQAAICAgACCAMFBwEJAAAAAAABAgMEEQUSExYhMUFUk+IGUZEUIjJhcRVCUoGho/AlIzRicnSSsbPB/8QAGQEBAQEBAQEAAAAAAAAAAAAAAAECAwQF/8QALxEBAAIBAgYBAgQGAwAAAAAAAAECEQNhEhMUIVGhMUFxIjKR4SMzgbHB0QRS8P/aAAwDAQACEQMRAD8Ayz4L5JAQIBIIBAgECCkBAgECIECAQECAQIBAgEBCoBIIB2AgQCQQCBAIEAgZB0ZIEAgIEAgRAgQCAhUAgQCBECAgQCBAIEAgIEAhUAkEAgIEAkEAgQCBkHRkgQCBAICBAJBAIEAgIVAIEAkFsBAQIBAgECAQECCkCIh2FQCAgQCQQCBkHRkgQCBAIEAgIEAkEAgOwIBCoBAtgIEQIDsCAQIB2BbAQECAQq2QIEAgIEAkGQdGSBAIEAgQCAgQCBAIEQICBscH4FLIrlkW2wxcSD1LIt/ef8MI/vM7aejNo4pnEeXSmnmMz2h2/wDQofd/1G752x6OCf5qL1/U1/Ajt3lv+FHmTP4foyYSs4ZkO+UFzTxboqGSl84+Ev8AO0cmtozpznafk5cW70nOzzrWux7TXY0+xp/I87igEgQIBAgECAQIBAQIBCrZAgOwICAyTbJAgECAQIBAdgQCBAOwIBIOzw7FeRfTQnp3Wwr38k3rf8kapXitEeWqxxTENX4vz1ZkPGq+7i4W6Ka1+HceyU3823vtOv8AyL5twx8R2b1bZnEfEMPZwcnNiZNlFkLapOFlclKMl4P/ADwLW01nMLEzE5h6biHGeEzn07wZ333xjO+LtlTVXZrTUdd734nptq6MzxcOZn5d7X0574zLp8V4djWYqz8HnjUrFVkY9j5pUTfc0/FPa+q/RYvSs046fH1jwzatZrxVYJwckAkCBAOwIBAQIBAgECCkCIECAyToygEggEBAgECAQECAQIB2B6xyq4NCr/ZQu4nZBWylauavDjJdiS8Zf53d/p7aMR2zb+z0dtL7/wBnl7rZTnOcnuU5SnJ925N7b+rPNM5nLhM5fJEa/COByya53zupxcauSg7rnqLn/DFePgdaaXFE2mcR5l0pp8UZziHDxnhNmHOEZyhZC2HSU3VPmrth80/p9SamnNJxKXpNXLwXjtmHG2tVUX03ODtqvhzRly/L5f1Lp600iYxmJWmpNe3y7nFsDGuxv2hgxdcIzVeVjN83QTfdKL/hfZ9f1S3elbV5lO3mPDV6xNeKrz553IgIEQQCAgIEAgQCBAIEFJMCGBknRlAOwECIECAQIBAgEB2BAc2HOMbapT/BG2ty/wCVSW/6Fr8wsfMNn45hKPE8ly/fdc4PwcHXFJr6P6HX/k/zZdNb88sI4uTb+HuE1Wwty8uUq8LG0p8v47rH3VR+q+q/VddLTiYm1+0R/wCw66dInNrfENzC4jhcUUeGyoeFDplPDePqWmovas33trfb/j7VvTV/hzHD4w6VtXU/BjHhx5fG+HxcOHWYsrcPGUqftEnrKhZzPmsjrw34eP8AQW1dP+XMZiPr9SdSn5cdoYHH+FPDuUFNW02QVuPcu6yp9z/X/PE8+rp8FsfMfRxvThlpfDiceH8Xsn2VSorqW+6Vzb0l+a2vqdNH+XeZ+Me29P8AJaXnDzuJCoBAgEgQIBAgEBAgECAQIDJNogECAQIBIECAQIBAQIBA9Li8TxM2irG4jKdNtEeTHzYR52q/CFkfFL5/+PH0Ret6xXU7THxP+3aLVtGL/q4sHguPLiOLirLryaLnzSsq3DuUn0b7exvlX/cZrpVnUiucxJFI44jOXoMe2vPeZwyeHXh4+MrbarIc0Ogsg9Kdng9rf8t9/eeisxqZ05riIdYmL5pjEOlwbgbw+IcMtWRRkV5Fl3JOhtx+5Bp9vj3/ANDnp6XBqUnMTnwzTT4b1nOXWxvhv7VZfkWZVGPS+IXUf7R6nOXPvUfDbT7DMaPHM2mcRmY9sxpcUzMzju3VZVkZv7GswIrFojZXTb9930pR30qk+5N6+q/Q75i1+TNe0Ova1uXMdnicnPu6FYXSJ49V1k4qKS5pb1zNrv8AHX6/oeK15xwZ7RLzTaccP0dIwwQIBCoBAQIgQIBAgECAQHYFsDJNogECAdgQDsBAiBAgECAQECA+q5yjJSi3GUWpRlF6lFrxT8B8K9rw3jN/FcS/h92RyZcuWWPY9VxyIrvpm189fz3+R7KaltWs0me/032eit51KzWZ7u9w7Hsp6u1WwlXZC/iClCS1JPcmarE15UT5lusTHBE7ur+zbszh9tOPHmm+N5Db3qMIqMvvyfgltGeCb6cxX/tLPDNqYjy63xN8TWwUcHFyZTrqpVN+T2OeRZ3PU/l+a/Mzra8x+Cs/HzPlnU1Zj8MS8ieR50AgWwHYEAhSBAIEQIEAgIEAgQGQdEICQQCBAICBAIEQIEAgQCAgKbWmm012pp6aYV+k8F4/PoeDRstqslfPJjkTualbCMZS5Xvf3XrXa+8+hp6s4pEznOcvZTUnFcs/j/HbLuG26thXL9pW0clDVbljqMu9J9qb1t+Jz1dWbac/f0xqXmaf1eHR43lQCAkEAgQCBAIUgQCBECBAICBAZB0QgIEQIEAgQCAgQCBECBAIEAgQCAgQCBAICBECBAICFQCBAIEQIEA7AyDohAtgIEQICBbAQIBAQIBAiBAtgICBAIEAgQCBAICQQCBbAQEKgEC2AkEA7AyDoyQIB2FQCAgRAgQCAxTbSSbbaSSW238gOVY9js6JV2O3bj0ahLpOZeHL3lxOcGJ+HzXXOXNyxlLki5y5Yt8sV3yfyX5kwYKrk4uajJwi0pTUXyxb7k34DH1MOaeBkRrV0qLo1PWrXVNVtP8A4taLw2xnC8M4zhwwi5NRinKUmlGMU25N+CS7yIpRabTTTTaaa0014NAcmPRZbLlqrnbLW+WuEpy189IREz8LETPw7EuFZaTbxclJJtt49qSXzb0a4LeJ/ReG3h1F+Xj3fmYZdjIwr6VGVtN1UZfhdlU4KX6NrtNTWY+Yw1NZj5hwGWUAgQCBAICQQCBbAdgQCAhUBAZJtkgQCBBSAgQCQQCBufCGM5ZMshwdkMKqeU4Ri5OdiWoQSXzm4/RnbRj8WfHf/TppR3z4d/it1lWRw3is4Trnd0UshSg6309MlCfY+7miov8AmzV5mtq6k/1+8fLVpmJrdqYVNeBk5vSpdHm564dDfhj2xdjkvy1ZUdKxGna2frOP17/5dKxFLTn6zhkXr7BhYtVseaU+KW5F0H2c9eNJVcj/ACbUzlMcukRPnP6dnP8AJWInz/Z33fkXZN2ZgZsc1T6Wc+H3ynC3omnup0t6mop/uvwRvNptxUtnbb7NZmbTas52ec+HP9/wv+rx/wD2ROGl+ev3cdP88fdp34mPF8QzcmE7YR4jdjVUQs6LnscpTcpT09JR+Xib4a/ivbv3mHSax3tPl1eJUxohi5mHO6mvLhauTpX0lU65qMoc61zLuaM2iIiLU7Z/wzaMRFq9su58SZ16q4alfelPhtTmldNc7c5puXb2/wAzeracU7/RrUtOK9/o4PhP7tmXekukxeH5ORTtJ8tq5Yqevy5mZ0e0zbxEpp9pmfEOrRxu+MMiu2csivJrcJRuslNRnvatjt/iTMxqWiJie+WYvOJie7Qsw8HFlj4+TVdbbdVTZddC7o1j9J2pQhyvm0mt7NzWlZitoznf4y3w1riJcn7JxcWrNnlwsyJ4ubHGjGq3oY2Jwb23p67t9n6F5daxabd8Tj0vBWsTxd8S7WD8Nx6LFlLDycn7VCNs7ar41Rxa5PsUYtffaXa99hquj2ieGZzv8LGnGI7Zz6eb4nifZ8i+hy5uhtnXzfxJPv8Apo8968NphxtHDMw6xlkgQCBAJBAIEAgIVAIGQdGUAkCBAIFsBCoBASDUxOMToxJ0UdJVbbfCy3IrscJOuMWlWtdq7W33+J0i/DXEdt24viuINnGrLcS3FyHZkOVtd1Ntlspypkk4yX3t7Ti+75ibzNZrbucczXE933x3jssyGJFx6N41Kg5c23ZbqKdv5dkIfQupqTfGxfU4sbOXjHxHPJysfKjXGuWPCvlg9ThKxTc5Sa1+9KT2i6mrNrRaPot9SbWiXPj8cwqbvtlOFZDKTnOEZZPNi12STXMo8u3+J/d3osalIniivf79li9YniiO7H4bl9BkUXtc/Q3V2uO+Xm5ZKWt+Hccq24bRLnWcTEtGrjNcvtVWRTKzGysmWUo12KF1FrcvvRk00+x6aaNxqR3i0dpnLcXjvEx2l1+LcSjfGiqqp04+NCcKa3PpJ7lLmlOUtLbb/LwM3tFsREYiGbWziI7RD54nxFZEcSPI4fZsWGM3zb53GUnzfl+IXtxREeIwWtmI2HCOIyxbulUY2RlCdVtU9qNtUlqUG/Df/wAJS/DOSluGcu9LiuLVVdDDxra55NbpssvvVrhU3twglFd+l2vtNcdYiYrHz5a46xE8MPuHGsafQWZWLO3IxoV1wlC9V1XRh+HpI8rfZ2dz7dF5lZxNozMe/uvHE4mY7w4MnjUraMmuyO7MnLjlysT0k1GS5eX+fz8CTqTNZifrOUm+YmJ+s5ci4ni21URzMWy2zGrVNdlVyq6SpNtVzTi+7b7V2jjpMRF4zg4qzEcUfDKtkpSk4wVcXJuMIttQW/wpvv0c5YfJEQCBAICBAJBAIEAgQGSdEQCA7AiBAgpCHYVAIEAkEAgQCAgQDsCASBAgECAQIBAgEBAgECASCAQIDJOiIBAQIgQIBAgEC2AhSBAJBbAQECAQLYCBAIEQICBAIEAgQCAgQCBAIFsgyToiAQIBAQIBIIBCoIQEKgECASCAQECAQIBAgEgQIBAgECAQLYCBAICBAZJtEAgQCAgQCBAJBAIEAgIVAOwIBIIBAQIBAgECASBAgHYFsB2BAICBAOwIDQ6oPzK9D3ns6efPp25G56ovzK9D3jp58+jkbrqi/Mr0PeTpp8+jkbrqi/Mr0PeOmnz6ORuuqT8yvQ946afPo5G56pPzK9D3jpp8+jkbnqk/Mr0PeOmnz6ORuuqT8yvQ946afPo5G66pvzK9H3jpp8+v3ORuV8JvzK9H3jpp8+v3OTuuqb8yvR946afPo5G56pvzK9H3jpp8+jk7rqm/Mr0feTpp8+v3OTueqb8yvR946afPo5O66qPzK9H3Dpp8+jk7rqo/Mr0fcOmnz6OTueqj8yvR9w6afPo5O66qvzK9H3Dpp8+jk7nqo/Mr0fcOmnz6OTuuqr8wvR9w6afPo5O66qvzC9H3Dpt/Rydz1VfmF6PuHTT59HJ3XVV+YXo+4dNPn0cnddVX5hej7h00+fRydz1VfmF6PuHTT59HJ3XVZ+YXo+4dNPn0cnc9Vn5hej7h02/o5O66rPzC9H3Dpt/Rydz1WfmF6PuJ02/o5O66rvzC9H3Dpp8+jk7rqu/ML0fcOnnz6OTueq78wvR9w6efPpeTuuq78x/Z9w6afPo5O56rvzC9H3Dpt/Ryd11YfmP7PuHTb+jk7rqw/ML0fcOm39HJ3PVh+YXpe4dNv6OTuurL8x/a9w6bf0cnc9WH5hel7h02/o5O7//Z;fontFamily=Georgia;fontSize=10;" parent="1" vertex="1"><mxGeometry x="280.72" y="400.38" width="50.34" height="27.23" as="geometry"/></mxCell><mxCell id="1aQJizUw2zjihYZcxIvp-162" value="&lt;font&gt;Aws IoT Core&lt;/font&gt;&lt;div&gt;&lt;br&gt;&lt;/div&gt;" style="text;html=1;align=center;verticalAlign=middle;whiteSpace=wrap;rounded=0;fontFamily=Georgia;fontSize=10;" parent="1" vertex="1"><mxGeometry x="273.3299999999999" y="377.61" width="60" height="30" as="geometry"/></mxCell><mxCell id="1aQJizUw2zjihYZcxIvp-163" value="" style="endArrow=classic;html=1;rounded=0;entryX=0.5;entryY=0;entryDx=0;entryDy=0;fontFamily=Georgia;fontSize=10;" parent="1" target="1aQJizUw2zjihYZcxIvp-167" edge="1"><mxGeometry width="50" height="50" relative="1" as="geometry"><mxPoint x="83.32999999999998" y="296" as="sourcePoint"/><mxPoint x="147.32999999999998" y="366" as="targetPoint"/><Array as="points"><mxPoint x="167.32999999999998" y="296"/></Array></mxGeometry></mxCell><mxCell id="1aQJizUw2zjihYZcxIvp-164" value="" style="endArrow=classic;html=1;rounded=0;exitX=0.815;exitY=0.608;exitDx=0;exitDy=0;exitPerimeter=0;fontFamily=Georgia;fontSize=10;" parent="1" source="1aQJizUw2zjihYZcxIvp-158" target="1aQJizUw2zjihYZcxIvp-167" edge="1"><mxGeometry width="50" height="50" relative="1" as="geometry"><mxPoint x="83.32999999999998" y="416" as="sourcePoint"/><mxPoint x="137.32999999999998" y="411" as="targetPoint"/><Array as="points"><mxPoint x="157.32999999999998" y="366"/></Array></mxGeometry></mxCell><mxCell id="1aQJizUw2zjihYZcxIvp-165" value="" style="endArrow=classic;html=1;rounded=0;entryX=0.25;entryY=1;entryDx=0;entryDy=0;exitX=1;exitY=0.75;exitDx=0;exitDy=0;fontFamily=Georgia;fontSize=10;" parent="1" source="1aQJizUw2zjihYZcxIvp-159" target="1aQJizUw2zjihYZcxIvp-167" edge="1"><mxGeometry width="50" height="50" relative="1" as="geometry"><mxPoint x="97.65999999999997" y="486" as="sourcePoint"/><mxPoint x="137.32999999999998" y="446" as="targetPoint"/><Array as="points"><mxPoint x="157.32999999999998" y="486"/></Array></mxGeometry></mxCell><mxCell id="1aQJizUw2zjihYZcxIvp-166" value="" style="endArrow=classic;html=1;rounded=0;entryX=0.5;entryY=1;entryDx=0;entryDy=0;exitX=1;exitY=0.5;exitDx=0;exitDy=0;fontFamily=Georgia;fontSize=10;" parent="1" source="1aQJizUw2zjihYZcxIvp-160" target="1aQJizUw2zjihYZcxIvp-167" edge="1"><mxGeometry width="50" height="50" relative="1" as="geometry"><mxPoint x="83.32999999999998" y="606" as="sourcePoint"/><mxPoint x="137.32999999999998" y="506" as="targetPoint"/><Array as="points"><mxPoint x="157.32999999999998" y="601"/></Array></mxGeometry></mxCell><mxCell id="1aQJizUw2zjihYZcxIvp-167" value="" style="shape=image;verticalLabelPosition=bottom;labelBackgroundColor=default;verticalAlign=top;aspect=fixed;imageAspect=0;image=data:image/png,iVBORw0KGgoAAAANSUhEUgAAAPsAAADJCAMAAADSHrQyAAAAk1BMVEX///9Lg7ZsbW9naGpjZGZpamw/fbO1tbZPhrjl7fS3zOGnqKlHgbVDf7SgoaLY2dmFhoeen6D4+PhwcXP1+Pvt7e2/v8A6erHm5ub19fV4eXtfYGJZjLvFxsbT09Tq8PbZ5O98fX+TlJXC1OWZttNzncXi4uKvsLGOr8+qwtq3zOCJiox8pMlkk796ocfR3uuhvNc1JW+4AAAQjUlEQVR4nO1diZKqOBRthaC20C6IuKGIinvr/3/dA9lykyAJoGI/z1RNzdiCOSS5uTtfXx988MEH5WFgXw7f17WH6351sQevHs+TsLC/T7OaqmmK90/wL7U2O33bi1eP7MFYHE4zVVFrag3A+0DRZqfDH6a/OjUVgjV4AkrttOq/epCPwGDfNNU7zG/sVbN5/XOT39op2n3eETRz13r1aMvEYt3UMqYcZ99c/525P8zubXMW+9nh1WMuB4tfQeY+zM1fWPgHU5x5zRf6+1ePvCgGuxyTHpDXft9b3WttOKU7C9rZfvX4C8Bu3qPuaXOUhge/0Ly8mkFuXNLWu6oppmnWZh5q3n8oqQeg8q7yfsWcdI+3ct7tL/ERvrjsd2eFzV81v1/JIDdW7JmsbfYtSogNWvtNjfWoVO0dydss5V1rXu20C1rXGZP96omDLgcLmrpnp+3vHluDg7csaPLvJvAG9BxqKoe2smecDNqbafcnmvovF4XFjpp67YyvlsFg4aO6es+epK42uWXWipp6ZR38ZeCdCL+bs380ns+b3XVVxSdgkweWNrP5r26dKfKevLtcN5qvCQRyRFU1zVMSZrtD1eg3SeobsRGeTIL8bKeaGvPgUMzNqkr098SW1U6id1iT5O+4PjStua6MwdsiJkjbid9jJ2QDVcfTQ4w7ny0qRt5jXwlz/wJHrZ7zbUdR69esgsW7gStezbkaB2dBp4dqXsslIg5y2nOr49RBmQmFT316HH4BdyWHnItAKUiZeLGnpwXON3VW5OydCbv6NM0ui0gOXMFkmYUMUKYZnAHzhVZfE0zDptjNaIvopswqiqakP5aX2fsXoJAVnQSbcGVqSvP8u7vuv/fr03mmst1cTbsUJuJY4zOlnoveDtdwVKW2vmDK68LenxWGN1SdvUbaw0NZKbz8WvEy0swTYxG11gxPT/FHngs2GMms+A1PwbPUtFOKuTLYNyn2kb3/XAALTithCPZt4rXNHcGxoCWi8gphf8KXvFbGCLxNpNUyfD4H0tOT14YoArDdyxnASjF3mfdpzYh1/4JV38IdNnnMdgZ2NseXBhtIXlV5rioVF3wET42l9QmTVxV2FRXFN87dfKojiTR5n/vrX4Rm03yuvGkBbbqsHcePX1zUCfpmCwOq0zXlydodEPNP33Fr6Dl4sgNv9spF99WH0u7JZzy+5V5wxAJRW1Psp/44zl17gecQOHqePIBXcz/gE/9cc87G1TrlBdwXuMCpNZ93xK9+wXYrw4oTBojmlGJL8eB7ZhaPwhXGCj/j1dNTJP2KLojQfp/xwwQGwIWpmteHs2+dGF7DV9jQnj0HBqJq5wd7bekkkUDUvMJluCa9GI/dejsyTyDE0y0pH2Tag3fenB82jsWZkRIXcH9FkGDFcNtqDxqInR4zEzUm+mNj5HZucN2RMc41ngtrEWoPMWvIwAn4Re6dNjY6wx+nu5zoSJJ9SEifLI9O23LHgvVyLRb3h9RgpFP3o2Z8wTh32FtKsiQhhOo4vP/3HkT92LYMgREN2MKn/HTsFplLFk64Yirn9YGjwtewevWpR7ueDu8BTCftOfeYTHYdXtnkF4y9rqrmbPfNJVkNqytJ0h3aGH+p3pvzrf7B90ZjsC9b4NHZQKpWO124VJp+p6fL9+abhCQttyO+cbXWjGR0tVTLhj5KVZXLme4xt44y14zD2Ue9Dt/QFnsyWFGuSWuTUkXlzvJqiE05NvnykXPnD9ZUWV55RvWA3OyayidO+g1JzkU8mHx5wsnepqa+tHSUK5kzyznp1lJ4sRPsJcfl+qUBmYlflnVlw0hATdlwWS6jY87VjkNCbT6ZT85PSSoOEfPW+B7p9u5RLsCec+GvCfKlhIrsPDmznUnmRkcRsr43dbj0fYJ8KeLuBF0EM56zs3Fvud8UWElfdo8efM3+ptXfuUDSuaYerk9VKz7xC3i+8TgFDSd10j3aetfZWq5hjMd9H+OxYXSs9nFZT39eSGrwjBSGZ5Xiqi1MnuSJwHQmKeLd01iW7fmILbzGruV4tl0Kf5ln3UOjtriCQ5ztzewrLPb8IWnaHWaZaZ2tPmU/OGnCoeXCIgTT5iF4B/BZcmTRbZnrHU27DT771G2zNUEkZyu5A+BBLuy+24klT/Z7rGmTkMNpmvkYD5espY+QlXnpFQaqikk7mN6hZabVOAzqCDmcdkmEPlsjRMOsCxdADSsYnW2B3Z6ZIX+kh4zkJZ9eCmGxzH05kzxYpgV1OxDtzBTybXqvc9sjFLYM9tOsBQQUsYJp7fA5ZpztBjVYJG3zN+wa0WoCOmZcAzMeC1VygKyaWlbC9pAcq7QU3OjkDeukzJtmHRYgE71Qev0AD3JnZhT9EPMu9/I53hO4pMyTs3YQ3KRFrHiYOJplHcDzDcmpZ5IxH7ad7gQh7ySfdHtbq5P2kPq9qRh34LQvpNbaQuUBDZy7pLPF+8jqTZAkxcaL75v3jvPlNoU/3EjTLO1uAHJhiuREgOK/TB3RxYYpdVmjNIZHXWbq7N4DmPTmLPoWtunRMmvEQNgV0uxAuM/MdNckmo10ZAgl976v2rPxlg0G+7keX5S+jWLg3vRCOY+Qe+aJMdZD8vKRPto6ToqZAum36Yfm1qPbOtlDxt0NhQ54Qe5fY0f2trIstam/uF1O750ktam5N45T/7aIx4o/gTxfLpZsiHL3OG57P7SparQzXVMYe51e2R3mbVl40LznjvTMxZzVSHZE4rEQm7JynC/4GZfb398WdlZL9WyhxkZ5ch4E3XNqCsYyT2xm+pNvxCDzrFCuK0jczKcpzCc543H51j0IHRYr1jwXlRwWZY5wk2dqR1mAFYuFonIg7p4ji26ett59tVa66bOpuRjSJMfMg2hCsTg88FCLZ5KN2I5Leao7DWvujkZuZ261j9KUyV/K1GApgE1a0EsNquBU4bRZhvvOs90c6qR2t11WggKHCksAHMoFHbXA+Secy2HoNPMl21fdd3902u3DocNCgD1atGIRtDIRPTNcypEzGaa7M4wfUi6ipaDHC3TNUNWCaTdAbqqqmAPMhY4HNM3w3o0c4oKloOMHhCMLV+0tYD2S2BFvgHmUutlye17HF77omod5QcXTD35hcNMWubZ/xMhLW55LDNzFn+2Ph4AZ9cWrJVcwuCm2jrDjnSOidEM/8Xiiuth2h5lwZRRr1gAE0xmiaAVPJDG+Zip+jY8L7INTRqoV0WpK0KJpIN+bMV2K6KdWeI0Y9UWTSBARupoN4KOvCXcrGw9/elvBEMXYavcEcopvILvklpNUS/YYq2Tz4AXR8LSQuyoB1VnvUYUZBUD1ei2rWPBCJi2WUvdsWNue89MQSEpIx4osbCjSSw+CzNsroXFe53izXv1/MbzSYqAySotGYMHNqcoBVS3UKXXcw/y2ki6owhCDW9Ep9GV2tqP7SarKLP/boAyYhYakXv6hHTZ0f7Nya5Pp4gG/VuaUr0WyoZOeCp6ACwuXa5PxShvOyiVuUJ2Tg8k3Z+vVxW7xIH5M/S7tppATZX/BdTf7stpvFJNVrMiZ7CwAuld8QF9TtFqTB/EOabAcWSiOWK80nrv5lWns3qZ8Gb9CGJzSCkI9wZeNpEzcYDqtky3f0rhumDqYh7RASCfPgcTlQ2XlBNAjjV+4STGkXntMOTBzz3MiCRN02S7pxFYXbM0Nf+b8qGr0Q44msiHipI1+ijc+8dFcc3NXOfrf5QZdkMTNPZqPURr32BnPOk+5oD2mCDrCgNXygYt7NCGdtOT6SfQb3/m4q9r50QbmZZZr18fc3QdxV57S0Ov77ptf07hH4jd1zXej++dZ85qye07LjcH+fKdHdAr3eD2yqWMHPGU1ZkJpchbnlsJ+tbn3OhDW8OL4kJNyxsV+3JPYY1W02fXJrUbs/fn2+hveEcamlZWi20RWvIBu479yp7l+iQttsLqeZoppKhwwYwOjv2RNvBynpdlc9/NfRtjcrA8vfdtMv2WvVofDdwYO37HWwcpHQJM48tbKupWP1erSGlTpHUO8+GGUV+Strng39KmyGpknY/KPwAEZd0g05vjeGE5i9kg+5imkemOMh1391tZoIlI2+GcwmltDq1PUOf/BBx988MEHH3zwwQcffPAc9Ptjwxj338x6mzcwMMduYV9g5U13Gs5Sn/qQ9e7PEBru40YGhsEt7kM0iZMTbb8kN8SU6WHTZewbFHEHNCxDkiTX8YakI4RdzYB8C1c2pne/JE0f4wRqY342Zl7/HHfEyQTzI2KE4qR6L7bgR1R5DeHMvYWthhm1tQ9ygAHurOq1n3Tu27RK6KQ73dtwr0uMRQ+GhXPvp7e0q6PIS/s+3BmLHkYdMO5kWhmxBsKgzPtwr9epIqYeoIRxx2sEJVmaLJe6jLupg/GOUCKxsJTTO7IOl5tPlHXeoMgKmDExAfEfsOYvkt6bG+Px2BhZDlYOJ/mnndFOEEdrEfbhbW/Mf5IPotAe6iaf/TzojIPcyUVPRFhj7gZ+DSYh3SQ+QzWq6sjkXViIZCujwUbZCLmjcG2TwwrmCjk6Meqk3xG5F3vx0yLVBUHuOTsFCCDkLs/DYcFFPwo/nRPcjbjYkQ67xYKAnPjKcu8ENX9E6neQMImOLoKjbqTx+8KrhRHUbyvL3Q3p6EDSBwmTkhVlkYWjToojWYHmbfRgiDVRWe7zcBkDMm44f+M55D6Od7vOuGWcdpXkWd1QWe5WOMdAvQlm0Pso0nDCUccKD7sgNl4VcBFVlvsw3MNApw92rqfpWpB7vN1ZSjB2biJwLleVu9T4GlGLPhisnzczhNzjE05n1oXGSgF8NJXl7i3eCbnog7/5or8B93ukoaEJ09sR90aAZ39lubdjgskmDZa8X7q8BdxjMZ/Sdy8+/aE4qDL38BCPdfpAot2aNBDcu7HOzbzn+M24+79ELPpgFLfxt8W4x/sd6OSV5e7rc+HsRod48Cim7pcw9+n7cQ8XfSjpLTnZ0u0/vd9venyo3gQ6fSDMg1cjtP+0nL/xDRc98iV9aJLIBvYt+nxnplQl5zuwCqvNPZywmyEb+NDCVU1wj60VxHSopPy52tz72KIP/jNctQT3RJ9nOtJi5xRcFtXmHs2YN+aRhI+e4G5ELJjCLjbgib9WnHuk01uRZeOAbzHsd0bebGLpQCuv4twT9SZwl0YuLII75rehPfrjuDBYgtKg6tzDRT8J9dnIoCW5Y/46yoqNDwHUhSdg1blHZX46+JTijkUmEEE+eRkN2aKw6ty/QO+GuPsUxX2UcEd42N5IXNTktFefe3w213G1jeKOxzSkZWM07n/1+4bbxjp+UG27Ks+9g7enaxPfwkaNF8ggWZocnWN3gjfnlKm4SuW5f2GlblOX+BY+atjngXpjHqPNSfW5J4sZ6eS3wKiNe53IZUZ7m+pzTwq6sbfbsbh/9Z209sOI2VK/+txjxwQeUmJyv70xlfmSjS6zSqp63OXbVsXicOEnCG+fHH1G5lmNhxP6vZCMdwzc0Jki9l0AeuFPyY/n3ugGSFRvdxl8srTobzFMl9HQmUynfmlYPO2Mt3LgN2bdJcE2/FL3Teoq+6PO3Gok2SKi/XffH1YiJZf/XYlc0t5IEmpi+ieQtPRCKa+e+sPYyjHYybl/GdYwwavH8sH/gn8yRkf0soSFFwAAAABJRU5ErkJggg==;fontFamily=Georgia;fontSize=10;" parent="1" vertex="1"><mxGeometry x="197.32999999999998" y="397.5799999999999" width="40" height="32.03" as="geometry"/></mxCell><mxCell id="1aQJizUw2zjihYZcxIvp-168" value="" style="endArrow=classic;html=1;rounded=0;entryX=0;entryY=0.5;entryDx=0;entryDy=0;exitX=1;exitY=0.5;exitDx=0;exitDy=0;fontFamily=Georgia;fontSize=10;" parent="1" source="1aQJizUw2zjihYZcxIvp-167" target="1aQJizUw2zjihYZcxIvp-161" edge="1"><mxGeometry width="50" height="50" relative="1" as="geometry"><mxPoint x="167.32999999999998" y="416" as="sourcePoint"/><mxPoint x="217.32999999999998" y="366" as="targetPoint"/></mxGeometry></mxCell><mxCell id="1aQJizUw2zjihYZcxIvp-169" value="" style="endArrow=classic;html=1;rounded=0;entryX=0;entryY=0.5;entryDx=0;entryDy=0;entryPerimeter=0;fontFamily=Georgia;fontSize=10;" parent="1" target="1aQJizUw2zjihYZcxIvp-174" edge="1"><mxGeometry width="50" height="50" relative="1" as="geometry"><mxPoint x="333.3299999999999" y="417.61" as="sourcePoint"/><mxPoint x="433.3299999999999" y="407.61" as="targetPoint"/></mxGeometry></mxCell><mxCell id="1aQJizUw2zjihYZcxIvp-170" value="&lt;font&gt;IoT Devices&lt;/font&gt;&lt;div&gt;&lt;br&gt;&lt;/div&gt;" style="text;html=1;align=center;verticalAlign=middle;whiteSpace=wrap;rounded=0;fontFamily=Georgia;fontSize=10;" parent="1" vertex="1"><mxGeometry x="30.329999999999984" y="256" width="53" height="20" as="geometry"/></mxCell><mxCell id="1aQJizUw2zjihYZcxIvp-171" value="&lt;font&gt;Mobile Devices&lt;/font&gt;" style="text;html=1;align=center;verticalAlign=middle;whiteSpace=wrap;rounded=0;fontFamily=Georgia;fontSize=10;" parent="1" vertex="1"><mxGeometry x="28.829999999999984" y="319.61" width="60" height="30" as="geometry"/></mxCell><mxCell id="1aQJizUw2zjihYZcxIvp-172" value="&lt;font&gt;Meters &amp;amp; sensors&lt;/font&gt;&lt;div&gt;&lt;br&gt;&lt;/div&gt;" style="text;html=1;align=center;verticalAlign=middle;whiteSpace=wrap;rounded=0;fontFamily=Georgia;fontSize=10;" parent="1" vertex="1"><mxGeometry x="31.329999999999984" y="506" width="60" height="30" as="geometry"/></mxCell><mxCell id="1aQJizUw2zjihYZcxIvp-173" value="&lt;font&gt;Web&lt;/font&gt;&lt;div&gt;&lt;font&gt;platform&lt;/font&gt;&lt;/div&gt;" style="text;html=1;align=center;verticalAlign=middle;whiteSpace=wrap;rounded=0;fontFamily=Georgia;fontSize=10;" parent="1" vertex="1"><mxGeometry x="23" y="619.6100000000001" width="60" height="30" as="geometry"/></mxCell><mxCell id="1aQJizUw2zjihYZcxIvp-174" value="" style="sketch=0;points=[[0,0,0],[0.25,0,0],[0.5,0,0],[0.75,0,0],[1,0,0],[0,1,0],[0.25,1,0],[0.5,1,0],[0.75,1,0],[1,1,0],[0,0.25,0],[0,0.5,0],[0,0.75,0],[1,0.25,0],[1,0.5,0],[1,0.75,0]];outlineConnect=0;fontColor=#232F3E;fillColor=#8C4FFF;strokeColor=#ffffff;dashed=0;verticalLabelPosition=bottom;verticalAlign=top;align=center;html=1;fontSize=10;fontStyle=0;aspect=fixed;shape=mxgraph.aws4.resourceIcon;resIcon=mxgraph.aws4.kinesis_data_firehose;fontFamily=Georgia;" parent="1" vertex="1"><mxGeometry x="453.3299999999999" y="402.61" width="29" height="29" as="geometry"/></mxCell><mxCell id="1aQJizUw2zjihYZcxIvp-175" value="&lt;font&gt;Firehose: DeviceDataReceiver&lt;/font&gt;" style="text;html=1;align=center;verticalAlign=middle;whiteSpace=wrap;rounded=0;fontFamily=Georgia;fontSize=10;" parent="1" vertex="1"><mxGeometry x="369" y="373.61" width="128.83" height="30" as="geometry"/></mxCell><mxCell id="1aQJizUw2zjihYZcxIvp-176" value="" style="sketch=0;outlineConnect=0;fontColor=#232F3E;gradientColor=none;fillColor=#7AA116;strokeColor=none;dashed=0;verticalLabelPosition=bottom;verticalAlign=top;align=center;html=1;fontSize=10;fontStyle=0;aspect=fixed;pointerEvents=1;shape=mxgraph.aws4.s3_tables;fontFamily=Georgia;" parent="1" vertex="1"><mxGeometry x="448.8299999999999" y="506" width="38" height="38" as="geometry"/></mxCell><mxCell id="1aQJizUw2zjihYZcxIvp-177" value="" style="endArrow=classic;html=1;rounded=0;exitX=0.5;exitY=1;exitDx=0;exitDy=0;exitPerimeter=0;fontFamily=Georgia;fontSize=10;" parent="1" source="1aQJizUw2zjihYZcxIvp-174" target="1aQJizUw2zjihYZcxIvp-176" edge="1"><mxGeometry width="50" height="50" relative="1" as="geometry"><mxPoint x="553.3299999999999" y="401" as="sourcePoint"/><mxPoint x="593.3299999999999" y="351" as="targetPoint"/></mxGeometry></mxCell><mxCell id="1aQJizUw2zjihYZcxIvp-178" value="&lt;font&gt;Iceberg&lt;/font&gt;" style="text;html=1;align=center;verticalAlign=middle;whiteSpace=wrap;rounded=0;fontFamily=Georgia;fontSize=10;" parent="1" vertex="1"><mxGeometry x="430.66" y="542" width="35.33" height="15.39" as="geometry"/></mxCell><mxCell id="1aQJizUw2zjihYZcxIvp-179" value="" style="endArrow=classic;html=1;rounded=0;fontFamily=Georgia;fontSize=10;exitX=0;exitY=0.75;exitDx=0;exitDy=0;exitPerimeter=0;" parent="1" source="1aQJizUw2zjihYZcxIvp-174" target="1aQJizUw2zjihYZcxIvp-180" edge="1"><mxGeometry width="50" height="50" relative="1" as="geometry"><mxPoint x="301.05999999999995" y="427.61" as="sourcePoint"/><mxPoint x="293.3299999999999" y="537.6100000000001" as="targetPoint"/></mxGeometry></mxCell><mxCell id="1aQJizUw2zjihYZcxIvp-180" value="" style="sketch=0;outlineConnect=0;fontColor=#232F3E;gradientColor=none;strokeColor=#ffffff;fillColor=#232F3E;dashed=0;verticalLabelPosition=middle;verticalAlign=bottom;align=center;html=1;whiteSpace=wrap;fontSize=10;fontStyle=1;spacing=3;shape=mxgraph.aws4.productIcon;prIcon=mxgraph.aws4.lambda;fontFamily=Georgia;" parent="1" vertex="1"><mxGeometry x="383.00000000000006" y="457.3100000000001" width="42.27" height="28.39" as="geometry"/></mxCell><mxCell id="1aQJizUw2zjihYZcxIvp-181" value="" style="sketch=0;outlineConnect=0;fontColor=#232F3E;gradientColor=none;strokeColor=#ffffff;fillColor=#232F3E;dashed=0;verticalLabelPosition=middle;verticalAlign=bottom;align=center;html=1;whiteSpace=wrap;fontSize=10;fontStyle=1;spacing=3;shape=mxgraph.aws4.productIcon;prIcon=mxgraph.aws4.sns;fontFamily=Georgia;" parent="1" vertex="1"><mxGeometry x="343.3299999999999" y="532.6100000000001" width="40" height="40" as="geometry"/></mxCell><mxCell id="1aQJizUw2zjihYZcxIvp-182" value="" style="endArrow=classic;html=1;rounded=0;exitX=0.5;exitY=1;exitDx=0;exitDy=0;fontFamily=Georgia;fontSize=10;" parent="1" source="1aQJizUw2zjihYZcxIvp-161" target="1aQJizUw2zjihYZcxIvp-181" edge="1"><mxGeometry width="50" height="50" relative="1" as="geometry"><mxPoint x="301.05999999999995" y="467.61" as="sourcePoint"/><mxPoint x="293.3299999999999" y="577.6100000000001" as="targetPoint"/><Array as="points"/></mxGeometry></mxCell><mxCell id="1aQJizUw2zjihYZcxIvp-183" value="L3(PDs, EMail, SMS)" style="rounded=1;whiteSpace=wrap;html=1;fontFamily=Georgia;fontSize=10;" parent="1" vertex="1"><mxGeometry x="313.3299999999999" y="628" width="100" height="30" as="geometry"/></mxCell><mxCell id="1aQJizUw2zjihYZcxIvp-184" value="" style="shape=image;verticalLabelPosition=bottom;labelBackgroundColor=default;verticalAlign=top;aspect=fixed;imageAspect=0;image=data:image/jpeg,/9j/4AAQSkZJRgABAQAAAQABAAD/2wCEAAkGBwgHBgkIBwgKCgkLDRYPDQwMDRsUFRAWIB0iIiAdHx8kKDQsJCYxJx8fLT0tMTU3Ojo6Iys/RD84QzQ5OjcBCgoKDQwNGg8PGjclHyU3Nzc3Nzc3Nzc3Nzc3Nzc3Nzc3Nzc3Nzc3Nzc3Nzc3Nzc3Nzc3Nzc3Nzc3Nzc3Nzc3N//AABEIAJQAzwMBEQACEQEDEQH/xAAcAAEAAQQDAAAAAAAAAAAAAAAABQIDBAYBBwj/xABAEAABBAECAwQFCgMHBQAAAAABAAIDBBEFIQYSMRNBUXEiMmGBsgcUNDZic3SRobFTctEVIyZCUsHhQ2SSs/D/xAAaAQEAAwEBAQAAAAAAAAAAAAAAAQIFAwQG/8QAMxEAAgICAQIDBwMEAQUAAAAAAAECAwQRIQUxEkFRIjIzYXGh0ROBkRQjsfDBFiRSYuH/2gAMAwEAAhEDEQA/AO8UAQBAEAQBAEAQAoDV+KOOdI4dDopZfnF0DIqwkFw/mPRo812rx52crsc52RgdQ8T8aaxxGXRzymtUztWhcQ0j7R/zft7FoV0Qh9TyytlM1sN8APyXY5lxrCUAdGVGyNFBbkEHcHrndSSbbwrx9q+ghkMsjr1If9KZxLmD7LjuPI5XCzHhPnszpG2UTtzhri/SeImAUrAZYAy+tL6Mjfd3j2hZ1lM6+64PXGyMuxPtJPVci5ypAQBAEAQBAEAQBAEAQBAEAQBAQ+v8R6Xw/WM2qW2xZ9WMek958Gt71eFcrH7JSU4x7nU/E/yl6pq4fBpjXafUO2QcyuHtPd7vzXvrxYw5lyzzSuk+3Bo7GEnxycknqSvUcS+ISQo2SGwHKbBnVage5oI2J7lRyJ0ZOoacyB4bHk5HUqIvYS4IqSAgq+yCnsDjJU7BQA+KRssb3MkYctew4c0+IPcUb33IN94Z+VG9p4ZBrkbrtcEDtmYErR7QcB36FeSzEjJ7hwd4XtcSO1dG1rT9brCzpdpk8Z68uxafAg7j3rwzhKD1JHpjOMlwSIVSxygCAIAgCAIAgCAIAgCAxNQv1NNrvs3rEcELernuwFKi5PSRDaS5OruKPlVlkL63DcXIzp88mbkn+Vvd5n8l7a8Rd5nmne37p1vasT3bLrNud887/WkkcS4+9e1JR4Rw79yhrcqewM+rW5iMKjbJS2bNpemVnU5DNEHvycOK+d6pm5FGVCFUuH+TZwMWq2iUprlMiH0yw7jPsX0LZj642SNSWJkbG9iMjA5lzkiGjItTRsfyui5tvYoSI0Q7q/aSOc1uznLpstoyGUYuQ87fSxsubm0yr76I23TLercLrGRLRGSM5ThdNkFzT71vTLTbWn2JK87f88bsZ8/H3qsoqS0wm09o7O4W+VVkhbW4jiEbuguQj0D/ADN7vMbeS8VmJxus9EL/ACmdm1bMFuBk1aZksTxlr2OyCvG01wz0Jp9i8oJCAIAgCAIAgCA4dsgOu+KvlOp6e6SrokYuWm5aZX5ETD+7vd+a9dWLKXMuEcJ3pe6dUaxrGo63a+c6pbfYl7gdmsHg1vQL3whGC1FHllJy7mCrEBAZEAyQoJNw0mpQdVikfLiUjJHOP2XzmbmdRhfJVQ3FfJ/k28XFw5VRc5afnyTMDI2xlkZy3zWFmXZU7YytjqS7cP8AJq49dEa3GqW0+/KMSWrRdtJJyg/aWj/XdVXav7P8ni/pOn/+f3NfleI53iLdodt3r6evxOCcu5g2JKTUexxLZfM7mftthX0URl12js2uHXvXNtkba7F8l3MNgqFW3stWY2Sg9pt1V1JonbNcuMDZCB0C9EXwDBI3ViDhCCV0HiHVeH5+10u26Np9eF3pRyebf9xg+1UnXCa9pF4ylHsdt8JfKNp+tSRU70fzK8/Aa0nMch+yf9is+3GlDlco9ULlLhm9LzHYIAgCAIAgCAol9R3kUIPLtz6bZ++f8RW2uyM7zZaUgICpoygMqBhJCqyUS9QuZg74XN8llo2TTJTJTeSc4cR+i+V6zr+tr/3zPoemP/tpkBNNzjAGfevq9aPnlwuCulWE0re0zjG+F482+VFEpw7o9eFRG6+MJdmXb9NsPL2WT57rz9MzLMmEpWa49D0dTw68acY1759TEjeYnY3Wn3M0z2y8wD9tlya5KP3jFuP5x0710SLshrLDnouiKNGC4YKuQUIAgJXhMf4o0nYfSmfuudvw2Wh7yPSqxzQCAIAgCAIAgKJfUd5FAeXbn02z98/4ittdkZpaUgIC7EMqGCd06jJJGJGty3PXK4ymkWRL2K7nsjDGDIGDhcYzXqSmiOldLC8xlzm+Ia7C6OEJ8tL+CynJLSZdp1HTtLg5oAON1483qNeLJRmm988a/J7sPp9mVFyg0tPXO/wS0ELYWnI3PQrIzOq1X0yrjF8/T8mph9KuoujZKS0vr+CqSMPGHDdefp/UIYkJKab2/I9HUcCzKnFwaWlrkjLdJzGuk5m4b3d62cfq9V9irjF8+uvyY9/SrqK3ZKS0vTf4MFkhBxnZarRlouPc10ZwcnwwqnRR0yzMxjmbeG6smRKD2Q1hmHLqjkY56qSDhAS3Cf1o0n8Uxc7fhyLQ95HpRY5oBAEAQBAEAQFEvqO8igPLtz6bZ++f8RW2uyM0tKQEBdiOCoBNULr42coeQ3wC5SimWRM2Z3NZEWP3IzscrjCK80SkiMnfzPy93pHpnvV3OEHpvR3rx7rIuUINpF6tZfAOVpGCcnZcMjCoyGpWLbXzZ0xs2/Hi1W9J/Qla1gSjBxzLKz+n49NEpwjyvmzTweoZF2RGE5cP5IuTSiNu/VeXpWHTkQk7F2Z6eq5l2POKrfdETauSPDo8jlPUYW3T03GpmrIR0183+TFt6jk3QcJy4fyRghzWSBrnAOPQZXvPEZDyBHuN1Vo6J88mPPM0NwAOilIrKT2RE78uXVHMxipICAluE/rRpP4pi52/DkWh7yPSixzQCAIAgCAIAgKJfUd5FAeXbn02z98/4ittdkZpaUgIDlpwgMqu4kjdVZKJmoOY7kfmuMpJd2dY1zlrjj6HGosDbldo5cEDoem6y8uSdyZ9Z0ZTjhWeJae/+C/aiDNw5p9601ZHzZ8p+lZ20/4FOwIZg52QMb964ZlEr6HCHdnfDvjj3qc+yLt64yUjsiduuQvP0zCsxYSVnmejqWZXlTjKvyMSJrXvHO5oPfl3RaXJm8GFqDGN1usGuGDybg9PSKtHfhKtcklcDGA+mz2YdlVRZkNZcc7q6KMwnHJVyChAEBLcJ/WjSfxTFzt+HItD3kelFjmgEAQBAEAQBAUS+o7yKA8u3Pptn75/xFba7IzS0pAQBAZEDsEdyqyUScEDJzkvx5BZt2F45Oez6HD67LHojV4N6+ZzapshmijZIXB++cAd68N1H6c1DZv4XUHk0St8OtP/AI2XptOijPoyk7+AXqWB/wCxk/8AUkuGq/uccngtGK8KSPm7J/qTcvU55FJVpoxv7KZYnc4zFvMc7NBVvE0U8JiWtPbBqENUS8zZA30sdMnClS42Q1yZFjSIoMclguxsCGhQpbJ1oxbLtwM5wMKyIMQ9VYg4QBAS3Cf1o0n8Uxc7fhyLQ95HpRY5oBAEAQBAEAQFEvqO8igPLtz6bZ++f8RW2uyM0tKQEAQFTSgMyvYLCFVolPT2ZUkwkex+fVWfkY1k7Iyib/TOpY+Nizqs3t78tlx9nnPmvbrRg/IyYnHl9EA5VWdIpHILgw+iMeKjZZpeZiun5Hq+jkYtkmW7HN6OG8v6HKsu2iPmVW7fMdkSI2Rz3cxyrkFCAIAgJbhP60aT+KYudvw5Foe8j0osc0AgCAIAgCAICiX1HeRQHl259Ns/fP8AiK212RmlpSAgCAICoOI6IC4JSAo0Cpsx5k0SZte1yjfoqNEplyS03lwM4UKJaUtsj5JiTsuiRQp7YpogtucSpBQgCAIAgJbhP60aT+KYudvw5Foe8j0osc0AgCAIAgCAICiX1HeRQHl259Ns/fP+IrbXZGaWlICAIAgCAZ8UBznBQFTXnxQgrkEzI45JI5GMkGWOewgOHsJ6+5Rx2J5LROVIOEAQBAEAQBAS3Cf1o0n8Uxc7fhyLQ95HpRY5oBAEAQBAEAQFEvqO8igPLtvPz2zj+M/4ituPYzWZOgV4beuUK1lvNFNOxjxnGQT0UWPUG0TFJySK+I60FHiHU6dccsMFmSONuckNDsAKKm3BNielJojlcrsyq2m6hbjdJS069Zjad3wVnyNHvaFVyiu7LJSfZFN6jb06bsL9aWvNyh3ZytLXYPfgqYyUltBpp6ZLcB0q2pcX6bTvQtmryukD43dHYieR09oC53tqtteRaC3NIw9Y0m/Ss25ZdMuV6gsSBkslaRsfLzkN9IjHTGPFWjOLS55IlFpvjgjcfqrlTa+Kh/g/g0/9tY+Ji89XxJ/U6T92Bqm//A3XoOZmWNI1SrX+cW9LvQQfxZqz2N/MjAVVOLekyWpLlow9vHbyViNmRUo3bpcKVK3aLT6QrV3y8vnyg4UOUV3eiUm+yKr2m39PERv0rFXtRmPt4ywuHfsd0Uovs9hprui1XrWbTntqVbFhzGl7hDE5/K0d5wNh7UbS7sjl9jiGvYsMlkr155o4W88r4onObG09C4geiNj18EbS7scvsSXCf1o0r8UxUt+HImHvI9KLHNEIAgCAIAgCAol9Q+RQHl26M27QOxMsgwT9orbj7qM1rlm68N8Xvm1XTqn9haQwOmYztWQem3uz5rzWUJRb2doWPaWi5xNxi6trmqU/7C0mQR2JI+2kgy92CRzH2qK6NwT2yZ26k1pHX8hIY8t9bBIXsXc4NHYXGepaxpDNJr8OTWK+kjT431312bSOPUnA69PzXjpjCXic++ztZKa14Oxh/K2SeLWF3rGlFk/+Sti/D/ci73/2MH5NPr5o4+3L/wCmRXyfgy/3zRFXvo2PhfVNdvcZ3aV+WzY0tzrDbLJ2ZjZEObB3GB3D3rjbGuNace/B0i5uxp9jrmYRieUQnmiEjhGc5y3Jx+mF7Eed+ejaOK/qdwZ+GsfFGuFXxLPqi8vcgPkvirzcaVBaDSGse+MO/wBYG3v6pkt/p8E0++bSziylX1i9HqEPFVwTc8U1GetCYgO/ADsgDzXn/RbgmtL+Tr+olJp7Z1W31Rg5A717+y+h5dehvdy3qWl8C6CdAfLDBNzm1JXblxlz0ccFeWKjK6XjPRJtVrwnHyiT2LOh8LzXHvfYfWc6Rzxhxdt19qYySnLRF3ZFn5LAXavqrGDLnaVKAO8+kxTk+5F/P8inu0W+BInM4S40kewsadOiYHOGBkCXI89x+am9p2V69fwRXxXLZC8J/WjSh3/OmdPNdLX/AG2ykPeR6UWOaAQBAEAQBAEBTINj44UMldzqfiDhqjqE0rnxmCxk/wB7GN/eO9ZmP1K/Gl4e8d9n+TUtwaciO+z9UaPZ0zUuH7sdtgDhC8Pjma3mbkHbI7vevocbOoyl4YvT9GYmRhXY721teq/BHXbc1+5PcsuDp55DJIQMAuJydl7oxUVpHkb3yywpIJ3SOL9d0et82o3nNgBy2N7A9rfLIOFylTCT2y6slHhEdq2q3dZuuualOZpyA3mLQNh0GArwhGC1Eq5OT2y1RuWdPuRW6MzobERJZI3qMgg/oSFMoqS0yNtPaJjU+NOINTqOq2tQd2Dxh7Yo2x8w9pG5XKOPWntIu7JNEB5FdjmS+r60NR0fRdObXMZ02KSMvL8iTnLTnGNvVXKFfhlKW+5eT2kvQi4JpIJWSwSOjkjIcx7DgtPiF10mtMquHtGyP4/4llrGB2oNw5vK6TsGc5HmuKx6096On6stcmsNHo4HTouz5OfYltE4k1jQmvj0y46OJ5y6NzQ9pPjg965zqhN7ki0ZyitJlGua/qevSxy6rZ7Z0YwwcoaG+QCmFcYe6hKTl3MXTtQt6ZbZboWH15484kZ1weo8irSipLT7EKTi9m0CzxPxTUFe9ZENBzg5xETYw/v6NA5llZObjYj45l9TQx8LIyFzxE2rhLQKel3K/wA3i7SYvGZX7uP9PcsaWffk3JS4XojVWHTj1Pw9/VnZ60zLCAIAgCAIAgCAwdQ0yveH963D+ge3Yj+q4XY8LV7SO1WROp+yarqmhT1Q48nbQ97mj9wsm7Ftqe0atOXXZwzRdX4UrTl0lI/N5TvyD1He7u9y9uJ1i2n2bfaj9zz5PSqrfbrfhl9jULtGzQl7O1EYyeh6td5FfS0ZNWRHdb3/AJMC/Hsolqxa/wAGNn2ru+O5xCAIAgCAIAgCAIAg79jM07TLeoyYqxZb3yHZo968uTmU4y3Y/wBvM9GNi3ZD/trj18jctH4XrVCyWwPnE/cXD0Wn2Dx9pXzWX1a69eGHsx+/8/g+gx+m0Ue1P2n9v4/JvOmcPz2A18o7GP2jc+QXCnCnZzLhfcvfmxhxHlm0UqFek3EEeD3uO5K1KqIVLUUZdl07HuTMtdjkEAQBAEAQBAEAQHBGfJQCI1LQK1vL4h2Up729CfJeS/DhZyuGeujMnXw+UafrGhviaYbtcPidsMjmaVlSruxp+KPHzRrQuqyI+F8/JmkatwoW80mnPHiYnn9j/VbWH1vSUL1+/wCTLy+j73Ol/t+DV5YZIJDHNG6OQdWubghfQV2QsipQe0YUoShLwzWmUK5UIAgCAIB/9hAXa1ea1KIq0T5XnuaOnme5crrq6Y+Kx6X+/wAnSqqdsvDBbZtekcJsbyy6g7tHfwm+qPM96+dyuuTfs4/HzN7G6PBe1fy/Q3jSNDlsBra8QjhHQ4w0D2eKyqqLbpb+7NC3Jrpj4fsjbdN0WtSAdy9pL/qcOnktanErq51tmTdl2W8dkSo6L1HlCAIAgCAIAgCAIAgCAIAgKHxtewte0OaeoIyoaTWmSm1yjX9T4aZIHSUiGv6ljjsfJZ1+AnzWaFGe48WGm6zobJ8w36xBHTIwW+RXiqtvxJew9f4f7GhOFGVDU1v/AD/JpOq8MWKhdJUPbxf6f84/qvocTrNVns3ey/sYeV0i2HtU+0vv/wDSBILSQQQR1BW15bMjWu5wgCAqjY+RzWsaS49ABklVlKMVtvSJjFyekuTYdJ4VnnxJfJiZ1ETT6R8/BYeX1uEG44/L9fI2MXpEpLxX8L0/Ju+kaJgCChVDQOoaOnmVgt3ZU9y22bW6cWGopJG46bw7FDiS3iSTryj1R/VaFGDGPNnJm3Z0pcQ4ROsbytAAAA6ABaCSS0jwNtlSAIAgCAIAgCAIAgCAIAgCAIAgOD0Qh8GParQ2o+znjDmnb2hc51xsWpIvGyVTTizR9VqRV7MkUYJa0jGVgZFarm4x7I+gx7ZTitmra7pNO3BJLJHyytGRIzY/8+9enAz76LFCL4fkzlmYdN8HKS59UdfkYJHgV9uz5ARHnsRRnYOeG5HUAqknqPBMeZaOyNJ0inRaBBF6XfI7dx96+Hyc27Kl/cfHp5H2ePiVY0f7a59fM2fRKMNy4Ipebk5c4aVGLTGyzwtlMu6VVfiibpXgirxhkMbWNHcAtuuMUtJaMKUnJ7ky8OuF0K7OUAQBAEAQBAEAQH//2Q==;fontFamily=Georgia;fontSize=10;" parent="1" vertex="1"><mxGeometry x="393.98" y="677.6100000000001" width="60.69" height="43.39" as="geometry"/></mxCell><mxCell id="1aQJizUw2zjihYZcxIvp-185" value="" style="endArrow=classic;html=1;rounded=0;fontFamily=Georgia;fontSize=10;entryX=0.5;entryY=1;entryDx=0;entryDy=0;" parent="1" source="1aQJizUw2zjihYZcxIvp-176" target="1aQJizUw2zjihYZcxIvp-154" edge="1"><mxGeometry width="50" height="50" relative="1" as="geometry"><mxPoint x="273.3299999999999" y="336" as="sourcePoint"/><mxPoint x="533.3299999999999" y="525" as="targetPoint"/><Array as="points"><mxPoint x="663.3299999999999" y="526"/></Array></mxGeometry></mxCell><mxCell id="1aQJizUw2zjihYZcxIvp-186" value="" style="endArrow=classic;html=1;rounded=0;fontSize=10;fontFamily=Georgia;" parent="1" source="1aQJizUw2zjihYZcxIvp-181" target="1aQJizUw2zjihYZcxIvp-183" edge="1"><mxGeometry width="50" height="50" relative="1" as="geometry"><mxPoint x="283.3299999999999" y="316" as="sourcePoint"/><mxPoint x="333.3299999999999" y="266" as="targetPoint"/></mxGeometry></mxCell><mxCell id="1aQJizUw2zjihYZcxIvp-187" value="Leadership Dashboards" style="text;html=1;align=center;verticalAlign=middle;whiteSpace=wrap;rounded=0;fontSize=10;fontFamily=Georgia;" parent="1" vertex="1"><mxGeometry x="378.3299999999999" y="737.6100000000001" width="140" height="20" as="geometry"/></mxCell><mxCell id="1aQJizUw2zjihYZcxIvp-188" value="Operational Support Teasm Dashboards" style="text;html=1;align=center;verticalAlign=middle;whiteSpace=wrap;rounded=0;fontSize=10;fontFamily=Georgia;" parent="1" vertex="1"><mxGeometry x="442.3299999999999" y="270.81999999999994" width="220" height="20" as="geometry"/></mxCell><mxCell id="1aQJizUw2zjihYZcxIvp-189" value="" style="shape=image;verticalLabelPosition=bottom;labelBackgroundColor=default;verticalAlign=top;aspect=fixed;imageAspect=0;image=https://www.svgrepo.com/show/354111/new-relic.svg;fontSize=10;fontFamily=Georgia;" parent="1" vertex="1"><mxGeometry x="602.6699999999998" y="292.79999999999995" width="50" height="50" as="geometry"/></mxCell><mxCell id="1aQJizUw2zjihYZcxIvp-190" value="" style="shape=image;verticalLabelPosition=bottom;labelBackgroundColor=default;verticalAlign=top;aspect=fixed;imageAspect=0;image=https://www.pinclipart.com/picdir/big/129-1298432_splunk-icon-free-png-and-svg-download-carnival.png;fontSize=10;fontFamily=Georgia;" parent="1" vertex="1"><mxGeometry x="664.26" y="309.79999999999995" width="72.07" height="20" as="geometry"/></mxCell><mxCell id="1aQJizUw2zjihYZcxIvp-191" value="" style="sketch=0;outlineConnect=0;fontColor=#232F3E;gradientColor=none;strokeColor=#ffffff;fillColor=#232F3E;dashed=0;verticalLabelPosition=middle;verticalAlign=bottom;align=center;html=1;whiteSpace=wrap;fontSize=10;fontStyle=1;spacing=3;shape=mxgraph.aws4.productIcon;prIcon=mxgraph.aws4.athena;fontFamily=Georgia;" parent="1" vertex="1"><mxGeometry x="474.3299999999999" y="677.6100000000001" width="47" height="36" as="geometry"/></mxCell><mxCell id="1aQJizUw2zjihYZcxIvp-192" value="" style="shape=image;verticalLabelPosition=bottom;labelBackgroundColor=default;verticalAlign=top;aspect=fixed;imageAspect=0;image=https://www.nrb.be/sites/default/files/dynatrace_logo_color_positive_vertical.png;fontSize=10;fontFamily=Georgia;" parent="1" vertex="1"><mxGeometry x="533.3299999999999" y="290.81999999999994" width="61.97" height="61.97" as="geometry"/></mxCell><mxCell id="1aQJizUw2zjihYZcxIvp-193" value="" style="sketch=0;outlineConnect=0;fontColor=#232F3E;gradientColor=none;strokeColor=#ffffff;fillColor=#232F3E;dashed=0;verticalLabelPosition=middle;verticalAlign=bottom;align=center;html=1;whiteSpace=wrap;fontSize=10;fontStyle=1;spacing=3;shape=mxgraph.aws4.productIcon;prIcon=mxgraph.aws4.cloudwatch;fontFamily=Georgia;" parent="1" vertex="1"><mxGeometry x="753.3299999999999" y="294.79999999999995" width="53" height="50" as="geometry"/></mxCell><mxCell id="1aQJizUw2zjihYZcxIvp-194" value="" style="sketch=0;outlineConnect=0;fontColor=#232F3E;gradientColor=none;strokeColor=#ffffff;fillColor=#232F3E;dashed=0;verticalLabelPosition=middle;verticalAlign=bottom;align=center;html=1;whiteSpace=wrap;fontSize=10;fontStyle=1;spacing=3;shape=mxgraph.aws4.productIcon;prIcon=mxgraph.aws4.lambda;fontFamily=Georgia;" parent="1" vertex="1"><mxGeometry x="626" y="660" width="41.83" height="42" as="geometry"/></mxCell><mxCell id="1aQJizUw2zjihYZcxIvp-195" value="" style="endArrow=classic;html=1;rounded=0;exitX=1;exitY=0.5;exitDx=0;exitDy=0;fontSize=10;fontFamily=Georgia;exitPerimeter=0;" parent="1" source="_C0t6QlBZhCr6sV7qJL--3" target="_C0t6QlBZhCr6sV7qJL--1" edge="1"><mxGeometry width="50" height="50" relative="1" as="geometry"><mxPoint x="173.32999999999998" y="786" as="sourcePoint"/><mxPoint x="223.32999999999998" y="736" as="targetPoint"/><Array as="points"><mxPoint x="577" y="551"/></Array></mxGeometry></mxCell><mxCell id="1aQJizUw2zjihYZcxIvp-196" value="" style="sketch=0;points=[[0,0,0],[0.25,0,0],[0.5,0,0],[0.75,0,0],[1,0,0],[0,1,0],[0.25,1,0],[0.5,1,0],[0.75,1,0],[1,1,0],[0,0.25,0],[0,0.5,0],[0,0.75,0],[1,0.25,0],[1,0.5,0],[1,0.75,0]];outlineConnect=0;fontColor=#232F3E;fillColor=#01A88D;strokeColor=#ffffff;dashed=0;verticalLabelPosition=bottom;verticalAlign=top;align=center;html=1;fontSize=10;fontStyle=0;aspect=fixed;shape=mxgraph.aws4.resourceIcon;resIcon=mxgraph.aws4.bedrock;fontFamily=Georgia;" parent="1" vertex="1"><mxGeometry x="723.8599999999999" y="661" width="48" height="48" as="geometry"/></mxCell><mxCell id="1aQJizUw2zjihYZcxIvp-197" value="" style="endArrow=classic;html=1;rounded=0;fontSize=10;fontFamily=Georgia;" parent="1" source="1aQJizUw2zjihYZcxIvp-194" target="1aQJizUw2zjihYZcxIvp-196" edge="1"><mxGeometry width="50" height="50" relative="1" as="geometry"><mxPoint x="120.85999999999996" y="938.3899999999999" as="sourcePoint"/><mxPoint x="170.85999999999996" y="888.3899999999999" as="targetPoint"/></mxGeometry></mxCell><mxCell id="1aQJizUw2zjihYZcxIvp-198" value="L2(PDs, EMail, SMS)" style="rounded=1;whiteSpace=wrap;html=1;fontFamily=Georgia;fontSize=10;" parent="1" vertex="1"><mxGeometry x="613.3300000000002" y="156" width="100" height="30" as="geometry"/></mxCell><mxCell id="1aQJizUw2zjihYZcxIvp-199" value="" style="endArrow=classic;html=1;rounded=0;fontSize=10;fontFamily=Georgia;" parent="1" source="1aQJizUw2zjihYZcxIvp-154" target="1aQJizUw2zjihYZcxIvp-198" edge="1"><mxGeometry width="50" height="50" relative="1" as="geometry"><mxPoint x="383.3299999999999" y="766" as="sourcePoint"/><mxPoint x="433.3299999999999" y="716" as="targetPoint"/></mxGeometry></mxCell><mxCell id="1aQJizUw2zjihYZcxIvp-200" value="" style="image;aspect=fixed;html=1;points=[];align=center;fontSize=10;image=img/lib/azure2/other/Azure_Monitor_Dashboard.svg;fontFamily=Georgia;" parent="1" vertex="1"><mxGeometry x="765.8299999999999" y="257.18000000000006" width="40.5" height="37.64" as="geometry"/></mxCell><mxCell id="1aQJizUw2zjihYZcxIvp-201" value="" style="sketch=0;outlineConnect=0;fontColor=#232F3E;gradientColor=none;strokeColor=#ffffff;fillColor=#232F3E;dashed=0;verticalLabelPosition=middle;verticalAlign=bottom;align=center;html=1;whiteSpace=wrap;fontSize=10;fontStyle=1;spacing=3;shape=mxgraph.aws4.productIcon;prIcon=mxgraph.aws4.api_gateway;fontFamily=Georgia;" parent="1" vertex="1"><mxGeometry x="623.3299999999999" y="736.81" width="49" height="60" as="geometry"/></mxCell><mxCell id="1aQJizUw2zjihYZcxIvp-202" value="" style="endArrow=classic;html=1;rounded=0;startArrow=classic;startFill=1;fontSize=10;fontFamily=Georgia;" parent="1" source="1aQJizUw2zjihYZcxIvp-194" target="1aQJizUw2zjihYZcxIvp-201" edge="1"><mxGeometry width="50" height="50" relative="1" as="geometry"><mxPoint x="155.32999999999998" y="906" as="sourcePoint"/><mxPoint x="205.32999999999993" y="856" as="targetPoint"/></mxGeometry></mxCell><mxCell id="1aQJizUw2zjihYZcxIvp-203" value="" style="endArrow=classic;html=1;rounded=0;exitX=0.5;exitY=0;exitDx=0;exitDy=0;fontSize=10;fontFamily=Georgia;" parent="1" target="1aQJizUw2zjihYZcxIvp-201" edge="1"><mxGeometry width="50" height="50" relative="1" as="geometry"><mxPoint x="648.085" y="856" as="sourcePoint"/><mxPoint x="365.3299999999999" y="876" as="targetPoint"/></mxGeometry></mxCell><mxCell id="1aQJizUw2zjihYZcxIvp-204" value="" style="endArrow=classic;html=1;rounded=0;exitX=0.5;exitY=1;exitDx=0;exitDy=0;fontSize=10;fontFamily=Georgia;entryX=0.5;entryY=0;entryDx=0;entryDy=0;" parent="1" source="1aQJizUw2zjihYZcxIvp-183" target="1aQJizUw2zjihYZcxIvp-209" edge="1"><mxGeometry width="50" height="50" relative="1" as="geometry"><mxPoint x="293.3299999999999" y="840" as="sourcePoint"/><mxPoint x="247.32999999999993" y="730" as="targetPoint"/><Array as="points"/></mxGeometry></mxCell><mxCell id="1aQJizUw2zjihYZcxIvp-205" value="" style="shape=image;verticalLabelPosition=bottom;labelBackgroundColor=default;verticalAlign=top;aspect=fixed;imageAspect=0;image=https://cdn-icons-png.flaticon.com/512/5292/5292223.png;fontSize=10;fontFamily=Georgia;" parent="1" vertex="1"><mxGeometry x="618.0799999999999" y="856" width="60" height="60" as="geometry"/></mxCell><mxCell id="1aQJizUw2zjihYZcxIvp-206" value="Leadership Team" style="sketch=0;outlineConnect=0;fontColor=#232F3E;gradientColor=none;strokeColor=#232F3E;fillColor=#ffffff;dashed=0;verticalLabelPosition=bottom;verticalAlign=top;align=center;html=1;fontSize=10;fontStyle=0;aspect=fixed;shape=mxgraph.aws4.resourceIcon;resIcon=mxgraph.aws4.users;fontFamily=Georgia;" parent="1" vertex="1"><mxGeometry x="497.8299999999999" y="847" width="50" height="50" as="geometry"/></mxCell><mxCell id="1aQJizUw2zjihYZcxIvp-207" value="" style="endArrow=classic;html=1;rounded=0;entryX=0;entryY=0.25;entryDx=0;entryDy=0;fontSize=10;fontFamily=Georgia;" parent="1" source="1aQJizUw2zjihYZcxIvp-206" target="1aQJizUw2zjihYZcxIvp-205" edge="1"><mxGeometry width="50" height="50" relative="1" as="geometry"><mxPoint x="383.3299999999999" y="1016" as="sourcePoint"/><mxPoint x="433.3299999999999" y="966" as="targetPoint"/></mxGeometry></mxCell><mxCell id="1aQJizUw2zjihYZcxIvp-208" value="" style="endArrow=classic;html=1;rounded=0;entryX=0.75;entryY=1;entryDx=0;entryDy=0;fontSize=10;fontFamily=Georgia;" parent="1" source="1aQJizUw2zjihYZcxIvp-206" edge="1"><mxGeometry width="50" height="50" relative="1" as="geometry"><mxPoint x="550.3" y="756.8255729930156" as="sourcePoint"/><mxPoint x="459.3299999999997" y="757.6100000000004" as="targetPoint"/><Array as="points"><mxPoint x="459.3299999999999" y="836"/></Array></mxGeometry></mxCell><mxCell id="1aQJizUw2zjihYZcxIvp-209" value="A" style="ellipse;whiteSpace=wrap;html=1;aspect=fixed;fontSize=10;fontFamily=Georgia;" parent="1" vertex="1"><mxGeometry x="348.3299999999999" y="690" width="30" height="30" as="geometry"/></mxCell><mxCell id="1aQJizUw2zjihYZcxIvp-210" value="Predictions, Summerization, Planning" style="text;html=1;align=center;verticalAlign=middle;whiteSpace=wrap;rounded=0;fontSize=10;fontFamily=Georgia;" parent="1" vertex="1"><mxGeometry x="547.8299999999999" y="834" width="60" height="30" as="geometry"/></mxCell><mxCell id="1aQJizUw2zjihYZcxIvp-211" value="A" style="ellipse;whiteSpace=wrap;html=1;aspect=fixed;fontSize=10;fontFamily=Georgia;" parent="1" vertex="1"><mxGeometry x="723.8599999999999" y="871" width="30" height="30" as="geometry"/></mxCell><mxCell id="1aQJizUw2zjihYZcxIvp-212" value="" style="endArrow=classic;html=1;rounded=0;exitX=0;exitY=0.5;exitDx=0;exitDy=0;entryX=1;entryY=0.5;entryDx=0;entryDy=0;fontSize=10;fontFamily=Georgia;" parent="1" source="1aQJizUw2zjihYZcxIvp-211" target="1aQJizUw2zjihYZcxIvp-205" edge="1"><mxGeometry width="50" height="50" relative="1" as="geometry"><mxPoint x="35.329999999999984" y="906" as="sourcePoint"/><mxPoint x="85.32999999999998" y="856" as="targetPoint"/></mxGeometry></mxCell><mxCell id="1aQJizUw2zjihYZcxIvp-213" value="Error Roots&lt;div&gt;Error Resolution Steps&lt;/div&gt;&lt;div&gt;ETAs&lt;/div&gt;" style="text;html=1;align=center;verticalAlign=middle;whiteSpace=wrap;rounded=0;fontSize=10;fontFamily=Georgia;" parent="1" vertex="1"><mxGeometry x="678.0799999999999" y="839" width="127.73" height="25" as="geometry"/></mxCell><mxCell id="1aQJizUw2zjihYZcxIvp-214" value="AI Integration - MAIM Model" style="rounded=0;whiteSpace=wrap;html=1;fontSize=10;fontFamily=Georgia;" parent="1" vertex="1"><mxGeometry x="636.3299999999999" y="567.6100000000001" width="150" height="19" as="geometry"/></mxCell><mxCell id="1aQJizUw2zjihYZcxIvp-215" value="MOPL Model" style="rounded=0;whiteSpace=wrap;html=1;fontSize=10;fontFamily=Georgia;" parent="1" vertex="1"><mxGeometry x="362.3299999999999" y="323.61" width="120" height="19" as="geometry"/></mxCell><mxCell id="1aQJizUw2zjihYZcxIvp-216" value="" style="edgeStyle=orthogonalEdgeStyle;rounded=0;orthogonalLoop=1;jettySize=auto;html=1;" parent="1" target="1aQJizUw2zjihYZcxIvp-188" edge="1"><mxGeometry relative="1" as="geometry"><mxPoint x="478.3299999999999" y="226" as="sourcePoint"/></mxGeometry></mxCell><mxCell id="1aQJizUw2zjihYZcxIvp-217" value="Operational Support Team" style="sketch=0;outlineConnect=0;fontColor=#232F3E;gradientColor=none;strokeColor=#232F3E;fillColor=#ffffff;dashed=0;verticalLabelPosition=bottom;verticalAlign=top;align=center;html=1;fontSize=10;fontStyle=0;aspect=fixed;shape=mxgraph.aws4.resourceIcon;resIcon=mxgraph.aws4.users;fontFamily=Georgia;" parent="1" vertex="1"><mxGeometry x="453.3299999999999" y="150" width="50" height="50" as="geometry"/></mxCell><mxCell id="1aQJizUw2zjihYZcxIvp-218" value="" style="endArrow=classic;html=1;rounded=0;" parent="1" source="1aQJizUw2zjihYZcxIvp-217" edge="1"><mxGeometry width="50" height="50" relative="1" as="geometry"><mxPoint x="247.32999999999993" y="266" as="sourcePoint"/><mxPoint x="547.3299999999999" y="175" as="targetPoint"/></mxGeometry></mxCell><mxCell id="1aQJizUw2zjihYZcxIvp-219" value="A" style="ellipse;whiteSpace=wrap;html=1;aspect=fixed;fontSize=10;fontFamily=Georgia;" parent="1" vertex="1"><mxGeometry x="547.8299999999999" y="160" width="30" height="30" as="geometry"/></mxCell><mxCell id="1aQJizUw2zjihYZcxIvp-220" value="Event Driven Architecture for Realtime Devices Management(MAIM Model)" style="rounded=0;whiteSpace=wrap;html=1;fontFamily=Lucida Console;fontSize=22;fontColor=#FFFFFF;fillColor=#000099;" parent="1" vertex="1"><mxGeometry x="23" y="70" width="730" height="40" as="geometry"/></mxCell><mxCell id="1aQJizUw2zjihYZcxIvp-221" value="Data Tranformation&lt;div&gt;(Error Handling)&amp;nbsp;&lt;/div&gt;" style="text;html=1;align=center;verticalAlign=middle;whiteSpace=wrap;rounded=0;fontSize=9;fontFamily=Georgia;" parent="1" vertex="1"><mxGeometry x="346" y="501.61" width="114.14" height="17.39" as="geometry"/></mxCell><mxCell id="1aQJizUw2zjihYZcxIvp-223" value="Bedrock Client" style="text;html=1;align=center;verticalAlign=middle;whiteSpace=wrap;rounded=0;fontFamily=Georgia;fontSize=9;" parent="1" vertex="1"><mxGeometry x="623.26" y="650" width="93" height="10" as="geometry"/></mxCell><mxCell id="1aQJizUw2zjihYZcxIvp-224" value="AWS Bedrock Models" style="text;html=1;align=center;verticalAlign=middle;whiteSpace=wrap;rounded=0;fontFamily=Georgia;fontSize=9;" parent="1" vertex="1"><mxGeometry x="701.36" y="713" width="93" height="10" as="geometry"/></mxCell><mxCell id="1aQJizUw2zjihYZcxIvp-225" value="API Gateway" style="text;html=1;align=center;verticalAlign=middle;whiteSpace=wrap;rounded=0;fontFamily=Georgia;fontSize=9;" parent="1" vertex="1"><mxGeometry x="667.83" y="786.81" width="40" height="10" as="geometry"/></mxCell><mxCell id="1aQJizUw2zjihYZcxIvp-226" value="UI/AppBots for Internal Team" style="text;html=1;align=center;verticalAlign=middle;whiteSpace=wrap;rounded=0;fontSize=9;fontFamily=Georgia;" parent="1" vertex="1"><mxGeometry x="597.8299999999999" y="910" width="70" height="23" as="geometry"/></mxCell><mxCell id="14WRF5ACGoq1rfnwhwav-2" value="" style="sketch=0;outlineConnect=0;fontColor=#232F3E;gradientColor=none;strokeColor=#ffffff;fillColor=#232F3E;dashed=0;verticalLabelPosition=middle;verticalAlign=bottom;align=center;html=1;whiteSpace=wrap;fontSize=10;fontStyle=1;spacing=3;shape=mxgraph.aws4.productIcon;prIcon=mxgraph.aws4.lambda;fontFamily=Georgia;" parent="1" vertex="1"><mxGeometry x="226.00000000000006" y="529.0000000000001" width="42.27" height="28.39" as="geometry"/></mxCell><mxCell id="14WRF5ACGoq1rfnwhwav-3" value="" style="endArrow=classic;html=1;rounded=0;fontFamily=Georgia;fontSize=10;exitX=0.5;exitY=1;exitDx=0;exitDy=0;" parent="1" source="1aQJizUw2zjihYZcxIvp-161" target="14WRF5ACGoq1rfnwhwav-2" edge="1"><mxGeometry width="50" height="50" relative="1" as="geometry"><mxPoint x="463" y="434" as="sourcePoint"/><mxPoint x="431" y="480" as="targetPoint"/></mxGeometry></mxCell><mxCell id="_C0t6QlBZhCr6sV7qJL--1" value="" style="sketch=0;outlineConnect=0;fontColor=#232F3E;gradientColor=none;strokeColor=#ffffff;fillColor=#232F3E;dashed=0;verticalLabelPosition=middle;verticalAlign=bottom;align=center;html=1;whiteSpace=wrap;fontSize=10;fontStyle=1;spacing=3;shape=mxgraph.aws4.productIcon;prIcon=mxgraph.aws4.lambda;fontFamily=Georgia;" parent="1" vertex="1"><mxGeometry x="621.3299999999999" y="591" width="40" height="49" as="geometry"/></mxCell><mxCell id="_C0t6QlBZhCr6sV7qJL--2" value="" style="endArrow=classic;html=1;rounded=0;fontSize=10;fontFamily=Georgia;exitX=0.892;exitY=0.449;exitDx=0;exitDy=0;exitPerimeter=0;entryX=0.5;entryY=0;entryDx=0;entryDy=0;entryPerimeter=0;" parent="1" source="_C0t6QlBZhCr6sV7qJL--1" target="1aQJizUw2zjihYZcxIvp-196" edge="1"><mxGeometry width="50" height="50" relative="1" as="geometry"><mxPoint x="678" y="695" as="sourcePoint"/><mxPoint x="734" y="695" as="targetPoint"/><Array as="points"><mxPoint x="722" y="613"/></Array></mxGeometry></mxCell><mxCell id="_C0t6QlBZhCr6sV7qJL--3" value="" style="sketch=0;points=[[0,0,0],[0.25,0,0],[0.5,0,0],[0.75,0,0],[1,0,0],[0,1,0],[0.25,1,0],[0.5,1,0],[0.75,1,0],[1,1,0],[0,0.25,0],[0,0.5,0],[0,0.75,0],[1,0.25,0],[1,0.5,0],[1,0.75,0]];outlineConnect=0;fontColor=#232F3E;fillColor=#E7157B;strokeColor=#ffffff;dashed=0;verticalLabelPosition=bottom;verticalAlign=top;align=center;html=1;fontSize=12;fontStyle=0;aspect=fixed;shape=mxgraph.aws4.resourceIcon;resIcon=mxgraph.aws4.eventbridge;" parent="1" vertex="1"><mxGeometry x="486.83" y="537.61" width="27.39" height="27.39" as="geometry"/></mxCell><mxCell id="_C0t6QlBZhCr6sV7qJL--4" value="Data Standardization&lt;div&gt;(Clean+Enrich)&lt;/div&gt;" style="text;html=1;align=center;verticalAlign=middle;whiteSpace=wrap;rounded=0;fontSize=9;fontFamily=Georgia;" parent="1" vertex="1"><mxGeometry x="197.33" y="576" width="114.14" height="17.39" as="geometry"/></mxCell><mxCell id="_C0t6QlBZhCr6sV7qJL--5" value="Context Model Feed" style="text;html=1;align=center;verticalAlign=middle;whiteSpace=wrap;rounded=0;fontSize=9;fontFamily=Georgia;" parent="1" vertex="1"><mxGeometry x="588.69" y="626.61" width="114.14" height="17.39" as="geometry"/></mxCell></root></mxGraphModel></diagram></mxfile>